<svg xmlns="http://www.w3.org/2000/svg" width="1254" height="836" viewBox="0 0 1254 836">
<g>
<path d="M 845.66 453.00 L 843.41 458.50 L 837.41 458.79 C834.12,458.95 831.15,458.82 830.83,458.50 C830.51,458.17 831.92,453.77 833.97,448.70 C836.02,443.64 840.94,431.17 844.90,421.00 C855.21,394.48 855.90,393.09 860.21,390.36 C867.09,386.03 877.25,387.87 881.40,394.20 C882.22,395.47 884.30,400.10 886.02,404.50 C887.73,408.90 890.22,415.20 891.54,418.50 C892.86,421.80 895.32,428.33 897.02,433.00 C901.65,445.78 904.95,454.30 906.03,456.24 C907.58,459.01 907.35,459.11 900.25,458.80 L 893.50 458.50 L 889.34 448.00 C887.05,442.23 882.65,430.75 879.56,422.50 C871.67,401.41 871.46,401.00 868.63,401.00 C866.42,401.00 865.48,402.90 857.07,424.25 C852.04,437.04 846.91,449.98 845.66,453.00 ZM 450.32 446.61 C449.64,448.37 443.54,448.02 430.76,445.48 C428.21,444.98 426.52,445.15 425.46,446.03 C424.15,447.12 423.31,446.73 419.94,443.44 C416.05,439.65 416.01,439.54 418.21,438.72 C419.60,438.21 421.44,438.34 422.98,439.07 C426.85,440.87 442.20,446.00 443.75,446.00 C445.80,446.00 444.30,444.22 439.92,441.45 C436.77,439.46 436.00,438.38 436.00,435.95 C436.00,432.82 434.61,430.12 429.71,423.75 C427.60,421.00 426.09,420.00 424.04,420.00 C422.50,420.00 420.68,419.33 420.00,418.50 C419.32,417.67 418.15,417.00 417.41,417.00 C414.89,417.00 414.04,413.63 415.70,410.20 C417.33,406.84 419.59,406.18 423.09,408.05 C427.89,410.62 427.26,407.12 421.46,399.10 C420.11,397.23 419.00,395.14 419.00,394.46 C419.00,392.15 422.25,391.94 426.45,393.98 C431.56,396.45 434.85,396.73 433.04,394.54 C432.37,393.74 432.15,392.56 432.55,391.92 C433.07,391.08 433.54,391.21 434.19,392.37 C435.37,394.49 439.45,394.61 438.64,392.50 C438.29,391.59 438.64,391.00 439.53,391.00 C440.34,391.00 441.00,390.33 441.00,389.52 C441.00,387.94 436.76,386.41 435.14,387.41 C433.67,388.32 429.00,386.24 429.00,384.68 C429.00,383.92 430.01,382.82 431.25,382.22 C433.26,381.25 433.06,381.13 429.31,381.07 C424.41,380.99 422.94,379.40 420.45,371.48 C418.88,366.50 418.90,366.12 420.83,362.32 C423.35,357.39 424.55,356.43 429.25,355.59 C433.17,354.88 434.23,352.63 431.80,350.20 C431.14,349.54 430.92,349.00 431.32,349.00 C432.61,349.00 444.78,358.97 445.37,360.51 C446.14,362.52 445.69,362.41 441.40,359.50 C434.70,354.95 428.06,357.25 432.94,362.43 C435.25,364.89 436.11,372.34 434.59,376.64 C433.91,378.53 434.40,378.97 438.79,380.43 C444.96,382.48 446.59,384.27 447.49,390.00 C448.20,394.55 453.16,402.93 457.63,407.12 C458.93,408.35 460.00,409.86 460.00,410.49 C460.00,412.60 454.52,416.84 450.94,417.50 C446.16,418.38 444.55,416.31 444.34,409.09 C444.12,400.94 443.00,396.00 441.39,396.00 C440.63,396.00 440.00,396.45 440.00,397.00 C440.00,397.55 437.52,398.00 434.50,398.00 C431.48,398.00 429.00,398.42 429.00,398.93 C429.00,399.44 430.86,402.65 433.12,406.07 C435.39,409.48 437.55,413.45 437.91,414.89 C438.72,418.04 445.83,422.00 450.68,422.00 C452.93,422.00 454.27,422.63 455.02,424.04 C456.17,426.19 455.49,430.00 453.96,430.00 C453.47,430.00 453.35,429.26 453.69,428.36 C455.00,424.95 446.12,422.37 442.03,424.96 C439.82,426.36 441.59,427.41 445.78,427.19 C447.82,427.09 450.17,427.44 451.00,427.99 C452.26,428.81 452.21,428.97 450.63,428.98 C449.08,429.00 448.97,429.26 450.00,430.50 C450.68,431.33 451.86,432.00 452.62,432.00 C453.38,432.00 454.00,432.58 454.00,433.30 C454.00,435.53 451.73,437.00 448.30,437.00 C444.16,437.00 444.04,438.71 447.92,442.43 C449.53,443.97 450.61,445.85 450.32,446.61 ZM 924.00 390.00 L 924.00 459.00 L 912.00 459.00 L 912.00 390.00 ZM 311.85 562.00 C310.96,564.54 310.28,565.00 307.40,565.00 C305.53,565.00 304.00,564.75 304.00,564.45 C304.00,564.15 306.76,557.85 310.13,550.45 C316.15,537.25 316.32,537.00 319.47,537.00 C322.62,537.00 322.79,537.25 328.59,550.12 C331.84,557.34 334.65,563.64 334.83,564.12 C335.02,564.61 333.61,565.00 331.70,565.00 C328.80,565.00 328.04,564.52 327.00,562.00 C325.80,559.11 325.53,559.00 319.33,559.00 C313.08,559.00 312.87,559.09 311.85,562.00 ZM 376.42 362.30 C373.73,365.42 372.48,365.84 373.93,363.13 C374.59,361.90 374.60,360.09 373.97,357.88 C373.44,356.03 373.00,353.82 373.00,352.97 C373.00,349.59 382.66,346.54 387.25,348.48 C388.49,349.00 389.00,348.75 389.00,347.64 C389.00,344.32 392.54,343.88 397.39,346.60 C401.58,348.93 402.12,349.02 403.56,347.58 C404.57,346.57 406.65,346.06 409.32,346.17 L 413.50 346.35 L 409.33 346.73 C407.03,346.94 404.62,347.76 403.96,348.55 C403.30,349.35 402.38,350.00 401.92,350.00 C400.87,350.00 394.68,354.18 392.50,356.35 C391.60,357.26 389.65,358.28 388.18,358.63 C386.71,358.97 384.31,360.37 382.85,361.72 L 380.19 364.19 L 379.47 361.90 L 378.74 359.60 ZM 349.00 537.00 L 349.00 565.00 L 342.00 565.00 L 342.00 537.00 ZM 382.25 392.45 C381.68,395.43 378.27,395.99 377.35,393.25 C374.95,386.06 373.29,384.99 370.42,388.81 C369.73,389.73 368.57,390.00 367.17,389.56 C365.43,389.00 365.00,388.09 365.00,384.93 C365.00,381.81 365.37,381.00 366.80,381.00 C367.79,381.00 369.20,380.44 369.92,379.75 C370.99,378.75 371.34,378.75 371.71,379.76 C372.04,380.65 373.09,380.26 375.20,378.49 C377.56,376.50 378.53,376.19 379.61,377.09 C381.57,378.72 381.35,380.13 378.53,383.95 C375.69,387.81 375.87,388.52 379.85,389.32 C382.31,389.81 382.67,390.28 382.25,392.45 ZM 380.44 496.89 L 382.05 500.00 L 377.15 500.00 C374.01,500.00 371.80,499.46 371.00,498.50 C370.32,497.67 369.24,497.00 368.60,497.00 C367.96,497.00 366.67,496.10 365.73,495.00 C364.06,493.04 364.12,493.00 368.45,493.00 C370.89,493.00 373.18,492.52 373.54,491.93 C374.44,490.47 373.66,489.88 369.80,489.10 C367.29,488.59 366.42,487.84 366.15,485.96 C365.96,484.61 366.15,483.83 366.56,484.24 C366.98,484.65 367.86,484.53 368.53,483.97 C369.40,483.25 370.19,483.64 371.30,485.33 C372.20,486.71 375.40,488.65 378.92,489.97 C382.27,491.22 385.00,492.64 385.00,493.13 C385.00,493.62 384.11,493.46 383.02,492.78 C379.85,490.80 378.45,493.03 380.44,496.89 ZM 944.03 551.75 C943.11,555.30 942.52,556.00 940.46,556.00 L 940.37 556.00 C939.56,556.00 938.99,556.00 938.63,555.73 C937.78,555.08 938.08,552.90 939.10,545.59 L 939.15 545.25 L 940.30 537.00 L 944.26 537.00 C947.29,537.00 948.08,537.34 947.66,538.44 C947.36,539.23 946.67,541.59 946.12,543.69 C945.58,545.78 944.64,549.41 944.03,551.75 ZM 445.67 415.33 C448.13,417.80 458.00,413.95 458.00,410.53 C458.00,408.76 451.39,404.91 449.56,405.62 C446.44,406.81 443.78,413.45 445.67,415.33 ZM 941.07 564.96 L 940.92 565.05 C939.80,565.64 939.25,565.94 938.72,565.90 C938.17,565.86 937.65,565.46 936.57,564.67 C934.31,563.03 935.21,559.38 938.10,558.47 C942.28,557.14 944.91,562.91 941.07,564.96 ZM 317.25 548.84 L 315.11 554.00 L 319.06 554.00 C323.51,554.00 323.70,553.41 321.13,547.59 L 319.40 543.68 ZM 455.88 394.67 C454.20,394.67 452.42,395.30 451.93,396.08 C450.62,398.16 450.80,396.95 452.59,391.68 C453.72,388.37 454.73,387.00 456.03,387.00 C458.79,387.00 459.57,389.11 457.40,390.71 C455.62,392.04 455.61,392.20 457.21,393.40 C458.73,394.52 458.58,394.67 455.88,394.67 ZM 400.39 425.88 C401.81,427.45 401.85,427.88 400.64,428.89 C398.31,430.82 392.97,425.69 393.12,421.66 C393.18,419.92 393.44,419.29 393.69,420.25 C394.10,421.83 395.22,422.43 397.21,422.13 C397.61,422.07 397.64,422.77 397.29,423.68 C396.91,424.69 397.06,425.08 397.70,424.69 C398.27,424.34 399.48,424.87 400.39,425.88 ZM 446.03 434.89 C452.36,437.41 454.92,435.02 449.08,432.04 C444.99,429.96 441.99,429.41 442.02,430.75 C442.05,432.29 443.63,433.93 446.03,434.89 ZM 351.42 378.86 C350.90,378.03 350.33,378.19 349.44,379.41 C348.64,380.51 347.96,380.74 347.53,380.05 C346.40,378.22 347.87,375.51 351.00,373.66 L 354.00 371.89 L 354.00 375.38 C354.00,379.04 352.65,380.86 351.42,378.86 ZM 388.00 416.22 C388.00,418.54 380.87,413.68 377.51,409.06 C374.00,404.24 374.43,403.83 378.44,408.14 C380.31,410.15 383.22,412.61 384.92,413.61 C386.61,414.61 388.00,415.78 388.00,416.22 ZM 386.00 369.58 C386.00,371.17 384.20,371.41 382.14,370.11 C380.48,369.06 381.53,365.00 383.46,365.00 C384.83,365.00 386.00,367.11 386.00,369.58 ZM 377.57 357.12 C378.10,357.97 379.02,357.51 380.67,355.59 C382.89,353.01 383.02,351.00 380.96,351.00 C379.44,351.00 376.77,355.82 377.57,357.12 ZM 386.00 352.11 C386.00,353.31 390.73,353.25 391.47,352.04 C391.80,351.52 392.68,351.32 393.43,351.61 C394.18,351.90 395.09,351.66 395.46,351.07 C395.88,350.39 394.85,350.00 392.64,350.00 C388.62,350.00 386.00,350.83 386.00,352.11 ZM 404.42 490.39 C402.32,491.20 401.78,491.15 400.00,490.00 C398.70,489.16 398.73,489.03 400.17,489.02 C401.08,489.01 402.01,488.48 402.22,487.84 C402.43,487.20 403.37,486.56 404.30,486.43 C406.49,486.11 406.59,489.56 404.42,490.39 ZM 373.69 415.71 C372.70,415.33 372.00,415.74 371.77,416.81 C371.47,418.26 371.32,418.21 370.71,416.50 C370.32,415.40 369.75,413.99 369.46,413.37 C368.27,410.91 371.91,411.22 373.55,413.72 C375.02,415.96 375.04,416.23 373.69,415.71 ZM 400.24 435.50 C400.77,438.25 399.57,438.93 398.61,436.42 C397.75,434.20 397.85,433.00 398.88,433.00 C399.37,433.00 399.98,434.12 400.24,435.50 ZM 400.77 386.19 C400.15,388.04 398.00,388.35 398.00,386.58 C398.00,385.71 398.71,385.00 399.58,385.00 C400.45,385.00 400.99,385.53 400.77,386.19 ZM 391.55 429.91 C390.40,431.77 389.16,431.11 389.73,428.93 C390.08,427.59 390.61,427.21 391.25,427.85 C391.79,428.39 391.92,429.31 391.55,429.91 ZM 381.50 438.00 C381.84,438.55 381.44,439.00 380.62,439.00 C379.79,439.00 378.84,438.55 378.50,438.00 C378.16,437.45 378.56,437.00 379.38,437.00 C380.21,437.00 381.16,437.45 381.50,438.00 ZM 419.00 413.06 C419.00,413.58 419.45,414.00 420.00,414.00 C420.55,414.00 421.00,413.30 421.00,412.44 C421.00,411.58 420.55,411.16 420.00,411.50 C419.45,411.84 419.00,412.54 419.00,413.06 ZM 394.00 469.00 C394.00,469.55 393.55,470.00 393.00,470.00 C392.45,470.00 392.00,469.55 392.00,469.00 C392.00,468.45 392.45,468.00 393.00,468.00 C393.55,468.00 394.00,468.45 394.00,469.00 Z" fill="rgb(173,85,85)"/>
<path d="M 376.42 362.30 L 378.74 359.60 L 379.47 361.90 L 380.19 364.19 L 382.85 361.72 C384.31,360.37 386.71,358.97 388.18,358.63 C389.65,358.28 391.60,357.26 392.50,356.35 C394.68,354.18 400.87,350.00 401.92,350.00 C402.38,350.00 403.30,349.35 403.96,348.55 C404.62,347.76 407.03,346.94 409.33,346.73 L 412.61 346.43 C413.02,346.46 413.45,346.49 413.90,346.53 C422.98,347.25 427.48,347.82 431.17,349.38 C431.27,349.59 431.48,349.88 431.80,350.20 C434.23,352.63 433.17,354.88 429.25,355.59 C424.55,356.43 423.35,357.39 420.83,362.32 C418.90,366.12 418.88,366.50 420.45,371.48 C422.94,379.40 424.41,380.99 429.31,381.07 C433.06,381.13 433.26,381.25 431.25,382.22 C430.01,382.82 429.00,383.92 429.00,384.68 C429.00,386.24 433.67,388.32 435.14,387.41 C436.76,386.41 441.00,387.94 441.00,389.52 C441.00,390.33 440.34,391.00 439.53,391.00 C438.64,391.00 438.29,391.59 438.64,392.50 C438.68,392.61 438.71,392.71 438.73,392.81 C438.47,392.22 437.55,391.60 436.19,391.50 C434.88,391.40 434.13,391.63 434.03,392.10 C433.46,391.20 433.02,391.15 432.55,391.92 C432.15,392.56 432.37,393.74 433.04,394.54 C434.85,396.73 431.56,396.45 426.45,393.98 C422.25,391.94 419.00,392.15 419.00,394.46 C419.00,395.14 420.11,397.23 421.46,399.10 C427.26,407.12 427.89,410.62 423.09,408.05 C419.59,406.18 417.33,406.84 415.70,410.20 C414.04,413.63 414.89,417.00 417.41,417.00 C418.15,417.00 419.32,417.67 420.00,418.50 C420.68,419.33 422.50,420.00 424.04,420.00 C426.09,420.00 427.60,421.00 429.71,423.75 C434.61,430.12 436.00,432.82 436.00,435.95 C436.00,438.38 436.77,439.46 439.92,441.45 C444.30,444.22 445.80,446.00 443.75,446.00 C442.20,446.00 426.85,440.87 422.98,439.07 C421.44,438.34 419.60,438.21 418.21,438.72 C416.01,439.54 416.05,439.65 419.94,443.44 C423.31,446.73 424.15,447.12 425.46,446.03 C425.73,445.81 426.03,445.63 426.38,445.50 C425.64,445.88 424.97,446.63 424.06,447.91 C422.17,450.58 422.07,451.09 423.41,451.60 C424.75,452.12 424.63,452.78 422.58,456.35 C421.26,458.63 419.62,463.11 418.92,466.30 C418.23,469.48 417.29,472.32 416.83,472.61 C416.37,472.89 413.96,471.46 411.47,469.42 C406.50,465.35 404.85,465.27 407.99,469.26 C409.09,470.66 410.00,473.07 410.00,474.60 L 410.00 477.39 L 406.50 473.57 C402.65,469.37 402.25,467.87 404.49,466.01 C405.31,465.33 405.71,464.35 405.39,463.82 C404.57,462.50 401.00,465.92 401.00,468.02 C401.00,468.96 400.13,470.84 399.06,472.20 C397.64,474.00 397.17,476.02 397.31,479.71 C397.46,483.61 397.19,484.63 396.13,484.22 C395.13,483.84 394.95,484.26 395.45,485.85 C395.99,487.55 395.73,488.00 394.16,488.00 C392.68,488.00 392.32,487.50 392.71,486.00 C393.08,484.58 392.74,484.00 391.55,484.00 C390.29,484.00 390.03,484.53 390.53,486.10 C391.16,488.08 390.95,488.17 387.10,487.52 C383.22,486.86 381.50,487.96 384.00,489.50 C384.55,489.84 385.00,491.00 385.00,492.07 C385.00,492.46 384.99,492.76 384.94,492.99 C384.54,492.41 381.99,491.12 378.92,489.97 C375.40,488.65 372.20,486.71 371.30,485.33 C370.19,483.64 369.40,483.25 368.53,483.97 C367.86,484.53 366.98,484.65 366.56,484.24 C366.15,483.83 365.96,484.61 366.15,485.96 C366.42,487.84 367.29,488.59 369.80,489.10 C370.78,489.30 371.57,489.48 372.17,489.68 C371.92,489.60 371.64,489.52 371.32,489.45 C365.78,488.23 366.44,489.19 364.45,479.45 C363.94,476.94 364.63,475.22 368.39,469.61 C370.89,465.88 373.23,461.17 373.58,459.16 C373.93,457.15 374.60,453.70 375.08,451.50 C375.84,448.04 375.67,447.26 373.87,445.75 C371.10,443.43 372.04,438.00 376.09,432.89 C377.69,430.87 379.00,428.76 379.00,428.21 C379.00,426.81 376.19,425.88 375.47,427.04 C375.15,427.57 374.12,427.99 373.19,427.97 C371.73,427.94 371.76,427.74 373.48,426.44 C375.06,425.25 375.23,424.60 374.34,423.22 C373.69,422.22 372.24,421.62 370.88,421.78 C369.03,422.00 368.80,421.80 369.77,420.83 C370.54,420.06 370.95,418.56 370.97,417.20 C371.37,418.19 371.52,418.02 371.77,416.81 C372.00,415.74 372.70,415.33 373.69,415.71 C375.04,416.23 375.02,415.96 373.55,413.72 C372.11,411.52 369.13,411.02 369.23,412.59 C368.94,411.58 368.68,410.27 368.49,408.91 C367.90,404.65 367.49,403.90 365.97,404.30 C364.46,404.69 364.04,403.96 363.48,399.89 C362.94,395.95 362.44,395.00 360.87,395.00 C359.81,395.00 358.66,394.29 358.33,393.42 C357.81,392.06 360.51,373.56 361.69,370.40 C361.91,369.79 360.94,368.53 359.52,367.60 C356.95,365.92 356.93,365.93 355.47,369.42 C354.66,371.36 354.00,374.23 354.00,375.80 C354.00,377.99 353.66,379.21 352.97,379.47 C353.57,378.93 354.00,377.45 354.00,375.38 L 354.00 371.89 L 351.00 373.66 C350.48,373.96 350.01,374.29 349.59,374.63 C350.49,373.49 351.34,371.62 351.63,370.03 C351.98,368.09 352.60,366.05 353.01,365.50 C353.43,364.95 354.08,363.04 354.46,361.25 C355.44,356.69 357.40,357.03 356.55,361.61 C356.04,364.32 356.19,365.10 357.16,364.78 C358.69,364.27 359.97,359.92 359.01,358.50 C358.64,357.95 358.90,355.70 359.59,353.50 C360.28,351.30 360.88,350.30 360.92,351.28 C360.97,352.26 361.64,353.31 362.42,353.61 C363.61,354.07 363.53,355.04 361.92,359.74 C360.86,362.81 360.18,365.51 360.40,365.73 C361.46,366.79 364.89,363.30 365.42,360.63 C365.75,358.98 367.48,356.33 369.26,354.75 L 372.50 351.88 L 369.78 352.30 C365.97,352.88 363.39,350.00 365.01,346.98 C365.38,346.29 365.62,345.82 366.01,345.54 C366.88,344.94 368.45,345.33 373.61,346.62 L 373.83 346.68 C375.34,347.06 377.14,346.54 378.96,345.19 L 381.77 343.11 L 384.39 346.06 C385.29,347.06 386.07,347.81 386.73,348.29 C381.97,346.76 373.00,349.71 373.00,352.97 C373.00,353.82 373.44,356.03 373.97,357.88 C374.60,360.09 374.59,361.90 373.93,363.13 C372.48,365.84 373.73,365.42 376.42,362.30 ZM 537.50 395.83 L 537.50 458.50 L 531.96 458.79 C528.91,458.96 526.10,458.77 525.71,458.38 C525.32,457.99 525.00,454.70 525.00,451.08 L 525.00 444.50 L 505.75 444.49 C484.80,444.49 481.92,443.85 478.39,438.47 C476.40,435.43 476.37,429.12 478.34,425.31 C480.82,420.51 504.78,393.16 507.93,391.54 C510.02,390.45 513.87,390.00 520.93,390.00 C530.61,390.00 531.09,390.11 534.23,392.92 ZM 440.00 510.19 L 432.71 510.32 C331.50,512.12 322.82,512.27 316.22,508.65 C315.45,508.22 314.70,507.74 313.84,507.21 C309.72,504.66 305.38,498.82 303.98,493.92 C302.59,489.08 302.68,343.70 304.07,338.68 C305.48,333.63 311.41,327.18 317.00,324.63 C321.45,322.60 322.56,322.58 413.50,322.89 C464.10,323.05 505.69,323.37 505.92,323.60 L 505.92 323.60 C505.92,323.82 467.53,324.01 420.42,324.03 C372.02,324.05 331.30,324.48 327.17,325.01 C318.36,326.16 313.00,328.95 309.26,334.34 L 306.50 338.33 L 306.23 415.31 C305.97,491.38 305.99,492.34 308.03,496.57 C309.17,498.92 311.65,502.02 313.53,503.46 C320.97,509.13 318.67,508.98 403.38,509.23 C447.22,509.36 465.93,509.42 465.93,509.60 C465.93,509.72 456.52,509.90 440.00,510.19 ZM 492.75 432.93 C493.80,433.55 500.53,433.87 509.50,433.73 L 524.50 433.50 L 524.50 402.50 L 518.85 402.20 L 513.20 401.91 L 502.10 415.02 C496.00,422.23 491.00,428.97 491.00,430.01 C491.00,431.05 491.79,432.37 492.75,432.93 ZM 807.07 430.75 L 807.00 459.00 L 803.57 459.00 C801.69,459.00 799.47,458.33 798.65,457.51 C797.52,456.38 797.04,456.32 796.66,457.26 C796.38,457.94 796.12,446.33 796.08,431.45 C796.03,413.10 796.35,404.05 797.09,403.31 C797.73,402.67 798.04,399.66 797.84,396.10 L 797.50 390.00 L 802.55 390.00 L 807.60 390.00 L 807.37 396.25 C807.24,399.69 807.11,415.21 807.07,430.75 ZM 473.57 564.54 C469.69,566.15 468.45,566.24 465.50,565.07 C464.40,564.63 461.81,564.50 459.75,564.77 L 456.00 565.26 L 456.00 536.00 L 459.00 536.00 C461.90,536.00 462.00,536.16 462.00,540.57 C462.00,544.83 462.15,545.09 464.25,544.49 C465.49,544.13 467.25,543.63 468.18,543.38 C471.03,542.59 476.77,545.66 478.43,548.87 C481.51,554.83 479.23,562.17 473.57,564.54 ZM 921.67 564.95 C919.38,564.89 916.38,565.08 915.00,565.38 C907.67,566.94 902.09,558.50 905.34,550.74 C907.81,544.81 913.98,542.28 921.14,544.25 C923.65,544.95 923.81,544.76 924.45,540.49 C925.09,536.21 925.28,536.00 928.43,536.00 L 931.74 536.00 L 929.87 545.25 C928.84,550.34 927.51,556.88 926.92,559.78 L 925.84 565.07 ZM 726.50 568.00 C725.82,572.91 725.75,573.00 722.34,573.00 C719.51,573.00 718.96,572.68 719.37,571.25 C719.65,570.29 720.83,564.55 722.00,558.50 C723.17,552.45 724.34,546.75 724.61,545.83 C725.00,544.45 726.50,544.15 733.16,544.10 C742.39,544.04 744.23,544.74 745.98,548.95 C749.88,558.36 739.69,568.99 730.95,564.63 C729.16,563.73 727.58,563.00 727.44,563.00 C727.30,563.00 726.88,565.25 726.50,568.00 ZM 681.98 558.87 C680.64,564.73 680.18,565.53 677.95,565.80 C676.56,565.96 675.18,565.84 674.88,565.54 C674.57,565.24 675.24,560.30 676.36,554.56 L 678.38 544.13 L 686.88 544.10 C691.55,544.08 695.94,544.53 696.62,545.10 C697.49,545.82 698.49,545.81 699.87,545.07 C700.97,544.48 703.91,544.00 706.41,544.00 C712.21,544.00 714.60,546.94 713.53,552.75 C711.15,565.72 710.98,566.13 708.15,565.81 C705.65,565.52 705.52,565.25 705.91,561.00 C706.87,550.49 706.71,549.52 703.91,549.20 C700.44,548.80 699.08,550.71 697.14,558.74 C695.66,564.85 695.26,565.50 693.00,565.50 C690.62,565.50 690.52,565.27 690.89,560.50 C691.73,549.61 691.71,549.52 688.91,549.20 C685.38,548.79 683.78,551.02 681.98,558.87 ZM 416.00 558.70 C416.00,565.68 415.90,566.00 413.67,566.00 C412.38,566.00 411.03,565.70 410.67,565.33 C410.30,564.97 410.00,560.04 410.00,554.37 L 410.00 544.08 L 419.25 544.49 L 420.65 544.55 C427.39,544.85 429.73,544.96 432.05,544.84 C433.44,544.77 434.82,544.62 437.13,544.39 C444.87,543.62 446.00,545.27 446.00,557.29 L 446.00 566.13 L 443.25 565.82 C440.58,565.51 440.49,565.30 440.20,558.54 C439.88,551.20 438.90,549.00 435.95,549.00 C432.35,549.00 431.00,551.76 431.00,559.14 L 431.00 566.13 L 428.25 565.82 C425.58,565.51 425.49,565.30 425.20,558.54 C424.87,550.97 423.92,549.00 420.58,549.00 C416.92,549.00 416.00,550.95 416.00,558.70 ZM 379.44 562.50 C378.23,565.39 377.45,566.00 374.99,566.00 C373.34,566.00 372.00,565.55 372.00,565.01 C372.00,564.46 374.68,558.05 377.95,550.76 C383.74,537.88 384.00,537.49 387.21,537.20 L 390.51 536.91 L 396.76 550.70 C400.19,558.29 403.00,564.84 403.00,565.25 C403.00,565.66 401.64,566.00 399.98,566.00 C397.52,566.00 396.66,565.36 395.30,562.50 C393.65,559.04 393.55,559.00 387.26,559.00 C380.93,559.00 380.89,559.02 379.44,562.50 ZM 380.44 496.89 C381.87,499.66 382.54,500.00 386.47,500.00 C388.90,500.00 391.16,499.55 391.50,499.00 C391.84,498.45 391.74,498.00 391.27,498.00 C390.81,498.00 389.59,496.58 388.57,494.85 L 386.71 491.70 L 390.92 492.26 C393.24,492.57 398.59,494.55 402.82,496.66 L 410.50 500.50 L 444.00 501.04 C468.39,501.43 456.68,501.63 400.90,501.79 L 324.30 502.00 L 320.30 499.10 C314.86,495.16 311.20,486.00 315.06,486.00 C315.58,486.00 316.00,486.79 316.00,487.75 C316.01,490.96 319.87,495.90 324.05,498.02 C327.57,499.82 329.72,500.10 338.84,499.93 C348.39,499.76 350.17,499.42 355.97,496.71 C358.48,495.54 361.91,494.38 364.75,493.68 C364.87,493.98 365.22,494.40 365.73,495.00 C366.67,496.10 367.96,497.00 368.60,497.00 C369.24,497.00 370.32,497.67 371.00,498.50 C371.80,499.46 374.01,500.00 377.15,500.00 L 382.05 500.00 ZM 797.21 559.01 C794.22,564.45 793.62,565.00 790.63,565.00 L 787.35 565.00 L 786.12 557.25 C785.45,552.99 784.64,548.26 784.33,546.75 C783.81,544.23 784.02,544.00 786.79,544.00 C789.68,544.00 789.84,544.23 790.52,549.25 C791.63,557.51 792.26,557.65 796.05,550.52 C799.18,544.62 799.80,544.02 802.66,544.01 C805.71,544.00 805.84,544.17 806.52,549.25 C807.63,557.51 808.26,557.65 812.05,550.52 C815.18,544.61 815.79,544.02 818.68,544.01 L 821.85 544.00 L 816.14 554.25 C810.61,564.18 810.33,564.50 806.97,564.50 C803.52,564.50 803.50,564.47 802.59,558.75 C802.09,555.59 801.41,553.01 801.09,553.01 C800.76,553.02 799.02,555.72 797.21,559.01 ZM 665.82 562.75 L 665.50 565.50 L 655.23 565.79 C646.97,566.01 644.86,565.79 644.40,564.61 C643.95,563.42 646.35,549.17 648.69,539.25 C649.20,537.09 649.64,537.00 660.02,537.00 L 670.83 537.00 L 670.09 539.75 C669.39,542.41 669.12,542.51 661.68,542.79 L 654.00 543.08 L 654.00 546.04 C654.00,548.99 654.01,549.00 660.07,549.00 C665.79,549.00 666.12,549.13 665.82,551.25 C665.53,553.29 664.88,553.53 658.75,553.80 C653.84,554.01 652.00,554.47 652.00,555.46 C652.00,556.22 651.73,557.55 651.39,558.42 C650.87,559.78 651.87,560.00 658.46,560.00 L 666.13 560.00 ZM 769.51 564.56 C764.88,566.49 762.12,566.37 758.31,564.05 C752.92,560.76 751.55,555.71 754.49,550.01 C756.83,545.50 759.76,544.00 766.27,544.00 C771.12,544.00 772.50,544.41 774.55,546.45 C779.42,551.33 776.56,561.61 769.51,564.56 ZM 557.40 564.61 C553.28,566.33 551.40,566.31 547.27,564.52 C539.78,561.26 538.08,552.07 543.98,546.75 C546.54,544.45 547.93,544.00 552.59,544.00 C557.41,544.00 558.55,544.39 561.08,546.92 C563.41,549.26 564.00,550.72 564.00,554.20 C564.00,559.43 561.91,562.72 557.40,564.61 ZM 891.58 564.53 C887.15,566.38 884.30,566.34 880.50,564.35 C876.15,562.08 875.00,560.17 875.00,555.21 C875.00,551.53 875.56,550.24 878.40,547.40 C881.46,544.34 882.36,544.00 887.45,544.00 C894.47,544.00 898.00,546.83 898.00,552.45 L 898.00 556.00 L 889.50 556.00 C880.59,556.00 879.25,556.81 883.50,559.59 C885.87,561.15 887.30,561.14 891.17,559.54 C892.31,559.07 893.21,559.52 893.97,560.95 C894.98,562.84 894.73,563.21 891.58,564.53 ZM 840.85 564.90 C830.10,568.65 821.24,560.55 825.34,550.73 C827.21,546.25 831.37,544.00 837.78,544.00 C843.06,544.00 846.17,546.24 847.29,550.85 C848.39,555.37 847.36,556.00 838.89,556.00 C832.49,556.00 831.00,556.29 831.00,557.52 C831.00,559.85 835.76,561.28 839.35,560.03 C841.63,559.23 842.56,559.28 843.17,560.24 C844.64,562.56 844.03,563.80 840.85,564.90 ZM 578.80 558.54 C578.51,565.15 578.37,565.51 575.96,565.80 C574.57,565.96 573.10,565.77 572.71,565.38 C572.32,564.99 572.00,560.06 572.00,554.43 L 572.00 544.19 L 581.38 544.14 C593.77,544.06 594.50,544.77 594.50,556.85 L 594.50 565.50 L 588.50 565.50 L 587.50 549.50 L 584.41 549.20 C580.16,548.78 579.15,550.47 578.80,558.54 ZM 616.87 564.89 C613.18,566.18 610.74,566.18 606.25,564.88 C603.04,563.96 602.32,562.62 603.78,560.33 C604.34,559.45 605.55,559.42 608.61,560.24 C612.84,561.37 616.00,560.84 616.00,559.00 C616.00,557.79 615.03,557.41 609.78,556.54 C605.15,555.77 603.00,553.70 603.00,549.99 C603.00,545.79 606.18,544.00 613.66,544.00 C620.12,544.00 621.44,544.68 620.38,547.45 C619.89,548.74 618.87,548.96 615.63,548.51 C610.95,547.87 607.48,549.34 609.94,550.92 C610.72,551.43 612.97,552.14 614.94,552.51 C616.90,552.87 619.29,553.88 620.25,554.74 C623.68,557.82 621.91,563.14 616.87,564.89 ZM 316.00 345.25 C316.00,346.21 315.28,347.00 314.39,347.00 C313.14,347.00 312.93,346.39 313.46,344.25 C314.65,339.43 317.50,335.57 321.56,333.27 L 325.50 331.03 L 400.00 331.20 C448.79,331.31 467.43,331.60 454.00,332.05 C442.73,332.42 409.74,332.79 380.71,332.86 C329.69,333.00 327.79,333.07 323.92,335.04 C319.86,337.11 316.01,342.07 316.00,345.25 ZM 517.77 564.56 C516.65,565.68 511.27,565.89 509.50,564.89 C505.95,562.87 505.00,560.74 505.00,554.81 C505.00,550.31 504.66,549.00 503.50,549.00 C502.57,549.00 502.00,548.06 502.00,546.50 C502.00,544.94 502.57,544.00 503.50,544.00 C504.43,544.00 505.00,543.06 505.00,541.50 C505.00,539.40 505.47,539.00 507.93,539.00 C510.21,539.00 510.93,539.50 511.18,541.25 C511.41,542.87 512.28,543.59 514.31,543.82 C516.55,544.08 517.06,544.59 516.81,546.32 C516.59,547.86 515.69,548.59 513.75,548.82 C511.17,549.11 511.00,549.43 511.00,554.03 C511.00,558.96 512.78,561.35 515.67,560.31 C516.77,559.91 518.64,563.69 517.77,564.56 ZM 860.98 558.66 C859.63,564.75 859.19,565.53 856.95,565.80 C855.56,565.96 854.18,565.84 853.88,565.54 C853.57,565.24 854.24,560.31 855.35,554.59 L 857.37 544.18 L 864.19 544.18 C867.93,544.18 871.00,544.55 871.00,545.01 C871.00,547.12 869.63,549.00 868.08,549.00 C864.56,549.00 862.51,551.79 860.98,558.66 ZM 382.25 392.45 C382.67,390.28 382.31,389.81 379.85,389.32 C375.87,388.52 375.69,387.81 378.53,383.95 C381.35,380.13 381.57,378.72 379.61,377.09 C378.53,376.19 377.56,376.50 375.20,378.49 C373.09,380.26 372.04,380.65 371.71,379.76 C371.34,378.75 370.99,378.75 369.92,379.75 C369.20,380.44 367.79,381.00 366.80,381.00 C365.37,381.00 365.00,381.81 365.00,384.93 C365.00,388.09 365.43,389.00 367.17,389.56 C368.57,390.00 369.73,389.73 370.42,388.81 C373.29,384.99 374.95,386.06 377.35,393.25 C378.27,395.99 381.68,395.43 382.25,392.45 ZM 494.00 544.00 L 494.00 565.00 L 488.00 565.00 L 488.00 544.00 ZM 532.00 544.00 L 532.00 565.00 L 526.00 565.00 L 526.00 544.00 ZM 762.34 559.93 C765.39,561.07 768.27,559.77 769.86,556.54 C771.78,552.63 770.05,548.99 766.27,549.02 C762.91,549.03 761.67,549.79 760.09,552.79 C758.56,555.70 759.56,558.90 762.34,559.93 ZM 551.00 560.23 C553.43,560.98 557.00,558.85 557.65,556.25 C558.68,552.16 556.53,549.00 552.72,549.00 C548.72,549.00 547.00,550.51 547.00,554.01 C547.00,556.89 548.69,559.52 551.00,560.23 ZM 445.67 415.33 C443.78,413.45 446.44,406.81 449.56,405.62 C451.39,404.91 458.00,408.76 458.00,410.53 C458.00,413.95 448.13,417.80 445.67,415.33 ZM 731.94 559.66 C736.17,561.76 740.33,558.15 739.82,552.82 C739.53,549.78 739.18,549.47 735.81,549.19 C732.79,548.94 731.82,549.34 730.48,551.39 C728.32,554.69 728.93,558.16 731.94,559.66 ZM 912.20 558.80 C914.19,560.79 918.73,560.23 920.44,557.78 C923.51,553.41 921.84,549.00 917.13,549.00 C912.21,549.00 908.92,555.52 912.20,558.80 ZM 466.24 559.93 C469.47,561.18 472.43,559.00 472.82,555.07 C473.22,551.04 471.56,549.00 467.90,549.00 C463.95,549.00 461.25,553.05 462.85,556.57 C463.47,557.94 465.00,559.45 466.24,559.93 ZM 383.75 554.41 C384.07,554.74 385.83,555.00 387.67,555.00 C389.93,555.00 391.00,554.53 391.00,553.53 C391.00,551.74 387.86,545.00 387.03,545.00 C386.12,545.00 383.07,553.74 383.75,554.41 ZM 400.39 425.88 C399.48,424.87 398.27,424.34 397.70,424.69 C397.18,425.00 396.98,424.81 397.13,424.18 C397.43,424.45 397.63,424.60 397.67,424.58 C397.92,424.45 397.80,423.53 397.52,422.41 C397.51,422.38 397.50,422.35 397.50,422.33 C396.99,420.39 396.00,417.90 395.50,417.90 C393.94,417.89 393.83,420.13 395.07,421.99 C394.37,421.71 393.92,421.13 393.69,420.25 C393.44,419.29 393.18,419.92 393.12,421.66 C392.97,425.69 398.31,430.82 400.64,428.89 C401.85,427.88 401.81,427.45 400.39,425.88 ZM 351.95 410.56 C350.90,411.82 349.21,412.48 348.89,411.75 C348.83,411.61 348.64,408.35 348.47,404.51 C348.09,395.78 349.44,392.69 350.41,400.06 C350.80,402.97 351.57,406.20 352.13,407.24 C352.84,408.57 352.78,409.55 351.95,410.56 ZM 493.96 539.55 C493.30,540.35 492.22,541.00 491.57,541.00 C489.33,541.00 486.78,538.37 487.15,536.43 C487.44,534.96 488.36,534.50 491.00,534.50 C494.80,534.50 496.19,536.86 493.96,539.55 ZM 531.42 539.68 C530.43,540.41 529.34,541.00 529.00,541.00 C527.25,541.00 524.83,538.13 525.15,536.43 C525.44,534.96 526.36,534.50 529.00,534.50 C531.64,534.50 532.56,534.96 532.85,536.43 C533.05,537.50 532.41,538.96 531.42,539.68 ZM 450.05 429.01 C450.22,428.99 450.41,428.99 450.63,428.98 C452.21,428.97 452.26,428.81 451.00,427.99 C450.17,427.44 447.82,427.09 445.78,427.19 C441.59,427.41 439.82,426.36 442.03,424.96 C446.12,422.37 455.00,424.95 453.69,428.36 C453.52,428.82 453.46,429.24 453.52,429.54 C453.04,429.53 452.45,429.44 451.69,429.30 C450.99,429.16 450.45,429.06 450.05,429.01 ZM 455.88 394.67 C458.58,394.67 458.73,394.52 457.21,393.40 C456.90,393.16 456.65,392.97 456.46,392.80 C456.70,393.01 457.02,393.25 457.44,393.56 C458.51,394.35 459.75,395.00 460.19,395.00 C461.66,395.00 461.03,397.66 459.17,399.35 C456.99,401.32 456.85,401.32 455.26,399.52 C454.59,398.75 453.34,397.73 452.51,397.26 C452.09,397.03 451.81,396.82 451.65,396.51 C451.73,396.39 451.82,396.25 451.93,396.08 C452.42,395.30 454.20,394.67 455.88,394.67 ZM 882.19 551.27 C881.91,552.73 882.66,553.00 887.00,553.00 C891.24,553.00 892.09,552.71 891.82,551.36 C891.01,547.25 882.98,547.17 882.19,551.27 ZM 831.54 552.07 C832.29,553.27 840.71,553.28 841.45,552.08 C842.23,550.82 839.25,548.00 837.15,548.00 C834.84,548.00 830.83,550.91 831.54,552.07 ZM 446.03 434.89 C443.63,433.93 442.05,432.29 442.02,430.75 C441.99,429.41 444.99,429.96 449.08,432.04 C454.92,435.02 452.36,437.41 446.03,434.89 ZM 405.75 487.06 C405.48,486.60 405.00,486.32 404.30,486.43 C403.37,486.56 402.43,487.20 402.22,487.84 C402.01,488.48 401.08,489.01 400.17,489.02 C398.73,489.03 398.70,489.16 400.00,490.00 C400.37,490.24 400.68,490.43 400.96,490.57 C400.61,490.41 400.22,490.19 399.74,489.91 C398.16,488.99 398.13,488.72 399.49,487.37 C400.32,486.54 401.00,485.02 401.00,483.99 C401.00,480.82 402.84,480.78 404.46,483.92 C405.10,485.16 405.53,486.19 405.75,487.06 ZM 388.00 416.22 C388.00,415.78 386.61,414.61 384.92,413.61 C383.22,412.61 380.31,410.15 378.44,408.14 C374.43,403.83 374.00,404.24 377.51,409.06 C380.87,413.68 388.00,418.54 388.00,416.22 ZM 397.97 457.42 C398.61,459.12 399.44,459.77 400.47,459.37 C402.42,458.63 402.41,457.03 400.44,454.22 C397.53,450.07 395.95,452.11 397.97,457.42 ZM 386.00 369.58 C386.00,367.11 384.83,365.00 383.46,365.00 C381.53,365.00 380.48,369.06 382.14,370.11 C384.20,371.41 386.00,371.17 386.00,369.58 ZM 379.25 481.29 C380.49,481.53 381.84,481.79 382.25,481.86 C383.27,482.05 383.19,481.23 381.96,478.93 C380.59,476.37 377.00,476.36 377.00,478.93 C377.00,480.14 377.84,481.02 379.25,481.29 ZM 386.00 352.11 C386.00,350.83 388.62,350.00 392.64,350.00 C394.85,350.00 395.88,350.39 395.46,351.07 C395.09,351.66 394.18,351.90 393.43,351.61 C392.68,351.32 391.80,351.52 391.47,352.04 C390.73,353.25 386.00,353.31 386.00,352.11 ZM 360.59 423.37 C360.93,424.27 360.77,425.00 360.22,425.00 C358.44,425.00 358.09,420.80 359.68,418.37 C360.53,417.07 361.61,416.00 362.08,416.00 C363.00,416.00 362.24,418.78 360.83,420.62 C360.35,421.24 360.25,422.48 360.59,423.37 ZM 373.36 442.49 C374.31,444.96 375.74,444.21 376.21,441.00 C376.46,439.35 376.34,438.00 375.95,438.00 C374.53,438.00 372.79,441.02 373.36,442.49 ZM 411.02 466.50 C411.27,467.70 412.86,460.32 412.94,457.55 C412.98,456.34 412.65,455.96 412.08,456.55 C411.24,457.42 410.52,464.14 411.02,466.50 ZM 374.95 419.91 C376.22,422.28 378.00,422.69 378.00,420.62 C378.00,419.03 375.22,416.45 374.39,417.27 C374.09,417.58 374.34,418.77 374.95,419.91 ZM 357.56 398.47 C359.42,399.87 359.38,399.94 356.75,399.97 C354.96,399.99 354.00,399.48 354.00,398.50 C354.00,396.61 355.09,396.60 357.56,398.47 ZM 351.98 387.75 C351.99,389.54 351.55,391.00 351.00,391.00 C349.73,391.00 349.73,387.97 351.00,386.00 C351.74,384.86 351.97,385.28 351.98,387.75 ZM 400.24 435.50 C399.98,434.12 399.37,433.00 398.88,433.00 C397.85,433.00 397.75,434.20 398.61,436.42 C399.57,438.93 400.77,438.25 400.24,435.50 ZM 412.00 491.11 C412.00,492.13 409.65,492.31 408.69,491.36 C408.34,491.01 408.28,490.35 408.56,489.90 C409.18,488.90 412.00,489.88 412.00,491.11 ZM 370.50 410.00 C370.84,410.55 372.02,411.00 373.12,411.00 C374.22,411.00 374.84,410.55 374.50,410.00 C374.16,409.45 372.98,409.00 371.88,409.00 C370.78,409.00 370.16,409.45 370.50,410.00 ZM 381.00 468.12 C381.00,469.22 381.45,469.84 382.00,469.50 C382.55,469.16 383.00,467.98 383.00,466.88 C383.00,465.78 382.55,465.16 382.00,465.50 C381.45,465.84 381.00,467.02 381.00,468.12 ZM 400.77 386.19 C400.99,385.53 400.45,385.00 399.58,385.00 C398.71,385.00 398.00,385.71 398.00,386.58 C398.00,388.35 400.15,388.04 400.77,386.19 ZM 391.55 429.91 C391.92,429.31 391.79,428.39 391.25,427.85 C390.61,427.21 390.08,427.59 389.73,428.93 C389.16,431.11 390.40,431.77 391.55,429.91 ZM 379.00 451.50 C379.00,452.33 379.45,453.00 380.00,453.00 C380.55,453.00 381.00,452.33 381.00,451.50 C381.00,450.67 380.55,450.00 380.00,450.00 C379.45,450.00 379.00,450.67 379.00,451.50 ZM 381.50 438.00 C381.16,437.45 380.21,437.00 379.38,437.00 C378.56,437.00 378.16,437.45 378.50,438.00 C378.84,438.55 379.79,439.00 380.62,439.00 C381.44,439.00 381.84,438.55 381.50,438.00 ZM 400.50 499.00 C400.16,499.55 400.58,500.00 401.44,500.00 C402.30,500.00 403.00,499.55 403.00,499.00 C403.00,498.45 402.58,498.00 402.06,498.00 C401.54,498.00 400.84,498.45 400.50,499.00 ZM 364.00 346.00 C364.00,346.55 363.55,347.00 363.00,347.00 C362.45,347.00 362.00,346.55 362.00,346.00 C362.00,345.45 362.45,345.00 363.00,345.00 C363.55,345.00 364.00,345.45 364.00,346.00 ZM 394.00 469.00 C394.00,468.45 393.55,468.00 393.00,468.00 C392.45,468.00 392.00,468.45 392.00,469.00 C392.00,469.55 392.45,470.00 393.00,470.00 C393.55,470.00 394.00,469.55 394.00,469.00 ZM 368.67 493.00 C373.51,492.33 375.23,490.75 372.41,489.76 C373.97,490.30 374.18,490.90 373.54,491.93 C373.19,492.50 371.02,492.97 368.67,493.00 ZM 348.05 376.26 C347.10,377.59 346.87,378.97 347.53,380.05 C347.94,380.71 348.58,380.53 349.34,379.55 C348.98,380.32 348.35,380.72 347.90,380.44 C346.64,379.66 346.78,377.87 348.05,376.26 ZM 455.38 428.33 C455.74,427.04 455.68,425.27 455.02,424.04 C455.01,424.01 454.99,423.99 454.98,423.96 C455.75,425.04 455.99,426.46 455.50,428.00 C455.46,428.12 455.42,428.23 455.38,428.33 ZM 437.87 353.58 C438.04,353.71 438.21,353.85 438.38,353.98 C441.91,356.75 445.05,359.69 445.37,360.51 C445.05,359.68 441.39,356.42 437.87,353.58 ZM 448.01 442.51 C447.98,442.48 447.95,442.45 447.92,442.43 C445.63,440.23 444.73,438.73 445.24,437.88 C444.83,438.70 445.74,440.17 447.96,442.46 ZM 450.32 446.61 C450.55,446.01 449.91,444.68 448.82,443.38 C450.18,444.92 450.75,446.01 450.29,446.68 C450.30,446.66 450.31,446.64 450.32,446.61 ZM 407.16 346.23 C405.53,346.40 404.28,346.86 403.56,347.58 C403.29,347.86 403.05,348.07 402.80,348.23 C403.06,348.06 403.33,347.81 403.64,347.50 C404.43,346.71 405.27,346.32 407.16,346.23 ZM 429.38 445.33 C429.04,445.27 428.73,445.23 428.44,445.20 C429.12,445.22 429.89,445.31 430.76,445.48 C431.49,445.63 432.21,445.77 432.90,445.90 C431.79,445.72 430.62,445.53 429.38,445.33 ZM 351.42 378.86 C351.45,378.91 351.47,378.96 351.50,379.00 C351.45,378.96 351.40,378.92 351.35,378.88 C351.03,378.61 350.77,378.45 350.54,378.38 C350.87,378.27 351.15,378.44 351.42,378.86 ZM 384.75 493.40 C384.50,493.62 383.99,493.39 383.02,492.78 C383.77,493.25 384.42,493.47 384.75,493.40 ZM 404.42 490.39 C405.17,490.10 405.65,489.50 405.87,488.84 C405.71,489.58 405.23,490.08 404.42,490.39 ZM 449.87 430.33 C450.63,431.25 451.86,432.00 452.62,432.00 C451.86,432.00 450.68,431.33 450.00,430.50 C449.87,430.34 449.76,430.20 449.66,430.07 C449.73,430.15 449.80,430.24 449.87,430.33 ZM 391.56 344.84 C389.96,344.97 389.00,345.92 389.00,347.64 C389.00,347.90 388.97,348.10 388.92,348.27 C388.97,348.07 389.00,347.82 389.00,347.54 C389.00,345.87 389.96,344.96 391.56,344.84 ZM 436.69 393.97 C436.88,393.99 437.07,394.00 437.25,394.00 C437.50,394.00 437.71,393.98 437.90,393.94 C437.55,394.04 437.13,394.04 436.69,393.97 ZM 369.50 413.46 C369.60,413.67 369.71,413.94 369.84,414.25 C369.73,414.06 369.62,413.79 369.50,413.46 Z" fill="rgb(30,39,61)"/>
<path d="M 440.00 510.19 C456.52,509.90 465.93,509.72 465.93,509.60 C465.93,509.42 447.22,509.36 403.38,509.23 C342.54,509.05 326.58,509.08 319.66,507.00 C328.07,507.53 447.86,507.80 628.00,507.69 L 934.50 507.50 L 939.15 504.27 C942.04,502.27 944.60,499.39 945.90,496.70 C947.98,492.42 948.00,491.52 948.00,416.42 L 948.00 340.47 L 945.62 335.98 C944.07,333.06 941.58,330.46 938.45,328.50 L 933.66 325.50 L 324.13 325.50 C325.10,325.31 326.11,325.15 327.17,325.01 C331.30,324.48 372.02,324.05 420.42,324.03 C467.53,324.01 505.92,323.82 505.92,323.60 L 505.92 323.60 C505.69,323.37 464.10,323.05 413.50,322.89 C393.63,322.82 378.04,322.77 365.78,322.75 C406.50,322.52 483.03,322.50 628.58,322.50 L 934.66 322.50 L 939.55 325.53 C942.59,327.40 945.60,330.41 947.47,333.45 L 950.50 338.34 L 950.37 494.70 L 947.60 499.43 C944.32,505.01 937.55,509.68 931.62,510.45 C925.02,511.29 554.28,511.48 394.01,511.00 C405.13,510.81 417.93,510.59 432.71,510.32 ZM 597.50 456.41 C593.84,458.32 591.55,458.53 570.24,458.80 C568.75,458.82 567.35,458.84 566.03,458.86 C552.19,459.05 547.73,459.12 546.44,457.13 C545.83,456.18 545.94,454.78 546.10,452.70 C546.13,452.28 546.16,451.84 546.19,451.37 L 546.50 446.50 L 568.46 446.23 C589.37,445.97 590.52,445.86 592.71,443.81 C595.82,440.88 595.84,435.12 592.75,432.27 C590.72,430.40 589.03,430.16 575.47,429.84 C561.71,429.53 560.02,429.28 555.47,426.95 C540.11,419.08 542.30,394.77 558.80,389.98 C561.07,389.31 570.23,389.01 582.50,389.20 L 602.50 389.50 L 602.50 401.50 L 582.54 401.77 C563.68,402.03 562.46,402.16 560.29,404.20 C556.06,408.17 558.36,416.77 563.75,417.11 C564.71,417.17 571.06,417.39 577.86,417.60 C593.20,418.07 597.40,419.16 602.12,423.88 C611.46,433.22 609.02,450.39 597.50,456.41 ZM 690.07 456.25 C685.06,458.79 683.74,459.00 673.07,458.97 C656.25,458.92 648.98,455.99 642.74,446.75 C638.77,440.88 637.00,433.86 637.01,424.07 C637.03,410.91 639.89,403.12 647.17,396.41 C654.05,390.08 659.36,388.90 679.53,389.22 L 696.50 389.50 L 696.50 401.50 L 678.00 402.00 C660.82,402.46 659.27,402.66 656.33,404.76 C649.32,409.76 647.00,427.39 652.02,437.50 C655.63,444.78 658.65,446.00 673.18,446.00 C684.60,446.00 684.90,445.94 686.93,443.37 C689.77,439.76 689.75,432.99 686.90,430.40 C685.24,428.90 682.76,428.39 675.15,428.00 L 665.50 427.50 L 665.50 417.50 L 677.08 417.50 C687.94,417.50 688.90,417.66 692.68,420.16 C701.00,425.68 703.37,437.58 698.22,448.00 C695.92,452.65 694.66,453.93 690.07,456.25 ZM 722.05 430.00 L 721.50 458.50 L 715.74 458.80 C711.69,459.01 709.83,458.71 709.47,457.79 C709.20,457.07 709.09,441.41 709.24,422.99 L 709.50 389.50 L 721.50 389.50 L 721.78 403.25 L 722.06 417.00 L 756.94 417.00 L 757.22 403.25 L 757.50 389.50 L 768.50 389.50 L 768.76 424.25 L 769.03 459.00 L 757.00 459.00 L 757.00 430.00 ZM 404.42 490.39 C405.17,490.10 405.65,489.50 405.87,488.84 C406.07,488.21 406.03,487.54 405.75,487.06 C405.53,486.19 405.10,485.16 404.46,483.92 C402.84,480.78 401.00,480.82 401.00,483.99 C401.00,485.02 400.32,486.54 399.49,487.37 C398.13,488.72 398.16,488.99 399.74,489.91 C400.22,490.19 400.61,490.41 400.96,490.57 L 400.99 490.58 C394.51,489.19 387.65,488.00 385.26,488.00 C382.50,488.00 385.09,489.80 390.23,491.46 C393.13,492.39 397.90,494.27 400.82,495.64 C403.75,497.01 408.70,498.55 411.82,499.06 C415.22,499.61 519.86,499.99 671.79,499.99 C925.79,500.00 926.08,500.00 930.08,497.96 C934.14,495.89 937.99,490.93 938.00,487.75 C938.00,486.79 938.67,486.00 939.50,486.00 C941.39,486.00 941.39,487.14 939.46,491.75 C937.39,496.70 935.26,498.93 930.50,501.12 C926.65,502.89 915.47,502.96 626.45,502.98 L 326.39 503.00 L 324.81 502.00 L 400.90 501.79 C456.68,501.63 468.39,501.43 444.00,501.04 L 410.50 500.50 L 402.82 496.66 C398.59,494.55 393.24,492.57 390.92,492.26 L 386.71 491.70 L 388.57 494.85 C389.59,496.58 390.81,498.00 391.27,498.00 C391.74,498.00 391.84,498.45 391.50,499.00 C391.48,499.03 391.46,499.05 391.44,499.08 C391.52,497.99 388.27,495.30 384.59,493.48 C384.65,493.47 384.71,493.44 384.75,493.40 C384.91,493.38 385.00,493.29 385.00,493.13 C385.00,493.09 384.98,493.04 384.94,492.99 C384.99,492.76 385.00,492.46 385.00,492.07 C385.00,491.00 384.55,489.84 384.00,489.50 C381.50,487.96 383.22,486.86 387.10,487.52 C390.95,488.17 391.16,488.08 390.53,486.10 C390.03,484.53 390.29,484.00 391.55,484.00 C392.74,484.00 393.08,484.58 392.71,486.00 C392.32,487.50 392.68,488.00 394.16,488.00 C395.73,488.00 395.99,487.55 395.45,485.85 C394.95,484.26 395.13,483.84 396.13,484.22 C397.19,484.63 397.46,483.61 397.31,479.71 C397.17,476.02 397.64,474.00 399.06,472.20 C400.13,470.84 401.00,468.96 401.00,468.02 C401.00,465.92 404.57,462.50 405.39,463.82 C405.71,464.35 405.31,465.33 404.49,466.01 C402.25,467.87 402.65,469.37 406.50,473.57 L 410.00 477.39 L 410.00 474.60 C410.00,473.07 409.09,470.66 407.99,469.26 C404.85,465.27 406.50,465.35 411.47,469.42 C413.96,471.46 416.37,472.89 416.83,472.61 C417.29,472.32 418.23,469.48 418.92,466.30 C419.62,463.11 421.26,458.63 422.58,456.35 C424.63,452.78 424.75,452.12 423.41,451.60 C422.07,451.09 422.17,450.58 424.06,447.91 C424.97,446.63 425.64,445.88 426.38,445.50 C426.67,445.39 426.99,445.31 427.34,445.26 C427.03,445.48 427.00,445.91 427.11,446.62 C427.45,448.98 426.17,453.04 424.45,455.00 C423.11,456.55 420.99,462.30 419.04,469.75 C418.37,472.30 417.34,474.00 416.46,474.00 C415.66,474.00 415.00,473.62 415.00,473.16 C415.00,472.70 413.95,471.84 412.67,471.26 L 410.33 470.19 L 411.20 475.70 C412.24,482.37 414.21,487.27 417.63,491.76 C419.05,493.62 420.03,495.30 419.83,495.51 C419.62,495.71 416.31,494.81 412.48,493.51 C410.26,492.76 406.55,491.82 402.55,490.93 C403.05,490.88 403.62,490.70 404.42,490.39 ZM 323.32 335.37 C323.52,335.25 323.72,335.14 323.92,335.04 C327.79,333.07 329.69,333.00 380.71,332.86 C409.74,332.79 442.73,332.42 454.00,332.05 C467.43,331.60 448.79,331.31 400.00,331.20 L 325.69 331.03 L 327.50 330.04 L 628.07 330.27 L 928.65 330.50 L 932.90 333.32 C938.54,337.05 943.34,347.00 939.50,347.00 C938.67,347.00 938.00,346.21 938.00,345.25 C937.99,341.67 933.97,336.88 929.22,334.77 L 924.50 332.68 L 625.32 333.28 C360.38,333.81 327.54,334.01 323.32,335.37 ZM 628.00 388.90 L 628.00 459.00 L 621.97 459.00 C618.05,459.00 615.77,458.56 615.45,457.74 C615.19,457.05 615.09,441.41 615.24,422.99 L 615.50 389.50 L 621.75 389.20 ZM 372.54 449.70 C373.12,451.78 373.43,452.05 373.73,450.75 C373.96,449.79 374.66,449.00 375.29,449.00 C375.37,449.00 375.45,448.99 375.50,448.96 C375.46,449.62 375.32,450.43 375.08,451.50 C374.60,453.70 373.93,457.15 373.58,459.16 C373.52,459.51 373.39,459.95 373.22,460.45 C374.15,457.46 373.70,455.43 372.10,453.40 C369.91,450.61 369.28,445.56 371.00,444.50 C371.55,444.16 372.00,442.53 372.00,440.88 C372.00,439.23 371.59,438.13 371.09,438.44 C369.86,439.20 367.00,438.03 367.00,436.78 C367.00,436.22 367.84,435.99 368.86,436.25 C369.88,436.52 371.57,436.26 372.61,435.67 C374.38,434.67 374.34,434.56 372.00,433.90 C367.65,432.68 366.00,432.91 365.98,434.75 C365.97,435.98 364.62,435.07 361.48,431.72 C357.45,427.42 357.00,426.46 357.00,422.10 C357.00,416.12 357.97,411.00 359.10,411.00 C359.57,411.00 359.67,412.42 359.32,414.16 C358.54,418.06 360.18,417.35 362.45,412.80 C363.67,410.35 363.75,409.46 362.80,408.88 C362.12,408.46 360.96,408.62 360.21,409.24 C359.18,410.10 358.64,410.03 357.98,408.97 C357.30,407.87 356.68,408.14 354.99,410.29 C353.81,411.78 352.02,413.00 351.00,413.00 C348.57,413.00 344.23,407.09 345.90,406.06 C347.96,404.79 348.00,395.78 345.95,393.50 C344.33,391.69 344.29,391.12 345.57,387.50 C346.34,385.30 346.98,382.06 346.98,380.29 C346.99,379.95 347.02,379.60 347.07,379.25 C347.17,379.74 347.44,380.16 347.90,380.44 C348.35,380.72 348.98,380.32 349.34,379.55 C349.37,379.51 349.41,379.46 349.44,379.41 C349.87,378.82 350.23,378.48 350.54,378.38 C350.77,378.45 351.03,378.61 351.35,378.88 C351.40,378.92 351.45,378.96 351.50,379.00 C352.01,379.75 352.54,379.86 352.97,379.47 C353.66,379.21 354.00,377.99 354.00,375.80 C354.00,374.23 354.66,371.36 355.47,369.42 C356.93,365.93 356.95,365.92 359.52,367.60 C360.94,368.53 361.91,369.79 361.69,370.40 C360.51,373.56 357.81,392.06 358.33,393.42 C358.66,394.29 359.81,395.00 360.87,395.00 C362.44,395.00 362.94,395.95 363.48,399.89 C364.04,403.96 364.46,404.69 365.97,404.30 C367.49,403.90 367.90,404.65 368.49,408.91 C368.68,410.27 368.94,411.58 369.23,412.59 C369.23,412.67 369.24,412.74 369.26,412.82 C367.46,409.34 366.00,408.32 366.00,410.60 C366.00,411.55 364.85,414.29 363.44,416.69 C360.89,421.04 360.85,423.86 363.30,426.47 C364.73,428.01 367.85,428.16 371.75,426.90 C373.58,426.30 374.63,425.53 374.87,424.65 C374.85,425.23 374.40,425.74 373.48,426.44 C371.76,427.74 371.73,427.94 373.19,427.97 C374.12,427.99 375.15,427.57 375.47,427.04 C376.19,425.88 379.00,426.81 379.00,428.21 C379.00,428.76 377.69,430.87 376.09,432.89 C372.04,438.00 371.10,443.43 373.87,445.75 C374.90,446.61 375.39,447.23 375.49,448.25 C375.34,447.98 375.09,447.66 374.74,447.31 C372.54,445.11 371.56,446.18 372.54,449.70 ZM 807.07 430.75 C807.11,415.21 807.24,399.69 807.37,396.25 L 807.60 390.00 L 802.55 390.00 L 797.50 390.00 L 797.84 396.10 C798.04,399.66 797.73,402.67 797.09,403.31 C796.35,404.05 796.03,413.10 796.08,431.45 C796.12,446.33 796.38,457.94 796.66,457.26 C797.04,456.32 797.52,456.38 798.65,457.51 C799.47,458.33 801.69,459.00 803.57,459.00 L 802.17 459.00 C798.96,459.00 796.03,458.70 795.67,458.33 C795.30,457.97 795.00,445.16 795.00,429.87 L 795.00 402.07 L 785.25 401.79 L 775.50 401.50 L 775.50 389.50 L 828.00 388.97 L 828.00 402.00 L 808.00 402.00 L 808.00 459.00 L 807.00 459.00 ZM 370.80 345.93 C367.82,345.21 366.70,345.06 366.01,345.54 C365.62,345.82 365.38,346.29 365.01,346.98 C363.39,350.00 365.97,352.88 369.78,352.30 L 372.50 351.88 L 369.26 354.75 C367.48,356.33 365.75,358.98 365.42,360.63 C364.89,363.30 361.46,366.79 360.40,365.73 C360.18,365.51 360.86,362.81 361.92,359.74 C363.53,355.04 363.61,354.07 362.42,353.61 C361.64,353.31 360.97,352.26 360.92,351.28 C360.88,350.30 360.28,351.30 359.59,353.50 C358.90,355.70 358.64,357.95 359.01,358.50 C359.97,359.92 358.69,364.27 357.16,364.78 C356.19,365.10 356.04,364.32 356.55,361.61 C357.40,357.03 355.44,356.69 354.46,361.25 C354.08,363.04 353.43,364.95 353.01,365.50 C352.60,366.05 351.98,368.09 351.63,370.03 C351.55,370.46 351.43,370.91 351.28,371.36 C351.45,370.33 351.33,369.20 350.94,367.82 C350.42,365.99 350.58,364.99 351.46,364.65 C352.17,364.38 353.06,362.91 353.44,361.38 C353.82,359.85 355.23,357.59 356.57,356.35 C357.91,355.11 359.00,353.15 359.00,352.00 C359.00,350.84 359.69,348.57 360.53,346.95 C362.26,343.61 365.75,343.07 370.00,345.50 C370.27,345.66 370.54,345.80 370.80,345.93 ZM 391.56 344.84 L 391.56 344.84 C389.96,344.96 389.00,345.87 389.00,347.54 C389.00,347.82 388.97,348.07 388.92,348.27 C388.73,348.82 388.21,348.88 387.25,348.48 C387.08,348.41 386.91,348.34 386.73,348.29 C386.07,347.81 385.29,347.06 384.39,346.06 L 381.77 343.11 L 378.96 345.19 C377.63,346.17 376.31,346.72 375.11,346.79 C376.66,346.54 378.17,345.59 379.93,343.92 C381.83,342.10 383.76,341.08 384.66,341.42 C385.48,341.74 387.48,342.00 389.08,342.00 C390.69,342.00 392.88,342.88 393.95,343.95 C394.79,344.79 396.36,345.95 397.81,346.83 C397.68,346.76 397.54,346.68 397.39,346.60 C395.06,345.29 393.04,344.72 391.56,344.84 ZM 351.95 410.56 C352.78,409.55 352.84,408.57 352.13,407.24 C351.57,406.20 350.80,402.97 350.41,400.06 C349.44,392.69 348.09,395.78 348.47,404.51 C348.64,408.35 348.83,411.61 348.89,411.75 C349.21,412.48 350.90,411.82 351.95,410.56 ZM 364.37 430.56 C369.16,432.64 375.35,432.38 377.51,429.99 C380.00,427.23 378.99,426.69 374.69,428.49 C370.13,430.39 367.27,430.39 363.64,428.49 C360.22,426.71 359.66,426.64 360.56,428.10 C360.93,428.70 362.65,429.81 364.37,430.56 ZM 368.67 493.00 C368.60,493.00 368.52,493.00 368.45,493.00 C365.45,493.00 364.50,493.02 364.75,493.68 C361.91,494.38 358.48,495.54 355.97,496.71 C354.63,497.34 353.51,497.84 352.46,498.24 L 355.16 495.80 C359.42,491.97 359.62,491.91 366.42,492.19 C369.54,492.32 371.62,492.24 372.74,491.93 C371.88,492.37 370.50,492.75 368.67,493.00 ZM 397.97 457.42 C395.95,452.11 397.53,450.07 400.44,454.22 C402.41,457.03 402.42,458.63 400.47,459.37 C399.44,459.77 398.61,459.12 397.97,457.42 ZM 379.25 481.29 C377.84,481.02 377.00,480.14 377.00,478.93 C377.00,476.36 380.59,476.37 381.96,478.93 C383.19,481.23 383.27,482.05 382.25,481.86 C381.84,481.79 380.49,481.53 379.25,481.29 ZM 360.59 423.37 C360.25,422.48 360.35,421.24 360.83,420.62 C362.24,418.78 363.00,416.00 362.08,416.00 C361.61,416.00 360.53,417.07 359.68,418.37 C358.09,420.80 358.44,425.00 360.22,425.00 C360.77,425.00 360.93,424.27 360.59,423.37 ZM 940.81 477.83 C941.04,480.17 940.72,481.00 939.56,481.00 C938.44,481.00 938.00,480.00 938.00,477.42 C938.00,472.90 940.36,473.24 940.81,477.83 ZM 366.33 472.80 C364.38,476.02 364.05,477.49 364.45,479.45 C364.87,481.49 365.17,483.06 365.43,484.28 C365.07,483.67 364.56,483.12 364.00,482.77 C362.90,482.08 362.00,481.03 362.00,480.44 C362.00,479.92 363.86,476.65 366.33,472.80 ZM 411.02 466.50 C410.52,464.14 411.24,457.42 412.08,456.55 C412.65,455.96 412.98,456.34 412.94,457.55 C412.86,460.32 411.27,467.70 411.02,466.50 ZM 398.00 480.40 C398.01,481.00 398.91,480.03 400.00,478.23 C402.17,474.68 402.52,473.00 401.10,473.00 C400.20,473.00 398.00,478.28 398.00,480.40 ZM 370.71 419.04 C370.51,419.76 370.19,420.41 369.77,420.83 C368.84,421.76 369.01,421.98 370.64,421.81 C370.09,422.05 369.45,422.41 368.66,422.90 C364.87,425.25 364.00,425.45 364.00,424.01 C364.00,423.47 365.58,422.37 367.50,421.56 C369.22,420.84 370.28,420.08 370.71,419.04 ZM 357.60 405.41 C358.39,407.45 360.00,406.46 360.00,403.94 C360.00,402.87 359.33,402.00 358.50,402.00 C356.89,402.00 356.65,402.92 357.60,405.41 ZM 395.50 417.90 C396.00,417.90 396.99,420.39 397.50,422.33 C397.45,422.18 397.35,422.11 397.21,422.13 C396.33,422.26 395.62,422.22 395.07,421.99 C393.83,420.13 393.94,417.89 395.50,417.90 ZM 357.56 398.47 C355.09,396.60 354.00,396.61 354.00,398.50 C354.00,399.48 354.96,399.99 356.75,399.97 C359.38,399.94 359.42,399.87 357.56,398.47 ZM 436.69 393.97 C435.73,393.82 434.70,393.28 434.19,392.37 C434.13,392.27 434.08,392.18 434.03,392.10 C434.13,391.63 434.88,391.40 436.19,391.50 C437.55,391.60 438.47,392.22 438.73,392.81 C438.83,393.42 438.46,393.79 437.90,393.94 C437.71,393.98 437.50,394.00 437.25,394.00 C437.07,394.00 436.88,393.99 436.69,393.97 ZM 374.49 443.94 C374.83,443.90 375.00,443.18 375.00,441.80 C375.00,440.18 374.70,439.90 373.89,440.71 C373.51,441.09 373.29,441.61 373.26,442.10 C373.08,440.54 374.65,438.00 375.95,438.00 C376.34,438.00 376.46,439.35 376.21,441.00 C375.91,443.07 375.21,444.12 374.49,443.94 ZM 351.98 387.75 C351.97,385.28 351.74,384.86 351.00,386.00 C349.73,387.97 349.73,391.00 351.00,391.00 C351.55,391.00 351.99,389.54 351.98,387.75 ZM 412.00 491.11 C412.00,489.88 409.18,488.90 408.56,489.90 C408.28,490.35 408.34,491.01 408.69,491.36 C409.65,492.31 412.00,492.13 412.00,491.11 ZM 370.50 410.00 C370.16,409.45 370.78,409.00 371.88,409.00 C372.98,409.00 374.16,409.45 374.50,410.00 C374.84,410.55 374.22,411.00 373.12,411.00 C372.02,411.00 370.84,410.55 370.50,410.00 ZM 381.00 468.12 C381.00,467.02 381.45,465.84 382.00,465.50 C382.55,465.16 383.00,465.78 383.00,466.88 C383.00,467.98 382.55,469.16 382.00,469.50 C381.45,469.84 381.00,469.22 381.00,468.12 ZM 315.00 353.50 C315.00,355.05 313.82,355.49 312.69,354.36 C311.89,353.56 312.80,352.00 314.06,352.00 C314.58,352.00 315.00,352.67 315.00,353.50 ZM 407.08 483.05 C409.20,484.36 410.30,482.94 408.31,481.47 C407.14,480.61 406.37,480.51 406.13,481.19 C405.92,481.76 406.35,482.60 407.08,483.05 ZM 418.00 483.94 C418.00,485.07 417.55,486.00 417.00,486.00 C416.45,486.00 416.00,485.35 416.00,484.56 C416.00,483.77 416.45,482.84 417.00,482.50 C417.55,482.16 418.00,482.81 418.00,483.94 ZM 379.00 451.50 C379.00,450.67 379.45,450.00 380.00,450.00 C380.55,450.00 381.00,450.67 381.00,451.50 C381.00,452.33 380.55,453.00 380.00,453.00 C379.45,453.00 379.00,452.33 379.00,451.50 ZM 940.00 465.50 C940.00,466.33 939.55,467.00 939.00,467.00 C938.45,467.00 938.00,466.33 938.00,465.50 C938.00,464.67 938.45,464.00 939.00,464.00 C939.55,464.00 940.00,464.67 940.00,465.50 ZM 400.50 499.00 C400.84,498.45 401.54,498.00 402.06,498.00 C402.58,498.00 403.00,498.45 403.00,499.00 C403.00,499.55 402.30,500.00 401.44,500.00 C400.58,500.00 400.16,499.55 400.50,499.00 ZM 364.00 346.00 C364.00,345.45 363.55,345.00 363.00,345.00 C362.45,345.00 362.00,345.45 362.00,346.00 C362.00,346.55 362.45,347.00 363.00,347.00 C363.55,347.00 364.00,346.55 364.00,346.00 ZM 315.00 362.00 C315.00,362.55 314.55,363.00 314.00,363.00 C313.45,363.00 313.00,362.55 313.00,362.00 C313.00,361.45 313.45,361.00 314.00,361.00 C314.55,361.00 315.00,361.45 315.00,362.00 ZM 309.61 503.55 C312.78,506.83 316.90,509.28 321.51,510.46 C319.09,510.01 317.61,509.41 316.22,508.65 C315.45,508.22 314.70,507.74 313.84,507.21 C312.41,506.33 310.96,505.05 309.61,503.55 C306.98,500.83 305.01,497.53 303.98,493.92 C304.90,497.12 307.07,500.73 309.61,503.55 ZM 397.67 424.58 C397.63,424.60 397.43,424.45 397.13,424.18 C397.17,424.04 397.22,423.87 397.29,423.68 C397.50,423.14 397.57,422.69 397.52,422.41 C397.80,423.53 397.92,424.45 397.67,424.58 ZM 383.06 492.80 C381.27,492.13 380.11,492.19 379.66,492.91 C380.06,491.88 381.27,491.69 383.02,492.78 ZM 342.40 499.85 C341.34,499.88 340.16,499.91 338.84,499.93 C329.72,500.10 327.57,499.82 324.05,498.02 C327.53,499.79 329.71,500.06 339.45,499.89 ZM 319.53 498.50 C317.62,496.99 316.31,495.37 315.27,493.28 C316.34,495.17 317.83,497.07 319.53,498.50 ZM 317.75 506.28 C316.19,505.55 315.07,504.63 313.53,503.46 C312.37,502.57 310.99,501.06 309.83,499.47 C311.89,502.22 314.81,504.76 317.75,506.28 ZM 313.99 329.50 C312.17,330.95 310.32,332.81 309.26,334.34 C310.60,332.41 312.15,330.81 313.99,329.50 ZM 366.01 486.50 C366.35,487.49 366.73,488.03 367.35,488.39 C366.31,487.95 366.06,487.44 366.01,486.50 ZM 371.32 489.45 C371.64,489.52 371.92,489.60 372.17,489.68 C372.26,489.70 372.34,489.73 372.41,489.76 C373.43,490.11 373.85,490.54 373.76,490.98 C373.65,490.38 372.67,489.75 371.32,489.45 ZM 316.00 345.25 C316.01,343.90 316.71,342.22 317.82,340.58 C316.73,342.25 316.01,343.97 316.00,345.25 ZM 350.02 374.03 C349.88,374.25 349.74,374.45 349.59,374.63 C349.23,374.93 348.90,375.24 348.61,375.56 C348.69,375.46 348.78,375.37 348.86,375.29 C349.31,374.86 349.70,374.44 350.02,374.03 ZM 370.84 416.87 C370.89,417.00 370.93,417.11 370.97,417.20 C370.97,417.40 370.96,417.59 370.94,417.79 C370.94,417.50 370.91,417.20 370.84,416.87 ZM 315.63 339.00 C314.67,340.57 313.93,342.34 313.46,344.25 C313.94,342.29 314.66,340.55 315.63,339.00 ZM 313.56 487.11 C313.72,486.37 314.22,486.00 315.06,486.00 C314.23,486.00 313.75,486.42 313.56,487.11 ZM 369.86 467.27 C369.53,467.84 369.18,468.40 368.83,468.94 C369.19,468.36 369.54,467.81 369.86,467.27 ZM 405.34 346.49 C404.63,346.69 404.14,347.01 403.68,347.46 C404.13,347.01 404.62,346.69 405.34,346.49 ZM 403.17 347.95 C403.32,347.82 403.47,347.67 403.64,347.50 C403.47,347.67 403.32,347.82 403.17,347.95 ZM 386.97 499.99 C386.80,500.00 386.64,500.00 386.47,500.00 C386.64,500.00 386.80,500.00 386.97,499.99 Z" fill="rgb(75,153,197)"/>
<path d="M 0.00 418.00 L 0.00 0.00 L 627.00 0.00 L 1254.00 0.00 L 1254.00 418.00 L 1254.00 836.00 L 627.00 836.00 L 0.00 836.00 L 0.00 418.00 ZM 726.50 568.00 C726.88,565.25 727.30,563.00 727.44,563.00 C727.58,563.00 729.16,563.73 730.95,564.63 C739.69,568.99 749.88,558.36 745.98,548.95 C744.23,544.74 742.39,544.04 733.16,544.10 C726.50,544.15 725.00,544.45 724.61,545.83 C724.34,546.75 723.17,552.45 722.00,558.50 C720.83,564.55 719.65,570.29 719.37,571.25 C718.96,572.68 719.51,573.00 722.34,573.00 C725.75,573.00 725.82,572.91 726.50,568.00 ZM 379.44 562.50 C380.89,559.02 380.93,559.00 387.26,559.00 C393.55,559.00 393.65,559.04 395.30,562.50 C396.66,565.36 397.52,566.00 399.98,566.00 C401.64,566.00 403.00,565.66 403.00,565.25 C403.00,564.84 400.19,558.29 396.76,550.70 L 390.51 536.91 L 387.21 537.20 C384.00,537.49 383.74,537.88 377.95,550.76 C374.68,558.05 372.00,564.46 372.00,565.01 C372.00,565.55 373.34,566.00 374.99,566.00 C377.45,566.00 378.23,565.39 379.44,562.50 ZM 416.00 558.70 C416.00,550.95 416.92,549.00 420.58,549.00 C423.92,549.00 424.87,550.97 425.20,558.54 C425.49,565.30 425.58,565.51 428.25,565.82 L 431.00 566.13 L 431.00 559.14 C431.00,551.76 432.35,549.00 435.95,549.00 C438.90,549.00 439.88,551.20 440.20,558.54 C440.49,565.30 440.58,565.51 443.25,565.82 L 446.00 566.13 L 446.00 557.29 C446.00,545.27 444.87,543.62 437.13,544.39 C430.69,545.04 431.46,545.03 419.25,544.49 L 410.00 544.08 L 410.00 554.37 C410.00,560.04 410.30,564.97 410.67,565.33 C411.03,565.70 412.38,566.00 413.67,566.00 C415.90,566.00 416.00,565.68 416.00,558.70 ZM 473.57 564.54 C479.23,562.17 481.51,554.83 478.43,548.87 C476.77,545.66 471.03,542.59 468.18,543.38 C467.25,543.63 465.49,544.13 464.25,544.49 C462.15,545.09 462.00,544.83 462.00,540.57 C462.00,536.16 461.90,536.00 459.00,536.00 L 456.00 536.00 L 456.00 550.63 L 456.00 565.26 L 459.75 564.77 C461.81,564.50 464.40,564.63 465.50,565.07 C468.45,566.24 469.69,566.15 473.57,564.54 ZM 517.77 564.56 C518.64,563.69 516.77,559.91 515.67,560.31 C512.78,561.35 511.00,558.96 511.00,554.03 C511.00,549.43 511.17,549.11 513.75,548.82 C515.69,548.59 516.59,547.86 516.81,546.32 C517.06,544.59 516.55,544.08 514.31,543.82 C512.28,543.59 511.41,542.87 511.18,541.25 C510.93,539.50 510.21,539.00 507.93,539.00 C505.47,539.00 505.00,539.40 505.00,541.50 C505.00,543.06 504.43,544.00 503.50,544.00 C502.57,544.00 502.00,544.94 502.00,546.50 C502.00,548.06 502.57,549.00 503.50,549.00 C504.66,549.00 505.00,550.31 505.00,554.81 C505.00,560.74 505.95,562.87 509.50,564.89 C511.27,565.89 516.65,565.68 517.77,564.56 ZM 557.40 564.61 C561.91,562.72 564.00,559.43 564.00,554.20 C564.00,550.72 563.41,549.26 561.08,546.92 C558.55,544.39 557.41,544.00 552.59,544.00 C547.93,544.00 546.54,544.45 543.98,546.75 C538.08,552.07 539.78,561.26 547.27,564.52 C551.40,566.31 553.28,566.33 557.40,564.61 ZM 578.80 558.54 C579.15,550.47 580.16,548.78 584.41,549.20 L 587.50 549.50 L 588.00 557.50 L 588.50 565.50 L 591.50 565.50 L 594.50 565.50 L 594.50 556.85 C594.50,544.77 593.77,544.06 581.38,544.14 L 572.00 544.19 L 572.00 554.43 C572.00,560.06 572.32,564.99 572.71,565.38 C573.10,565.77 574.57,565.96 575.96,565.80 C578.37,565.51 578.51,565.15 578.80,558.54 ZM 616.87 564.89 C621.91,563.14 623.68,557.82 620.25,554.74 C619.29,553.88 616.90,552.87 614.94,552.51 C612.97,552.14 610.72,551.43 609.94,550.92 C607.48,549.34 610.95,547.87 615.63,548.51 C618.87,548.96 619.89,548.74 620.38,547.45 C621.44,544.68 620.12,544.00 613.66,544.00 C606.18,544.00 603.00,545.79 603.00,549.99 C603.00,553.70 605.15,555.77 609.78,556.54 C615.03,557.41 616.00,557.79 616.00,559.00 C616.00,560.84 612.84,561.37 608.61,560.24 C605.55,559.42 604.34,559.45 603.78,560.33 C602.32,562.62 603.04,563.96 606.25,564.88 C610.74,566.18 613.18,566.18 616.87,564.89 ZM 665.82 562.75 L 666.13 560.00 L 658.46 560.00 C651.87,560.00 650.87,559.78 651.39,558.42 C651.73,557.55 652.00,556.22 652.00,555.46 C652.00,554.47 653.84,554.01 658.75,553.80 C664.88,553.53 665.53,553.29 665.82,551.25 C666.12,549.13 665.79,549.00 660.07,549.00 C654.01,549.00 654.00,548.99 654.00,546.04 L 654.00 543.08 L 661.68 542.79 C669.12,542.51 669.39,542.41 670.09,539.75 L 670.83 537.00 L 660.02 537.00 C649.64,537.00 649.20,537.09 648.69,539.25 C646.35,549.17 643.95,563.42 644.40,564.61 C644.86,565.79 646.97,566.01 655.23,565.79 L 665.50 565.50 L 665.82 562.75 ZM 681.98 558.87 C683.78,551.02 685.38,548.79 688.91,549.20 C691.71,549.52 691.73,549.61 690.89,560.50 C690.52,565.27 690.62,565.50 693.00,565.50 C695.26,565.50 695.66,564.85 697.14,558.74 C699.08,550.71 700.44,548.80 703.91,549.20 C706.71,549.52 706.87,550.49 705.91,561.00 C705.52,565.25 705.65,565.52 708.15,565.81 C710.98,566.13 711.15,565.72 713.53,552.75 C714.60,546.94 712.21,544.00 706.41,544.00 C703.91,544.00 700.97,544.48 699.87,545.07 C698.49,545.81 697.49,545.82 696.62,545.10 C695.94,544.53 691.55,544.08 686.88,544.10 L 678.38 544.13 L 676.36 554.56 C675.24,560.30 674.57,565.24 674.88,565.54 C675.18,565.84 676.56,565.96 677.95,565.80 C680.18,565.53 680.64,564.73 681.98,558.87 ZM 769.51 564.56 C776.56,561.61 779.42,551.33 774.55,546.45 C772.50,544.41 771.12,544.00 766.27,544.00 C759.76,544.00 756.83,545.50 754.49,550.01 C751.55,555.71 752.92,560.76 758.31,564.05 C762.12,566.37 764.88,566.49 769.51,564.56 ZM 840.85 564.90 C844.03,563.80 844.64,562.56 843.17,560.24 C842.56,559.28 841.63,559.23 839.35,560.03 C835.76,561.28 831.00,559.85 831.00,557.52 C831.00,556.29 832.49,556.00 838.89,556.00 C847.36,556.00 848.39,555.37 847.29,550.85 C846.17,546.24 843.06,544.00 837.78,544.00 C831.37,544.00 827.21,546.25 825.34,550.73 C821.24,560.55 830.10,568.65 840.85,564.90 ZM 860.98 558.66 C862.51,551.79 864.56,549.00 868.08,549.00 C869.63,549.00 871.00,547.12 871.00,545.01 C871.00,544.55 867.93,544.18 864.19,544.18 L 857.37 544.18 L 855.35 554.59 C854.24,560.31 853.57,565.24 853.88,565.54 C854.18,565.84 855.56,565.96 856.95,565.80 C859.19,565.53 859.63,564.75 860.98,558.66 ZM 891.58 564.53 C894.73,563.21 894.98,562.84 893.97,560.95 C893.21,559.52 892.31,559.07 891.17,559.54 C887.30,561.14 885.87,561.15 883.50,559.59 C879.25,556.81 880.59,556.00 889.50,556.00 L 898.00 556.00 L 898.00 552.45 C898.00,546.83 894.47,544.00 887.45,544.00 C882.36,544.00 881.46,544.34 878.40,547.40 C875.56,550.24 875.00,551.53 875.00,555.21 C875.00,560.17 876.15,562.08 880.50,564.35 C884.30,566.34 887.15,566.38 891.58,564.53 ZM 921.67 564.95 L 925.84 565.07 L 926.92 559.78 C927.51,556.88 928.84,550.34 929.87,545.25 L 931.74 536.00 L 928.43 536.00 C925.28,536.00 925.09,536.21 924.45,540.49 C923.81,544.76 923.65,544.95 921.14,544.25 C913.98,542.28 907.81,544.81 905.34,550.74 C902.09,558.50 907.67,566.94 915.00,565.38 C916.38,565.08 919.38,564.89 921.67,564.95 ZM 941.07 564.96 C944.91,562.91 942.28,557.14 938.10,558.47 C935.21,559.38 934.31,563.03 936.57,564.67 C938.75,566.27 938.65,566.26 941.07,564.96 ZM 311.85 562.00 C312.87,559.09 313.08,559.00 319.33,559.00 C325.53,559.00 325.80,559.11 327.00,562.00 C328.04,564.52 328.80,565.00 331.70,565.00 C333.61,565.00 335.02,564.61 334.83,564.12 C334.65,563.64 331.84,557.34 328.59,550.12 C322.79,537.25 322.62,537.00 319.47,537.00 C316.32,537.00 316.15,537.25 310.13,550.45 C306.76,557.85 304.00,564.15 304.00,564.45 C304.00,564.75 305.53,565.00 307.40,565.00 C310.28,565.00 310.96,564.54 311.85,562.00 ZM 349.00 551.00 L 349.00 537.00 L 345.50 537.00 L 342.00 537.00 L 342.00 551.00 L 342.00 565.00 L 345.50 565.00 L 349.00 565.00 L 349.00 551.00 ZM 494.00 554.50 L 494.00 544.00 L 491.00 544.00 L 488.00 544.00 L 488.00 554.50 L 488.00 565.00 L 491.00 565.00 L 494.00 565.00 L 494.00 554.50 ZM 532.00 554.50 L 532.00 544.00 L 529.00 544.00 L 526.00 544.00 L 526.00 554.50 L 526.00 565.00 L 529.00 565.00 L 532.00 565.00 L 532.00 554.50 ZM 797.21 559.01 C799.02,555.72 800.76,553.02 801.09,553.01 C801.41,553.01 802.09,555.59 802.59,558.75 C803.50,564.47 803.52,564.50 806.97,564.50 C810.33,564.50 810.61,564.18 816.14,554.25 L 821.85 544.00 L 818.68 544.01 C815.79,544.02 815.18,544.61 812.05,550.52 C808.26,557.65 807.63,557.51 806.52,549.25 C805.84,544.17 805.71,544.00 802.66,544.01 C799.80,544.02 799.18,544.62 796.05,550.52 C792.26,557.65 791.63,557.51 790.52,549.25 C789.84,544.23 789.68,544.00 786.79,544.00 C784.02,544.00 783.81,544.23 784.33,546.75 C784.64,548.26 785.45,552.99 786.12,557.25 L 787.35 565.00 L 790.63 565.00 C793.62,565.00 794.22,564.45 797.21,559.01 ZM 944.03 551.75 C944.64,549.41 945.58,545.78 946.12,543.69 C946.67,541.59 947.36,539.23 947.66,538.44 C948.08,537.34 947.29,537.00 944.26,537.00 L 940.30 537.00 L 939.15 545.25 C937.63,556.12 937.62,556.00 940.46,556.00 C942.52,556.00 943.11,555.30 944.03,551.75 ZM 493.96 539.55 C496.19,536.86 494.80,534.50 491.00,534.50 C488.36,534.50 487.44,534.96 487.15,536.43 C486.78,538.37 489.33,541.00 491.57,541.00 C492.22,541.00 493.30,540.35 493.96,539.55 ZM 531.42 539.68 C532.41,538.96 533.05,537.50 532.85,536.43 C532.56,534.96 531.64,534.50 529.00,534.50 C526.36,534.50 525.44,534.96 525.15,536.43 C524.83,538.13 527.25,541.00 529.00,541.00 C529.34,541.00 530.43,540.41 531.42,539.68 ZM 931.62 510.45 C937.55,509.68 944.32,505.01 947.60,499.43 L 950.37 494.70 L 950.43 416.52 L 950.50 338.34 L 947.47 333.45 C945.60,330.41 942.59,327.40 939.55,325.53 L 934.66 322.50 L 628.58 322.50 C336.07,322.50 322.29,322.58 317.83,324.30 C312.12,326.50 305.55,333.36 304.08,338.65 C302.68,343.70 302.58,489.05 303.98,493.92 C306.26,501.89 313.08,508.31 321.51,510.46 C325.76,511.53 923.23,511.52 931.62,510.45 ZM 731.94 559.66 C728.93,558.16 728.32,554.69 730.48,551.39 C731.82,549.34 732.79,548.94 735.81,549.19 C739.18,549.47 739.53,549.78 739.82,552.82 C740.33,558.15 736.17,561.76 731.94,559.66 ZM 383.75 554.41 C383.07,553.74 386.12,545.00 387.03,545.00 C387.86,545.00 391.00,551.74 391.00,553.53 C391.00,554.53 389.93,555.00 387.67,555.00 C385.83,555.00 384.07,554.74 383.75,554.41 ZM 466.24 559.93 C465.00,559.45 463.47,557.94 462.85,556.57 C461.25,553.05 463.95,549.00 467.90,549.00 C471.56,549.00 473.22,551.04 472.82,555.07 C472.43,559.00 469.47,561.18 466.24,559.93 ZM 551.00 560.23 C548.69,559.52 547.00,556.89 547.00,554.01 C547.00,550.51 548.72,549.00 552.72,549.00 C556.53,549.00 558.68,552.16 557.65,556.25 C557.00,558.85 553.43,560.98 551.00,560.23 ZM 762.34 559.93 C759.56,558.90 758.56,555.70 760.09,552.79 C761.67,549.79 762.91,549.03 766.27,549.02 C770.05,548.99 771.78,552.63 769.86,556.54 C768.27,559.77 765.39,561.07 762.34,559.93 ZM 831.54 552.07 C830.83,550.91 834.84,548.00 837.15,548.00 C839.25,548.00 842.23,550.82 841.45,552.08 C840.71,553.28 832.29,553.27 831.54,552.07 ZM 882.19 551.27 C882.98,547.17 891.01,547.25 891.82,551.36 C892.09,552.71 891.24,553.00 887.00,553.00 C882.66,553.00 881.91,552.73 882.19,551.27 ZM 912.20 558.80 C908.92,555.52 912.21,549.00 917.13,549.00 C921.84,549.00 923.51,553.41 920.44,557.78 C918.73,560.23 914.19,560.79 912.20,558.80 ZM 317.25 548.84 L 319.40 543.68 L 321.13 547.59 C323.70,553.41 323.51,554.00 319.06,554.00 L 315.11 554.00 L 317.25 548.84 ZM 319.20 506.95 C314.78,505.18 310.08,500.80 308.03,496.57 C305.99,492.34 305.97,491.38 306.23,415.31 L 306.50 338.33 L 309.26 334.34 C310.78,332.15 313.93,329.26 316.26,327.93 L 320.50 325.50 L 627.08 325.50 L 933.66 325.50 L 938.45 328.50 C941.58,330.46 944.07,333.06 945.62,335.98 L 948.00 340.47 L 948.00 416.42 C948.00,491.52 947.98,492.42 945.90,496.70 C944.60,499.39 942.04,502.27 939.15,504.27 L 934.50 507.50 L 628.00 507.69 C442.20,507.80 320.60,507.51 319.20,506.95 ZM 930.50 501.12 C935.26,498.93 937.39,496.70 939.46,491.75 C941.39,487.14 941.39,486.00 939.50,486.00 C938.67,486.00 938.00,486.79 938.00,487.75 C937.99,490.93 934.14,495.89 930.08,497.96 C926.08,500.00 925.79,500.00 671.79,499.99 C519.86,499.99 415.22,499.61 411.82,499.06 C408.70,498.55 403.75,497.01 400.82,495.64 C397.90,494.27 393.13,492.39 390.23,491.46 C385.09,489.80 382.50,488.00 385.26,488.00 C389.34,488.00 406.43,491.46 412.48,493.51 C416.31,494.81 419.62,495.71 419.83,495.51 C420.03,495.30 419.05,493.62 417.63,491.76 C414.21,487.27 412.24,482.37 411.20,475.70 L 410.33 470.19 L 412.67 471.26 C413.95,471.84 415.00,472.70 415.00,473.16 C415.00,473.62 415.66,474.00 416.46,474.00 C417.34,474.00 418.37,472.30 419.04,469.75 C420.99,462.30 423.11,456.55 424.45,455.00 C426.17,453.04 427.45,448.98 427.11,446.62 C426.87,445.01 427.29,444.84 430.17,445.37 C449.18,448.94 453.55,448.23 447.96,442.46 C444.10,438.48 444.20,437.00 448.30,437.00 C451.73,437.00 454.00,435.53 454.00,433.30 C454.00,432.58 453.38,432.00 452.62,432.00 C451.86,432.00 450.63,431.25 449.87,430.33 C448.63,428.82 448.80,428.72 451.69,429.30 C454.29,429.81 455.00,429.57 455.50,428.00 C456.53,424.75 454.32,422.00 450.68,422.00 C445.83,422.00 438.72,418.04 437.91,414.89 C437.55,413.45 435.39,409.48 433.12,406.07 C430.86,402.65 429.00,399.44 429.00,398.93 C429.00,398.42 431.48,398.00 434.50,398.00 C437.52,398.00 440.00,397.55 440.00,397.00 C440.00,396.45 440.63,396.00 441.39,396.00 C443.00,396.00 444.12,400.94 444.34,409.09 C444.55,416.31 446.16,418.38 450.94,417.50 C454.52,416.84 460.00,412.60 460.00,410.49 C460.00,409.86 458.93,408.35 457.63,407.12 C453.16,402.93 448.20,394.55 447.49,390.00 C446.59,384.27 444.96,382.48 438.79,380.43 C434.40,378.97 433.91,378.53 434.59,376.64 C436.11,372.34 435.25,364.89 432.94,362.43 C428.06,357.25 434.70,354.95 441.40,359.50 C445.69,362.41 446.14,362.52 445.37,360.51 C445.05,359.69 441.91,356.75 438.38,353.98 C431.39,348.49 428.87,347.72 413.90,346.53 C406.69,345.96 405.04,346.11 403.68,347.46 C402.19,348.95 401.81,348.95 398.98,347.49 C397.28,346.61 395.02,345.02 393.95,343.95 C392.88,342.88 390.69,342.00 389.08,342.00 C387.48,342.00 385.48,341.74 384.66,341.42 C383.76,341.08 381.83,342.10 379.93,343.92 C376.40,347.29 373.84,347.69 370.00,345.50 C365.75,343.07 362.26,343.61 360.53,346.95 C359.69,348.57 359.00,350.84 359.00,352.00 C359.00,353.15 357.91,355.11 356.57,356.35 C355.23,357.59 353.82,359.85 353.44,361.38 C353.06,362.91 352.17,364.38 351.46,364.65 C350.58,364.99 350.42,365.99 350.94,367.82 C351.85,371.06 351.33,372.92 348.86,375.29 C347.81,376.30 346.99,378.48 346.98,380.29 C346.98,382.06 346.34,385.30 345.57,387.50 C344.29,391.12 344.33,391.69 345.95,393.50 C348.00,395.78 347.96,404.79 345.90,406.06 C344.23,407.09 348.57,413.00 351.00,413.00 C352.02,413.00 353.81,411.78 354.99,410.29 C356.68,408.14 357.30,407.87 357.98,408.97 C358.64,410.03 359.18,410.10 360.21,409.24 C360.96,408.62 362.12,408.46 362.80,408.88 C363.75,409.46 363.67,410.35 362.45,412.80 C360.18,417.35 358.54,418.06 359.32,414.16 C359.67,412.42 359.57,411.00 359.10,411.00 C357.97,411.00 357.00,416.12 357.00,422.10 C357.00,426.46 357.45,427.42 361.48,431.72 C364.62,435.07 365.97,435.98 365.98,434.75 C366.00,432.91 367.65,432.68 372.00,433.90 C374.34,434.56 374.38,434.67 372.61,435.67 C371.57,436.26 369.88,436.52 368.86,436.25 C367.84,435.99 367.00,436.22 367.00,436.78 C367.00,438.03 369.86,439.20 371.09,438.44 C371.59,438.13 372.00,439.23 372.00,440.88 C372.00,442.53 371.55,444.16 371.00,444.50 C369.28,445.56 369.91,450.61 372.10,453.40 C375.08,457.19 374.08,460.99 367.48,471.02 C364.47,475.61 362.00,479.85 362.00,480.44 C362.00,481.03 362.90,482.08 364.00,482.77 C365.10,483.45 366.00,484.93 366.00,486.04 C366.00,488.11 366.42,488.37 371.32,489.45 C372.89,489.80 373.96,490.61 373.74,491.28 C373.47,492.10 371.15,492.39 366.42,492.19 C359.62,491.91 359.42,491.97 355.16,495.80 L 350.82 499.71 L 339.45 499.89 C329.67,500.06 327.51,499.79 324.00,498.00 C319.87,495.89 316.01,490.95 316.00,487.75 C316.00,486.79 315.58,486.00 315.06,486.00 C313.04,486.00 312.98,488.17 314.88,492.47 C316.31,495.68 318.22,497.82 321.63,499.98 L 326.39 503.00 L 626.45 502.98 C915.47,502.96 926.65,502.89 930.50,501.12 ZM 418.00 483.94 C418.00,482.81 417.55,482.16 417.00,482.50 C416.45,482.84 416.00,483.77 416.00,484.56 C416.00,485.35 416.45,486.00 417.00,486.00 C417.55,486.00 418.00,485.07 418.00,483.94 ZM 940.81 477.83 C940.36,473.24 938.00,472.90 938.00,477.42 C938.00,480.00 938.44,481.00 939.56,481.00 C940.72,481.00 941.04,480.17 940.81,477.83 ZM 940.00 465.50 C940.00,464.67 939.55,464.00 939.00,464.00 C938.45,464.00 938.00,464.67 938.00,465.50 C938.00,466.33 938.45,467.00 939.00,467.00 C939.55,467.00 940.00,466.33 940.00,465.50 ZM 537.50 427.17 L 537.50 395.83 L 534.23 392.92 C531.09,390.11 530.61,390.00 520.93,390.00 C513.87,390.00 510.02,390.45 507.93,391.54 C504.78,393.16 480.82,420.51 478.34,425.31 C476.37,429.12 476.40,435.43 478.39,438.47 C481.92,443.85 484.80,444.49 505.75,444.49 L 525.00 444.50 L 525.00 451.08 C525.00,454.70 525.32,457.99 525.71,458.38 C526.10,458.77 528.91,458.96 531.96,458.79 L 537.50 458.50 L 537.50 427.17 ZM 597.50 456.41 C609.02,450.39 611.46,433.22 602.12,423.88 C597.40,419.16 593.20,418.07 577.86,417.60 C571.06,417.39 564.71,417.17 563.75,417.11 C558.36,416.77 556.06,408.17 560.29,404.20 C562.46,402.16 563.68,402.03 582.54,401.77 L 602.50 401.50 L 602.50 395.50 L 602.50 389.50 L 582.50 389.20 C570.23,389.01 561.07,389.31 558.80,389.98 C542.30,394.77 540.11,419.08 555.47,426.95 C560.02,429.28 561.71,429.53 575.47,429.84 C589.03,430.16 590.72,430.40 592.75,432.27 C595.84,435.12 595.82,440.88 592.71,443.81 C590.52,445.86 589.37,445.97 568.46,446.23 L 546.50 446.50 L 546.19 451.37 C545.67,459.62 544.12,459.14 570.24,458.80 C591.55,458.53 593.84,458.32 597.50,456.41 ZM 628.00 423.95 L 628.00 388.90 L 621.75 389.20 L 615.50 389.50 L 615.24 422.99 C615.09,441.41 615.19,457.05 615.45,457.74 C615.77,458.56 618.05,459.00 621.97,459.00 L 628.00 459.00 L 628.00 423.95 ZM 690.07 456.25 C694.66,453.93 695.92,452.65 698.22,448.00 C703.37,437.58 701.00,425.68 692.68,420.16 C688.90,417.66 687.94,417.50 677.08,417.50 L 665.50 417.50 L 665.50 422.50 L 665.50 427.50 L 675.15 428.00 C682.76,428.39 685.24,428.90 686.90,430.40 C689.75,432.99 689.77,439.76 686.93,443.37 C684.90,445.94 684.60,446.00 673.18,446.00 C658.65,446.00 655.63,444.78 652.02,437.50 C647.00,427.39 649.32,409.76 656.33,404.76 C659.27,402.66 660.82,402.46 678.00,402.00 L 696.50 401.50 L 696.50 395.50 L 696.50 389.50 L 679.53 389.22 C659.36,388.90 654.05,390.08 647.17,396.41 C639.89,403.12 637.03,410.91 637.01,424.07 C637.00,433.86 638.77,440.88 642.74,446.75 C648.98,455.99 656.25,458.92 673.07,458.97 C683.74,459.00 685.06,458.79 690.07,456.25 ZM 721.78 444.25 L 722.05 430.00 L 739.53 430.00 L 757.00 430.00 L 757.00 444.50 L 757.00 459.00 L 763.01 459.00 L 769.03 459.00 L 768.76 424.25 L 768.50 389.50 L 763.00 389.50 L 757.50 389.50 L 757.22 403.25 L 756.94 417.00 L 739.50 417.00 L 722.06 417.00 L 721.78 403.25 L 721.50 389.50 L 715.50 389.50 L 709.50 389.50 L 709.24 422.99 C709.09,441.41 709.20,457.07 709.47,457.79 C709.83,458.71 711.69,459.01 715.74,458.80 L 721.50 458.50 L 721.78 444.25 ZM 808.00 430.50 L 808.00 402.00 L 818.00 402.00 L 828.00 402.00 L 828.00 395.48 L 828.00 388.97 L 801.75 389.23 L 775.50 389.50 L 775.50 395.50 L 775.50 401.50 L 785.25 401.79 L 795.00 402.07 L 795.00 429.87 C795.00,445.16 795.30,457.97 795.67,458.33 C796.03,458.70 798.96,459.00 802.17,459.00 L 808.00 459.00 L 808.00 430.50 ZM 845.66 453.00 C846.91,449.98 852.04,437.04 857.07,424.25 C865.48,402.90 866.42,401.00 868.63,401.00 C871.46,401.00 871.67,401.41 879.56,422.50 C882.65,430.75 887.05,442.23 889.34,448.00 L 893.50 458.50 L 900.25 458.80 C907.35,459.11 907.58,459.01 906.03,456.24 C904.95,454.30 901.65,445.78 897.02,433.00 C895.32,428.33 892.86,421.80 891.54,418.50 C890.22,415.20 887.73,408.90 886.02,404.50 C884.30,400.10 882.22,395.47 881.40,394.20 C877.25,387.87 867.09,386.03 860.21,390.36 C855.90,393.09 855.21,394.48 844.90,421.00 C840.94,431.17 836.02,443.64 833.97,448.70 C831.92,453.77 830.51,458.17 830.83,458.50 C831.15,458.82 834.12,458.95 837.41,458.79 L 843.41 458.50 L 845.66 453.00 ZM 924.00 424.50 L 924.00 390.00 L 918.00 390.00 L 912.00 390.00 L 912.00 424.50 L 912.00 459.00 L 918.00 459.00 L 924.00 459.00 L 924.00 424.50 ZM 459.17 399.35 C461.03,397.66 461.66,395.00 460.19,395.00 C459.75,395.00 458.51,394.35 457.44,393.56 C455.54,392.15 455.53,392.10 457.40,390.71 C459.57,389.11 458.79,387.00 456.03,387.00 C454.73,387.00 453.72,388.38 452.58,391.71 C451.15,395.91 451.14,396.50 452.51,397.26 C453.34,397.73 454.59,398.75 455.26,399.52 C456.85,401.32 456.99,401.32 459.17,399.35 ZM 315.00 362.00 C315.00,361.45 314.55,361.00 314.00,361.00 C313.45,361.00 313.00,361.45 313.00,362.00 C313.00,362.55 313.45,363.00 314.00,363.00 C314.55,363.00 315.00,362.55 315.00,362.00 ZM 315.00 353.50 C315.00,352.67 314.58,352.00 314.06,352.00 C312.80,352.00 311.89,353.56 312.69,354.36 C313.82,355.49 315.00,355.05 315.00,353.50 ZM 316.00 345.25 C316.01,342.35 319.71,337.20 323.03,335.49 C325.87,334.02 352.86,333.82 625.32,333.28 L 924.50 332.68 L 929.22 334.77 C933.97,336.88 937.99,341.67 938.00,345.25 C938.00,346.21 938.67,347.00 939.50,347.00 C943.34,347.00 938.54,337.05 932.90,333.32 L 928.65 330.50 L 628.07 330.27 L 327.50 330.04 L 322.54 332.77 C317.58,335.51 314.73,339.11 313.46,344.25 C312.93,346.39 313.14,347.00 314.39,347.00 C315.28,347.00 316.00,346.21 316.00,345.25 ZM 380.44 496.89 C378.24,492.63 379.76,491.18 384.22,493.30 C388.41,495.29 392.17,498.50 391.32,499.35 C390.96,499.71 388.73,500.00 386.36,500.00 C382.55,500.00 381.87,499.64 380.44,496.89 ZM 407.08 483.05 C406.35,482.60 405.92,481.76 406.13,481.19 C406.37,480.51 407.14,480.61 408.31,481.47 C410.30,482.94 409.20,484.36 407.08,483.05 ZM 398.00 480.40 C398.00,478.28 400.20,473.00 401.10,473.00 C402.52,473.00 402.17,474.68 400.00,478.23 C398.91,480.03 398.01,481.00 398.00,480.40 ZM 372.54 449.70 C371.56,446.18 372.54,445.11 374.74,447.31 C375.68,448.25 375.93,449.00 375.29,449.00 C374.66,449.00 373.96,449.79 373.73,450.75 C373.43,452.05 373.12,451.78 372.54,449.70 ZM 373.45 442.91 C373.08,442.31 373.28,441.32 373.89,440.71 C374.70,439.90 375.00,440.18 375.00,441.80 C375.00,444.21 374.48,444.59 373.45,442.91 ZM 364.37 430.56 C362.65,429.81 360.93,428.70 360.56,428.10 C359.66,426.64 360.22,426.71 363.64,428.49 C367.27,430.39 370.13,430.39 374.69,428.49 C378.99,426.69 380.00,427.23 377.51,429.99 C375.35,432.38 369.16,432.64 364.37,430.56 ZM 363.30 426.47 C360.85,423.86 360.89,421.04 363.44,416.69 C364.85,414.29 366.00,411.55 366.00,410.60 C366.00,408.24 367.56,409.41 369.44,413.17 C371.87,418.05 371.44,419.92 367.50,421.56 C365.58,422.37 364.00,423.47 364.00,424.01 C364.00,425.45 364.87,425.25 368.66,422.90 C371.39,421.21 372.34,421.04 373.53,422.02 C375.89,423.98 375.24,425.77 371.75,426.90 C367.85,428.16 364.73,428.01 363.30,426.47 ZM 374.95 419.91 C374.34,418.77 374.09,417.58 374.39,417.27 C375.22,416.45 378.00,419.03 378.00,420.62 C378.00,422.69 376.22,422.28 374.95,419.91 ZM 419.00 413.06 C419.00,412.54 419.45,411.84 420.00,411.50 C420.55,411.16 421.00,411.58 421.00,412.44 C421.00,413.30 420.55,414.00 420.00,414.00 C419.45,414.00 419.00,413.58 419.00,413.06 ZM 357.60 405.41 C356.65,402.92 356.89,402.00 358.50,402.00 C359.33,402.00 360.00,402.87 360.00,403.94 C360.00,406.46 358.39,407.45 357.60,405.41 ZM 377.57 357.12 C376.77,355.82 379.44,351.00 380.96,351.00 C383.02,351.00 382.89,353.01 380.67,355.59 C379.02,357.51 378.10,357.97 377.57,357.12 ZM 492.75 432.93 C491.79,432.37 491.00,431.05 491.00,430.01 C491.00,428.97 496.00,422.23 502.10,415.02 L 513.20 401.91 L 518.85 402.20 L 524.50 402.50 L 524.50 418.00 L 524.50 433.50 L 509.50 433.73 C500.53,433.87 493.80,433.55 492.75,432.93 Z" fill="rgb(254,254,254)"/>
</g>
</svg>