<?xml version="1.0" encoding="UTF-8"?>
<svg version="1.1" xmlns="http://www.w3.org/2000/svg" width="612" height="393">
<path d="M0 0 C201.96 0 403.92 0 612 0 C612 129.69 612 259.38 612 393 C410.04 393 208.08 393 0 393 C0 263.31 0 133.62 0 0 Z " fill="#2A2C53" transform="translate(0,0)"/>
<path d="M0 0 C27.39 0 54.78 0 83 0 C84.48925549 5.95702196 85.09002018 10.61703198 82 16 C81.01 17.485 81.01 17.485 80 19 C79.01 19 78.02 19 77 19 C77 19.66 77 20.32 77 21 C76.01 21 75.02 21 74 21 C74 21.66 74 22.32 74 23 C70.04 23 66.08 23 62 23 C61.67 25.97 61.34 28.94 61 32 C61.99 32 62.98 32 64 32 C63 34 62 36 61 38 C60.34 38 59.68 38 59 38 C59 38.66 59 39.32 59 40 C58.01 40.33 57.02 40.66 56 41 C55.608125 41.70125 55.21625 42.4025 54.8125 43.125 C53.14522658 45.76964059 51.93663392 47.02452651 49.5859375 48.97265625 C43.47631859 54.21596023 37.93721582 60.0580976 32.3371582 65.83422852 C30.9047292 67.30906104 29.46294446 68.77420809 28.01953125 70.23828125 C26.75266479 71.5382605 26.75266479 71.5382605 25.46020508 72.86450195 C21.20001256 76.56241839 17.38928624 77.35193342 11.921875 77.1875 C7.04966071 76.71216202 4.08111069 74.71858187 1 71 C-1.29840425 66.86287235 -1.59274252 62.64162992 -1 58 C0.60706966 53.82161887 2.56332524 50.88237238 6 48 C6.66 48 7.32 48 8 48 C8.268125 47.360625 8.53625 46.72125 8.8125 46.0625 C10 44 10 44 13 43 C13.68994859 41.67856398 14.35304927 40.34301042 15 39 C16.2437254 37.60802843 17.54289824 36.26459402 18.87890625 34.9609375 C20.01295898 33.84332031 20.01295898 33.84332031 21.16992188 32.703125 C21.95947266 31.93484375 22.74902344 31.1665625 23.5625 30.375 C25.12847891 28.84336831 26.69238939 27.30961805 28.25390625 25.7734375 C28.94814697 25.09716309 29.6423877 24.42088867 30.35766602 23.72412109 C32.07956495 22.08511449 32.07956495 22.08511449 33 20 C34.97888961 19.27306096 36.97954558 18.60183749 39 18 C39 17.34 39 16.68 39 16 C40.62553283 14.29319053 42.29115995 12.62339805 44 11 C43.34 11 42.68 11 42 11 C41.34 11.825 40.68 12.65 40 13.5 C39.34 14.325 38.68 15.15 38 16 C37.34 16 36.68 16 36 16 C35.67 16.66 35.34 17.32 35 18 C31.9375 18.625 31.9375 18.625 29 19 C28.67 18.01 28.34 17.02 28 16 C27.52949219 16.34933594 27.05898437 16.69867187 26.57421875 17.05859375 C25.95160156 17.51363281 25.32898438 17.96867187 24.6875 18.4375 C24.07261719 18.88996094 23.45773438 19.34242187 22.82421875 19.80859375 C19.64800573 21.88299412 16.99930523 22.11593196 13.3125 22.0625 C12.10013672 22.04896484 12.10013672 22.04896484 10.86328125 22.03515625 C10.24839844 22.02355469 9.63351563 22.01195313 9 22 C9 21.34 9 20.68 9 20 C7.68 20 6.36 20 5 20 C5 19.34 5 18.68 5 18 C4.34 18 3.68 18 3 18 C3 17.34 3 16.68 3 16 C2.34 16 1.68 16 1 16 C-0.86131271 12.83650409 -1.24746869 10.52763845 -1.1875 6.875 C-1.17783203 5.57175781 -1.17783203 5.57175781 -1.16796875 4.2421875 C-1 2 -1 2 0 0 Z " fill="#325B80" transform="translate(155,0)"/>
<path d="M0 0 C0.90796829 -0.00637985 1.81593658 -0.0127597 2.75141907 -0.01933289 C3.73990341 -0.02044571 4.72838776 -0.02155853 5.74682617 -0.02270508 C6.7569426 -0.02603348 7.76705902 -0.02936188 8.80778503 -0.03279114 C10.95062808 -0.03786576 13.09347907 -0.0401993 15.23632812 -0.04003906 C18.51535113 -0.04222007 21.79403489 -0.06035509 25.07299805 -0.0793457 C27.15177293 -0.08228059 29.23054943 -0.08426475 31.30932617 -0.08520508 C32.29173782 -0.09239059 33.27414948 -0.09957611 34.28633118 -0.10697937 C35.20375595 -0.10390274 36.12118073 -0.10082611 37.06640625 -0.09765625 C38.27433586 -0.09979378 38.27433586 -0.09979378 39.50666809 -0.10197449 C41.72729492 0.14526367 41.72729492 0.14526367 45.72729492 2.14526367 C45.72729492 11.05526367 45.72729492 19.96526367 45.72729492 29.14526367 C41.32553984 31.34614121 38.1107304 31.41954544 33.34057617 31.37573242 C32.52413132 31.3752742 31.70768646 31.37481598 30.86650085 31.37434387 C29.13917589 31.37132622 27.41185354 31.36345445 25.68457031 31.35107422 C23.06654996 31.3329489 20.4488868 31.33056386 17.83081055 31.33081055 C16.14656275 31.32588945 14.46231732 31.32005857 12.77807617 31.31323242 C12.00587234 31.3121196 11.23366852 31.31100677 10.43806458 31.30986023 C5.13826378 31.26460858 -0.01261536 30.7997148 -5.27270508 30.14526367 C-5.27270508 27.14526367 -5.27270508 27.14526367 -3.77270508 23.45776367 C-2.08146333 19.04758781 -1.73984754 15.864859 -2.27270508 11.14526367 C-3.56066674 9.11574833 -4.88828508 7.11024689 -6.27270508 5.14526367 C-5.88980977 0.42288822 -4.38603245 0.02082286 0 0 Z " fill="#39437D" transform="translate(566.272705078125,100.854736328125)"/>
<path d="M0 0 C0 4.95 0 9.9 0 15 C1.65 15 3.3 15 5 15 C5.99 15.33 6.98 15.66 8 16 C8 18.31 8 20.62 8 23 C11.3 23 14.6 23 18 23 C16.06221558 26.76791415 13.86062338 29.13202098 10.5390625 31.75 C8.77626625 33.13782602 8.77626625 33.13782602 6.5 35.5 C-2.12521441 44.12521441 -2.12521441 44.12521441 -8.3125 44.25 C-12.38442606 44.1912703 -14.78408361 43.66461643 -18 41 C-22.39562885 35.99386715 -23.67237853 32.70117083 -23.5859375 26.0625 C-22.43557217 20.04992389 -18.15604943 16.25486459 -14 12 C-12.93356951 10.88023142 -11.86716409 9.76043896 -10.80078125 8.640625 C-2.4373486 0 -2.4373486 0 0 0 Z " fill="#8BD1FC" transform="translate(504,33)"/>
<path d="M0 0 C4.875 2.625 4.875 2.625 6 6 C6.66 6 7.32 6 8 6 C9.81211702 7.61077068 11.38438573 9.20487303 13 11 C13.82177734 11.85464844 13.82177734 11.85464844 14.66015625 12.7265625 C18.8233912 17.50985372 19.77467393 21.19627449 19.390625 27.515625 C18.66747796 32.11484016 16.89035769 34.19867808 13.5 37.25 C8.95405059 40.43216459 4.38686412 40.7823993 -1 40 C-5.93832123 37.77526134 -9.23532483 33.7741951 -12.578125 29.640625 C-14.47630447 27.45041792 -16.73669314 25.79733192 -19 24 C-19 23.34 -19 22.68 -19 22 C-19.66 22 -20.32 22 -21 22 C-21.33 21.01 -21.66 20.02 -22 19 C-20.37512529 18.83211627 -18.75009558 18.66573213 -17.125 18.5 C-16.22007812 18.4071875 -15.31515625 18.314375 -14.3828125 18.21875 C-12 18 -12 18 -10 18 C-9.773125 17.21625 -9.54625 16.4325 -9.3125 15.625 C-8 13 -8 13 -5.375 11.6875 C-4.199375 11.3471875 -4.199375 11.3471875 -3 11 C-3 10.34 -3 9.68 -3 9 C-2.34 8.67 -1.68 8.34 -1 8 C-0.53476937 6.10466658 -0.53476937 6.10466658 -0.375 3.9375 C-0.25125 2.638125 -0.1275 1.33875 0 0 Z " fill="#C89CF9" transform="translate(328,37)"/>
<path d="M0 0 C0.66 0 1.32 0 2 0 C3.48046875 1.7578125 3.48046875 1.7578125 5.1875 4.125 C7.948073 7.78851042 10.73950127 10.76432917 14.32421875 13.61328125 C14.87722656 14.07089844 15.43023438 14.52851563 16 15 C17.02975952 15.83132446 17.02975952 15.83132446 18.08032227 16.67944336 C20.63040696 19.76205241 20.46265673 21.55388006 20.390625 25.515625 C20.37773438 26.76601563 20.36484375 28.01640625 20.3515625 29.3046875 C20.31804688 30.60664063 20.28453125 31.90859375 20.25 33.25 C20.23195313 34.56742187 20.21390625 35.88484375 20.1953125 37.2421875 C20.14816271 40.49552308 20.08236044 43.74739625 20 47 C15.65857712 49.17071144 9.70578242 48.44498672 5.125 47.25 C2.63469754 45.7851162 0.86182558 44.2066081 -1 42 C-1 41.34 -1 40.68 -1 40 C-1.54140625 39.78472656 -2.0828125 39.56945312 -2.640625 39.34765625 C-5.82786158 37.52713205 -8.20846034 35.04241138 -10.75 32.4375 C-11.25660156 31.93025391 -11.76320313 31.42300781 -12.28515625 30.90039062 C-16 27.14048812 -16 27.14048812 -16 26 C-11.71 26 -7.42 26 -3 26 C-2.67 25.01 -2.34 24.02 -2 23 C-1.34 23 -0.68 23 0 23 C0 22.34 0 21.68 0 21 C0.99 21 1.98 21 3 21 C2.67 20.01 2.34 19.02 2 18 C3.98 18 5.96 18 8 18 C8.16681109 15.08347826 8.16681109 15.08347826 8 12 C7.34 11.34 6.68 10.68 6 10 C2.90073181 10.32198966 2.90073181 10.32198966 0 11 C0 7.37 0 3.74 0 0 Z " fill="#D291FC" transform="translate(592,246)"/>
<path d="M0 0 C4.41026006 2.45014448 7.08812558 5.30125117 9.375 9.875 C9.7507343 15.51101445 9.59388178 19.04667733 6.375 23.875 C3.81154818 26.6558649 1.1359661 29.29110299 -1.625 31.875 C-3.11 31.38 -3.11 31.38 -4.625 30.875 C-6.24800083 30.57240662 -7.87326607 30.28183536 -9.5 30 C-16.65361193 28.55883438 -16.65361193 28.55883438 -19.625 25.875 C-20.4375 23.375 -20.4375 23.375 -20.625 19.875 C-20.67527344 18.99714844 -20.72554688 18.11929688 -20.77734375 17.21484375 C-21.0933952 7.82179454 -21.0933952 7.82179454 -17.625 3.875 C-11.76872666 -1.26709366 -7.68224274 -2.3841443 0 0 Z " fill="#6EDCEE" transform="translate(392.625,102.125)"/>
<path d="M0 0 C6.52748814 -0.34968686 12.5171209 -0.11182176 17.61328125 4.44140625 C20.77242097 8.27686884 21.73990758 11.71843524 21.41015625 16.65625 C20.6713304 20.87811199 19.56861857 24.52481017 17 28 C12.58501578 31.01674627 7.20442276 31.82175096 2 31 C-2.69860807 28.60417509 -7.18972912 26.17886773 -9 21 C-9.30078125 18.16015625 -9.30078125 18.16015625 -9.3125 15.0625 C-9.32925781 14.04285156 -9.34601563 13.02320312 -9.36328125 11.97265625 C-8.94700306 8.56633687 -8.07200504 6.71769963 -6 4 C-2.8125 2.6875 -2.8125 2.6875 0 2 C0 1.34 0 0.68 0 0 Z " fill="#7A6DE8" transform="translate(218,101)"/>
<path d="M0 0 C1.60379341 -0.05416188 3.20811406 -0.09286638 4.8125 -0.125 C5.70582031 -0.14820313 6.59914063 -0.17140625 7.51953125 -0.1953125 C10 0 10 0 13 2 C13 2.99 13 3.98 13 5 C14.32 5 15.64 5 17 5 C19.48531096 10.90261353 20.44397423 17.26921681 18.08984375 23.3515625 C16.16506889 26.75550517 14.66969543 28.6428291 11.1875 30.5 C5.9265891 31.32524093 0.66919964 32.11279976 -4 29 C-4 28.34 -4 27.68 -4 27 C-4.99 27 -5.98 27 -7 27 C-10.69837749 22.8789508 -11.56641508 19.60489579 -11.33984375 14.2578125 C-10.81930772 10.79953862 -9.58665471 8.10719881 -8 5 C-7.34 5 -6.68 5 -6 5 C-6 4.34 -6 3.68 -6 3 C-4.02 2.67 -2.04 2.34 0 2 C0 1.34 0 0.68 0 0 Z " fill="#3F437A" transform="translate(328,155)"/>
<path d="M0 0 C3.01139619 2.27391141 4.5642806 3.75987555 5.8125 7.3125 C5.874375 7.869375 5.93625 8.42625 6 9 C6.66 9 7.32 9 8 9 C8 13.29 8 17.58 8 22 C7.01 22.33 6.02 22.66 5 23 C4.87625 23.928125 4.87625 23.928125 4.75 24.875 C4 27 4 27 1 28.75 C-3.82278254 30.56973032 -9.24840885 31.0893846 -14.1015625 29.16796875 C-17.60620257 27.01182187 -20.16513151 23.66973699 -22 20 C-22.07033769 18.12620395 -22.0843022 16.24998898 -22.0625 14.375 C-22.05347656 13.37210938 -22.04445313 12.36921875 -22.03515625 11.3359375 C-22.02355469 10.56507812 -22.01195312 9.79421875 -22 9 C-21.34 9 -20.68 9 -20 9 C-19.71125 8.4225 -19.4225 7.845 -19.125 7.25 C-18.75375 6.5075 -18.3825 5.765 -18 5 C-17.7525 4.29875 -17.505 3.5975 -17.25 2.875 C-16 1 -16 1 -13.5 -0.3125 C-8.80456785 -1.23481703 -4.6457866 -1.20790452 0 0 Z " fill="#3F447B" transform="translate(448,47)"/>
<path d="M0 0 C10.17458357 -1.06833127 10.17458357 -1.06833127 14.54296875 1.48828125 C20.81340762 7.00489687 20.81340762 7.00489687 21.203125 11.171875 C21.30169966 16.59348113 20.98569579 20.27264834 18 25 C17.34 25 16.68 25 16 25 C16 25.99 16 26.98 16 28 C12.41527958 30.38981361 10.74646235 30.24010257 6.5 30.1875 C5.3553125 30.18105469 4.210625 30.17460937 3.03125 30.16796875 C0 30 0 30 -3 29 C-3 28.34 -3 27.68 -3 27 C-3.66 27 -4.32 27 -5 27 C-8.92964031 22.59880285 -9.24288448 18.78710625 -9.15625 12.9609375 C-8.87627473 9.4472478 -7.73209411 6.96503314 -5.625 4.1875 C-4 3 -4 3 0 3 C0 2.01 0 1.02 0 0 Z " fill="#3F447B" transform="translate(272,101)"/>
<path d="M0 0 C1.03930664 0.08507813 1.03930664 0.08507813 2.09960938 0.171875 C3.79648446 0.31230604 5.49215248 0.46719407 7.1875 0.625 C7.331875 1.24375 7.47625 1.8625 7.625 2.5 C8.11902225 4.65758322 8.11902225 4.65758322 9.1875 6.625 C10.68433837 19.38670448 10.68433837 19.38670448 7.5078125 24.13671875 C2.64653825 28.38365615 -1.27890429 29.88516916 -7.8203125 29.77734375 C-11.66426906 29.48339413 -14.06418998 28.2450283 -17 25.8125 C-20.42355352 21.68062506 -21.22504308 18.00142695 -21.0625 12.6171875 C-20.66324005 9.43558478 -19.59436343 7.26707336 -17.8125 4.625 C-15.4375 2.875 -15.4375 2.875 -12.8125 1.625 C-12.09449219 1.26148438 -11.37648437 0.89796875 -10.63671875 0.5234375 C-6.99442079 -0.6352465 -3.74001076 -0.35789577 0 0 Z " fill="#73F4FA" transform="translate(174.8125,47.375)"/>
<path d="M0 0 C2.14847953 1.76933609 3.6714814 3.37846965 5.125 5.75 C5.125 6.41 5.125 7.07 5.125 7.75 C5.785 7.75 6.445 7.75 7.125 7.75 C7.125 12.04 7.125 16.33 7.125 20.75 C6.465 20.75 5.805 20.75 5.125 20.75 C4.815625 21.8946875 4.815625 21.8946875 4.5 23.0625 C2.59956229 26.7769919 1.06577058 27.41295284 -2.875 28.75 C-8.04277562 29.2716682 -12.29433496 29.39918646 -16.875 26.75 C-16.875 26.09 -16.875 25.43 -16.875 24.75 C-17.49375 24.6675 -18.1125 24.585 -18.75 24.5 C-20.875 23.75 -20.875 23.75 -21.984375 22.0703125 C-24.18201216 16.34488938 -23.73686023 9.71504132 -21.3125 4.1875 C-15.55096349 -1.57403651 -7.47926408 -3.25185395 0 0 Z " fill="#3F447B" transform="translate(394.875,48.25)"/>
<path d="M0 0 C4.845 3.8475 4.845 3.8475 6.125 7.6875 C7.09552813 20.62165376 7.09552813 20.62165376 3.125 25.6875 C0.4375 26.5625 0.4375 26.5625 -1.875 26.6875 C-1.875 27.3475 -1.875 28.0075 -1.875 28.6875 C-3.79041138 28.79591951 -5.70759773 28.87328079 -7.625 28.9375 C-9.22601563 29.00710937 -9.22601563 29.00710937 -10.859375 29.078125 C-14.56294457 28.59838801 -15.46641195 27.43119595 -17.875 24.6875 C-18.865 24.3575 -19.855 24.0275 -20.875 23.6875 C-24.06745888 18.83969207 -24.32061441 15.30224157 -23.875 9.6875 C-22.73089608 4.76785316 -19.90221972 2.5870982 -15.875 -0.3125 C-10.69207834 -2.00143578 -4.97605926 -2.27167923 0 0 Z " fill="#3F447C" transform="translate(231.875,48.3125)"/>
<path d="M0 0 C2.39133247 2.10147399 2.97741862 3.86727911 4.0625 6.8125 C5.0525 7.1425 6.0425 7.4725 7.0625 7.8125 C7.68710568 17.56328864 7.68710568 17.56328864 5.3125 22.3125 C3.31374971 24.53333366 1.64204071 26.31470217 -0.9375 27.8125 C-1.9275 27.8125 -2.9175 27.8125 -3.9375 27.8125 C-3.9375 28.4725 -3.9375 29.1325 -3.9375 29.8125 C-5.51996707 29.89403933 -7.10366273 29.95193557 -8.6875 30 C-10.01007812 30.05220703 -10.01007812 30.05220703 -11.359375 30.10546875 C-14.43425097 29.75605103 -15.76389854 28.99117997 -17.9375 26.8125 C-17.9375 25.8225 -17.9375 24.8325 -17.9375 23.8125 C-18.9275 23.4825 -19.9175 23.1525 -20.9375 22.8125 C-23.4655158 19.35310995 -23.1559816 15.9636504 -22.9375 11.8125 C-22.65229595 10.13692621 -22.33794304 8.46432755 -21.9375 6.8125 C-21.2775 6.8125 -20.6175 6.8125 -19.9375 6.8125 C-19.855 6.214375 -19.7725 5.61625 -19.6875 5 C-18.71572147 2.16564597 -17.45446446 1.3670957 -14.9375 -0.1875 C-9.91633247 -1.86122251 -4.9329323 -1.99416412 0 0 Z " fill="#3F437B" transform="translate(557.9375,265.1875)"/>
<path d="M0 0 C0.78503906 -0.00257812 1.57007813 -0.00515625 2.37890625 -0.0078125 C4.4375 0.125 4.4375 0.125 6.4375 1.125 C6.4375 1.785 6.4375 2.445 6.4375 3.125 C7.015 3.186875 7.5925 3.24875 8.1875 3.3125 C11.69062226 4.57751637 12.62971352 5.83224605 14.4375 9.125 C15.27108141 14.10529569 15.64116429 18.9305145 13.15625 23.4609375 C11.67465556 25.24030337 10.30232733 26.75295088 8.4375 28.125 C7.7775 28.125 7.1175 28.125 6.4375 28.125 C6.4375 28.785 6.4375 29.445 6.4375 30.125 C-5.77694468 31.34475037 -5.77694468 31.34475037 -10.015625 28.44921875 C-14.27357428 23.55615519 -15.83962134 19.70662481 -15.70703125 13.11328125 C-15.38398359 8.66919311 -13.91290449 6.23865875 -10.625 3.375 C-6.90736397 0.64367557 -4.49273836 -0.01480309 0 0 Z " fill="#8A61E4" transform="translate(441.5625,100.875)"/>
<path d="M0 0 C1.91635217 -0.05423638 3.83314925 -0.09289963 5.75 -0.125 C7.35101563 -0.15980469 7.35101563 -0.15980469 8.984375 -0.1953125 C11.92470106 -0.00487687 13.52361878 0.47329896 16 2 C16 2.66 16 3.32 16 4 C16.639375 4.20625 17.27875 4.4125 17.9375 4.625 C20 6 20 6 20.75 8.625 C21.61940299 20.3619403 21.61940299 20.3619403 19 24 C18.34 24.33 17.68 24.66 17 25 C16.67 25.99 16.34 26.98 16 28 C11.68315545 30.86830338 6.98578226 30.50488934 2 30 C-3.36787898 28.11130184 -6.45991584 25.08016831 -9 20 C-9.39259763 14.30733434 -9.21346618 8.92025225 -6 4 C-2.8125 2.5 -2.8125 2.5 0 2 C0 1.34 0 0.68 0 0 Z " fill="#3F447B" transform="translate(272,156)"/>
<path d="M0 0 C4.4674463 1.35834516 7.23635117 2.94998286 10 6.75 C11.68571679 12.22857957 11.49298194 16.28906268 9.9375 21.6875 C7.54612974 25.77597174 5.41976428 28.19699147 1 30 C-4.07210558 30.82839547 -8.35353529 30.8757791 -12.9375 28.4375 C-16.58389389 24.1281254 -19.21337088 20.58589543 -19.375 14.875 C-18.84947348 9.44455933 -17.82778705 6.55131328 -14 2.6875 C-9.57562144 -0.87223909 -5.45999603 -0.98962428 0 0 Z " fill="#8368EA" transform="translate(554,210)"/>
<path d="M0 0 C3.75394477 2.08552487 6.57964028 3.93474149 8.375 7.875 C9.27777225 13.19660486 9.07546763 17.44812149 6.6875 22.3125 C5.924375 23.158125 5.16125 24.00375 4.375 24.875 C3.694375 25.65875 3.01375 26.4425 2.3125 27.25 C-2.23831948 29.76747461 -6.5450954 29.59963345 -11.625 28.875 C-16.14009689 26.82268323 -18.70891784 24.14774213 -20.93359375 19.80078125 C-22.58130343 15.21139778 -22.10932912 11.20053233 -20.4375 6.625 C-15.3764469 -1.05383919 -8.6150141 -2.67362507 0 0 Z " fill="#7673F0" transform="translate(447.625,211.125)"/>
<path d="M0 0 C3.11990886 1.55995443 5.65081295 3.41840675 8 6 C9.71569621 11.14708864 9.91374184 16.93951527 8.3515625 22.171875 C6.67086073 25.53327855 4.91370686 27.05047335 1.6875 28.9375 C-3.38385197 30.39873701 -7.94156267 30.61869995 -13 29 C-13 28.34 -13 27.68 -13 27 C-13.8971875 26.9071875 -13.8971875 26.9071875 -14.8125 26.8125 C-18.42558453 25.47049717 -19.35516837 22.28966325 -21 19 C-21.31054461 9.52838934 -21.31054461 9.52838934 -20 6 C-15.96551724 3 -15.96551724 3 -13 3 C-13 2.34 -13 1.68 -13 1 C-8.99272009 -1.00363995 -4.3447903 -0.63069537 0 0 Z " fill="#3F437B" transform="translate(501,101)"/>
<path d="M0 0 C0 0.66 0 1.32 0 2 C0.8353125 2.0928125 0.8353125 2.0928125 1.6875 2.1875 C5.30475611 3.45842782 6.74703336 4.87087967 9 8 C9.63541654 12.82916572 9.5430609 17.3708173 8 22 C7.34 22 6.68 22 6 22 C5.87625 22.598125 5.7525 23.19625 5.625 23.8125 C5 26 5 26 3 29 C-1.9843896 30.6614632 -8.04235445 31.15559845 -13.01953125 29.2109375 C-15.85960316 27.40047804 -16.92491996 26.22524011 -18 23 C-18.66 22.67 -19.32 22.34 -20 22 C-21.5271547 17.41853591 -21.97545313 13.27470814 -20.05859375 8.8046875 C-14.90933517 0.05579047 -9.69061573 -0.45822526 0 0 Z " fill="#40447C" transform="translate(501,210)"/>
<path d="M0 0 C0.77085937 -0.00257812 1.54171875 -0.00515625 2.3359375 -0.0078125 C4.5578189 0.12110212 6.49118508 0.51116283 8.625 1.125 C8.625 1.785 8.625 2.445 8.625 3.125 C9.223125 3.24875 9.82125 3.3725 10.4375 3.5 C12.625 4.125 12.625 4.125 15.625 6.125 C16.72006492 9.41019475 16.72460608 11.86163415 16.6875 15.3125 C16.67847656 16.39917969 16.66945313 17.48585938 16.66015625 18.60546875 C16.64855469 19.43691406 16.63695312 20.26835938 16.625 21.125 C15.965 21.455 15.305 21.785 14.625 22.125 C14.295 23.115 13.965 24.105 13.625 25.125 C12.965 25.125 12.305 25.125 11.625 25.125 C11.625 25.785 11.625 26.445 11.625 27.125 C7.65821499 30.68142794 3.37818051 30.6812472 -1.703125 30.55078125 C-5.93064647 29.87709727 -7.60629474 28.34268449 -10.375 25.125 C-10.375 24.135 -10.375 23.145 -10.375 22.125 C-11.035 22.125 -11.695 22.125 -12.375 22.125 C-13.82290347 17.60030167 -13.88921976 13.08838453 -12.6875 8.5 C-9.6675757 3.03537507 -6.19321809 -0.02057548 0 0 Z " fill="#3F447B" transform="translate(548.375,46.875)"/>
<path d="M0 0 C4.32992288 2.2953808 7.1661088 5.46175312 9 10 C9.79336823 14.98569295 9.74849981 19.58802218 7 23.9375 C3.22002903 28.47774842 -1.54071909 29.76353068 -7.25 30.3125 C-9.9725863 30.00311519 -11.6818889 29.42652991 -14 28 C-14 27.34 -14 26.68 -14 26 C-14.8971875 25.9071875 -14.8971875 25.9071875 -15.8125 25.8125 C-18 25 -18 25 -19.75 22.9375 C-22.06834641 17.48938595 -21.50229893 12.88713759 -19.5 7.5 C-19.005 6.345 -18.51 5.19 -18 4 C-17.34 4 -16.68 4 -16 4 C-16 3.34 -16 2.68 -16 2 C-10.98697898 -0.96713416 -5.64651969 -0.85620429 0 0 Z " fill="#4CA1F6" transform="translate(556,156)"/>
<path d="M0 0 C0.85722656 -0.00257813 1.71445312 -0.00515625 2.59765625 -0.0078125 C7.59264388 0.27570934 9.69002866 2.53568957 12.9375 6.125 C14.64689041 11.25317123 15.15011484 17.21890581 13.03125 22.296875 C10.38090763 26.27238856 7.53275388 28.59324871 2.9375 30.125 C-2.28684998 30.88337338 -5.00455817 30.56166559 -9.375 27.5625 C-14.07771413 23.62663317 -15.75476225 19.63086457 -16.5 13.5625 C-15.85064869 8.46045396 -13.10004309 4.32138828 -9.0625 1.125 C-6.00492427 0.15060773 -3.19800642 -0.00964708 0 0 Z " fill="#43C7E2" transform="translate(442.0625,155.875)"/>
<path d="M0 0 C4.17749285 2.22799619 6.11188338 5.11764178 7.8125 9.5 C8.58533547 14.30470352 8.40288994 18.15820469 6.4375 22.625 C5.633125 23.553125 5.633125 23.553125 4.8125 24.5 C4.1525 24.5 3.4925 24.5 2.8125 24.5 C2.8125 25.16 2.8125 25.82 2.8125 26.5 C-2.38628466 29.78344294 -7.18642507 30.44154796 -13.1875 29.5 C-15.5625 27.75 -15.5625 27.75 -17.1875 25.5 C-17.909375 24.819375 -18.63125 24.13875 -19.375 23.4375 C-22.42681541 20.17521457 -22.47410869 16.90435985 -22.40234375 12.55859375 C-21.92879167 8.02110378 -19.96475298 5.218959 -16.6875 2.1875 C-11.43748091 -1.35626288 -6.00965587 -0.94269112 0 0 Z " fill="#4AA8F1" transform="translate(285.1875,47.5)"/>
<path d="M0 0 C0.76183594 -0.01417969 1.52367187 -0.02835938 2.30859375 -0.04296875 C6.16792186 0.35165925 8.10198551 1.65721059 10.625 4.5625 C11.264375 5.42875 11.90375 6.295 12.5625 7.1875 C13.08714844 7.80238281 13.61179687 8.41726562 14.15234375 9.05078125 C16.65359263 12.84076224 16.27992039 16.8226339 15.5625 21.1875 C13.90867491 24.91030792 11.76818411 27.3951933 8.375 29.625 C3.0802028 30.68395944 -2.17527101 31.0923916 -7.25 29.0625 C-14.0782669 23.2096998 -14.0782669 23.2096998 -14.78515625 19.23046875 C-14.83971989 15.15378573 -14.23644654 11.1822327 -13.4375 7.1875 C-12.7775 7.1875 -12.1175 7.1875 -11.4375 7.1875 C-11.1075 5.8675 -10.7775 4.5475 -10.4375 3.1875 C-9.4475 3.1875 -8.4575 3.1875 -7.4375 3.1875 C-7.4375 2.5275 -7.4375 1.8675 -7.4375 1.1875 C-4.66697819 0.26399273 -2.87061242 0.02420415 0 0 Z " fill="#3F447B" transform="translate(495.4375,154.8125)"/>
<path d="M0 0 C11.16798248 -0.59592001 11.16798248 -0.59592001 16 3 C19.16435781 6.65118209 21.29312641 10.22585733 21.5 15.125 C20.99272008 19.05641939 20.02747816 21.62086974 18 25 C17.34 25 16.68 25 16 25 C16 25.66 16 26.32 16 27 C10.62669111 30.39366878 6.13053511 30.32712342 0 30 C0 29.34 0 28.68 0 28 C-0.928125 27.814375 -1.85625 27.62875 -2.8125 27.4375 C-6 26 -6 26 -7.875 22.875 C-9.60641157 17.95738134 -9.62787709 13.302216 -8.25 8.25 C-6.80091525 5.64164745 -5.30924091 3.88937893 -3 2 C-2.01 2 -1.02 2 0 2 C0 1.34 0 0.68 0 0 Z " fill="#40447D" transform="translate(544,101)"/>
<path d="M0 0 C3.24642615 2.51220117 4.59402566 5.2407951 5.1953125 9.265625 C5.20141055 14.00380676 5.1218025 17.5422903 3.19921875 21.92578125 C-0.61449531 25.73949531 -3.65394223 27.27429397 -8.9609375 27.45703125 C-13.37074358 27.21962581 -16.46662568 26.81997537 -20.30078125 24.55078125 C-24.49602282 19.81421819 -24.78241838 15.61828443 -24.69140625 9.421875 C-23.99664629 4.7322453 -21.86237314 1.39721139 -18.23828125 -1.63671875 C-11.69918279 -3.92021345 -6.02233114 -2.96841068 0 0 Z " fill="#5491FA" transform="translate(342.23828125,103.63671875)"/>
<path d="M0 0 C11.47504456 -1.03275401 11.47504456 -1.03275401 16.6875 2.8125 C19.21759146 4.93400526 19.92868431 5.78605294 21 9 C21.1190686 10.78879802 21.17522113 12.5822856 21.1875 14.375 C21.20167969 15.31085938 21.21585937 16.24671875 21.23046875 17.2109375 C20.9835459 20.19912251 20.35919415 22.33370624 19 25 C16.875 25.8125 16.875 25.8125 15 26 C15 26.66 15 27.32 15 28 C12.0668642 28.97771193 10.11821006 29.13419011 7.0625 29.125 C5.78052734 29.12886719 5.78052734 29.12886719 4.47265625 29.1328125 C2.17319148 29.00930254 0.20359652 28.64420687 -2 28 C-2 27.34 -2 26.68 -2 26 C-2.99 26 -3.98 26 -5 26 C-8.16948306 22.3609639 -8.45931833 18.97942548 -8.2890625 14.3515625 C-7.81010816 10.45520418 -6.73837681 7.5388385 -5 4 C-2.875 2.625 -2.875 2.625 -1 2 C-0.67 1.34 -0.34 0.68 0 0 Z " fill="#40447C" transform="translate(380,156)"/>
<path d="M0 0 C9.9 0 19.8 0 30 0 C31.48925549 5.95702196 32.09002018 10.61703198 29 16 C28.34 16.99 27.68 17.98 27 19 C26.01 19 25.02 19 24 19 C24 19.66 24 20.32 24 21 C23.01 21 22.02 21 21 21 C21 21.66 21 22.32 21 23 C9.09099299 23.56312292 9.09099299 23.56312292 5 20 C4.34 19.01 3.68 18.02 3 17 C2.01 16.67 1.02 16.34 0 16 C0 10.72 0 5.44 0 0 Z " fill="#3F447B" transform="translate(208,0)"/>
<path d="M0 0 C0 9.57 0 19.14 0 29 C-5.17282781 30.29320695 -11.02250549 31.5180533 -15.984375 28.98828125 C-17.625 27.6875 -17.625 27.6875 -20 25 C-20 24.01 -20 23.02 -20 22 C-20.66 22 -21.32 22 -22 22 C-23.24377393 19.51245214 -23.13306235 17.77344699 -23.125 15 C-23.12757813 14.113125 -23.13015625 13.22625 -23.1328125 12.3125 C-23 10 -23 10 -22 8 C-21.34 8 -20.68 8 -20 8 C-19.896875 7.401875 -19.79375 6.80375 -19.6875 6.1875 C-18.8858616 3.63683235 -18.09967436 2.63308005 -16 1 C-12 0 -12 0 0 0 Z " fill="#3F447B" transform="translate(612,210)"/>
<path d="M0 0 C8.91 0 17.82 0 27 0 C29.66001356 5.32002712 29.4871016 9.51578186 28.375 15.1875 C26.57255704 18.87431514 24.74155577 21.31558313 21 23 C15.44643659 23.87487643 10.6860202 23.72258009 5.5 21.5 C2.00594342 18.00594342 0.66984983 15.74237353 -1 11 C-0.67 7.37 -0.34 3.74 0 0 Z " fill="#3F447C" transform="translate(264,0)"/>
<path d="M0 0 C9.24 0 18.48 0 28 0 C29.87488157 3.74976314 29.53047439 7.91713531 29 12 C27.3372732 16.11887095 25.08043213 19.09477308 21.6875 21.9375 C17.45622624 23.61032916 13.45234708 24.88363923 9.0703125 23.3046875 C4.43838644 20.77998961 0.68592214 18.05776642 -1 13 C-1.09247381 11.52313889 -1.12999071 10.04224499 -1.125 8.5625 C-1.12757813 7.80066406 -1.13015625 7.03882813 -1.1328125 6.25390625 C-1 4 -1 4 0 0 Z " fill="#3F457D" transform="translate(536,0)"/>
<path d="M0 0 C0.02465881 3.96930989 0.04284023 7.93859034 0.05493164 11.90795898 C0.05997057 13.25920386 0.06680177 14.61044326 0.07543945 15.96166992 C0.08752419 17.90020434 0.09269828 19.838778 0.09765625 21.77734375 C0.10551147 23.52905884 0.10551147 23.52905884 0.11352539 25.31616211 C0 28 0 28 -1 29 C-13.38593403 30.24036535 -13.38593403 30.24036535 -17.625 26.875 C-20.95081939 22.84900811 -22.76078608 19.84536449 -23.4375 14.625 C-22.73520164 8.80595648 -20.40936427 3.92855593 -16 0 C-11.04836601 -2.01733237 -5.03832993 -1.32124954 0 0 Z " fill="#3F447C" transform="translate(612,48)"/>
<path d="M0 0 C2.70556641 -0.34057617 2.70556641 -0.34057617 6.1015625 -0.29296875 C7.31328125 -0.28330078 8.525 -0.27363281 9.7734375 -0.26367188 C11.04445313 -0.23853516 12.31546875 -0.21339844 13.625 -0.1875 C14.90375 -0.17396484 16.1825 -0.16042969 17.5 -0.14648438 C20.66708282 -0.11103196 23.83333541 -0.06161441 27 0 C29.11816354 3.88894826 29.45458227 6.52994104 29 11 C27.12164887 15.8532532 24.35018792 19.09987472 20 22 C17.21398777 22.92867074 15.38933911 23.16342217 12.5 23.1875 C11.33984375 23.20876953 11.33984375 23.20876953 10.15625 23.23046875 C8 23 8 23 5 21 C5 20.34 5 19.68 5 19 C4.401875 18.814375 3.80375 18.62875 3.1875 18.4375 C0.00837816 16.34836279 -1.0227967 13.54503679 -2 10 C-2.37195709 5.53651494 -2.50552308 3.75828462 0 0 Z " fill="#6483F4" transform="translate(319,0)"/>
<path d="M0 0 C8.91 0 17.82 0 27 0 C29.09876414 4.19752828 28.54329191 9.44001064 28 14 C25.8125 17 25.8125 17 23 19 C22.236875 19.763125 21.47375 20.52625 20.6875 21.3125 C16.3821735 24.01584455 12.45263852 23.4905277 7.5 22.5 C6.7575 22.2525 6.7575 22.2525 6 22 C6 21.34 6 20.68 6 20 C5.401875 19.7525 4.80375 19.505 4.1875 19.25 C1.6168304 17.78104594 0.57946686 16.49573217 -1 14 C-1.58203125 11.5625 -1.58203125 11.5625 -1.8125 9 C-1.90144531 8.154375 -1.99039062 7.30875 -2.08203125 6.4375 C-2 4 -2 4 0 0 Z " fill="#46BEEC" transform="translate(428,0)"/>
<path d="M0 0 C0.66 0.33 1.32 0.66 2 1 C2 9.91 2 18.82 2 28 C-0.71655403 29.35827701 -2.90789406 29.1323445 -5.9375 29.125 C-7.52884766 29.12886719 -7.52884766 29.12886719 -9.15234375 29.1328125 C-12 29 -12 29 -15 28 C-18.35262489 23.81533682 -21.37443582 19.1622572 -21.5625 13.6875 C-20.98021829 9.8703199 -20.36054759 8.01173313 -18 5 C-17.071875 3.6078125 -17.071875 3.6078125 -16.125 2.1875 C-11.18371382 -1.27140033 -5.85526897 -0.5591662 0 0 Z " fill="#ABBAFD" transform="translate(610,102)"/>
<path d="M0 0 C0 8.91 0 17.82 0 27 C-2.83029148 28.41514574 -5.28379133 28.20780992 -8.4375 28.25 C-9.59121094 28.27578125 -10.74492188 28.3015625 -11.93359375 28.328125 C-15 28 -15 28 -16.91015625 26.609375 C-18 25 -18 25 -18 23 C-18.639375 22.71125 -19.27875 22.4225 -19.9375 22.125 C-22 21 -22 21 -23 19 C-23.64777778 12.88348286 -22.78156819 8.44723771 -20 3 C-19.34 3 -18.68 3 -18 3 C-18 2.34 -18 1.68 -18 1 C-11.04015018 -1.19106383 -7.88990209 -0.78899021 0 0 Z " fill="#3F447B" transform="translate(612,157)"/>
<path d="M0 0 C9.9 0 19.8 0 30 0 C29 14 29 14 26.8125 17.1875 C25.884375 17.785625 24.95625 18.38375 24 19 C23.0925 19.598125 22.185 20.19625 21.25 20.8125 C17.06193743 22.34275363 13.40695639 22.26441738 9 22 C9 21.34 9 20.68 9 20 C7.68 20 6.36 20 5 20 C5 19.34 5 18.68 5 18 C4.34 18 3.68 18 3 18 C3 17.34 3 16.68 3 16 C2.34 16 1.68 16 1 16 C-0.86131271 12.83650409 -1.24746869 10.52763845 -1.1875 6.875 C-1.17783203 5.57175781 -1.17783203 5.57175781 -1.16796875 4.2421875 C-1 2 -1 2 0 0 Z " fill="#3F447C" transform="translate(155,0)"/>
<path d="M0 0 C8.91 0 17.82 0 27 0 C28.27959591 2.55919182 28.16816536 4.45484028 28.1875 7.3125 C28.20167969 8.25738281 28.21585937 9.20226563 28.23046875 10.17578125 C27.98518135 13.18159128 27.36889248 15.31945095 26 18 C23.875 18.8125 23.875 18.8125 22 19 C22 19.66 22 20.32 22 21 C18.91493912 22.02835363 16.7305728 22.13368434 13.5 22.125 C12.06140625 22.12886719 12.06140625 22.12886719 10.59375 22.1328125 C8 22 8 22 5 21 C5 20.34 5 19.68 5 19 C4.34 19 3.68 19 3 19 C0.38707309 16.90965847 -0.54236105 15.29500046 -1 12 C-1.15688988 7.68552829 -0.85524908 4.27624542 0 0 Z " fill="#3F447C" transform="translate(373,0)"/>
<path d="M0 0 C8.91 0 17.82 0 27 0 C28.29758261 2.59516521 28.13269102 4.54183027 28.125 7.4375 C28.12886719 8.88962891 28.12886719 8.88962891 28.1328125 10.37109375 C28 13 28 13 27 16 C26.34 16 25.68 16 25 16 C24.7525 16.61875 24.505 17.2375 24.25 17.875 C22.7277758 20.46278114 21.7695493 20.91418361 19 22 C14.11441485 22.56064092 9.53769432 22.67274127 5 20.6875 C4.34 20.130625 3.68 19.57375 3 19 C2.4225 18.525625 1.845 18.05125 1.25 17.5625 C-1.69162619 13.88546726 -1.15851533 9.517687 -1 5 C-0.67 3.35 -0.34 1.7 0 0 Z " fill="#40447C" transform="translate(101,0)"/>
<path d="M0 0 C9.24 0 18.48 0 28 0 C28 13 28 13 26 17 C25.34 17 24.68 17 24 17 C24 17.99 24 18.98 24 20 C18.65123365 22.7606536 13.21245864 22.92426882 7.48828125 21.27734375 C4.04958261 19.9096166 1.61312476 18.85837467 -0.5625 15.8125 C-1.41628206 10.32390101 -1.34856941 5.39427764 0 0 Z " fill="#40447C" transform="translate(482,0)"/>
<path d="M0 0 C6.93 0 13.86 0 21 0 C21 7.26 21 14.52 21 22 C17.29273244 23.85363378 13.04595205 23.45990853 9 23 C4.34297656 20.54447855 0.68332026 18.04996079 -1 13 C-1.09357692 11.14772748 -1.12993909 9.2921282 -1.125 7.4375 C-1.12757813 6.46683594 -1.13015625 5.49617187 -1.1328125 4.49609375 C-1 2 -1 2 0 0 Z " fill="#7E6BEA" transform="translate(591,0)"/>
<path d="M0 0 C1.66289063 0.00676758 1.66289063 0.00676758 3.359375 0.01367188 C6.07297399 0.02536842 8.78645761 0.04175914 11.5 0.0625 C11.5 0.3925 11.5 0.7225 11.5 1.0625 C10.77554688 1.06507812 10.05109375 1.06765625 9.3046875 1.0703125 C2.4361567 1.28879296 2.4361567 1.28879296 -3.125 4.9375 C-6.14742999 8.91438157 -6.88562724 11.87533108 -6.8671875 16.86328125 C-6.30075404 20.25585609 -4.57219877 22.6396006 -2.59375 25.3984375 C-1.5 27.0625 -1.5 27.0625 -1.5 29.0625 C2.79 29.3925 7.08 29.7225 11.5 30.0625 C11.5 30.3925 11.5 30.7225 11.5 31.0625 C1.43645782 31.19097075 -8.46724089 30.85942838 -18.5 30.0625 C-18.17 29.0725 -17.84 28.0825 -17.5 27.0625 C-17.24234823 23.04586499 -17.2686838 19.02402309 -17.25 15 C-17.229375 13.88560547 -17.20875 12.77121094 -17.1875 11.62304688 C-17.18234375 10.56021484 -17.1771875 9.49738281 -17.171875 8.40234375 C-17.15785645 6.93849243 -17.15785645 6.93849243 -17.14355469 5.44506836 C-17.26118164 4.6588208 -17.37880859 3.87257324 -17.5 3.0625 C-18.49 2.4025 -19.48 1.7425 -20.5 1.0625 C-13.64016191 0.00521913 -6.93216776 -0.05389843 0 0 Z " fill="#4A58A6" transform="translate(596.5,100.9375)"/>
<path d="M0 0 C0.99 0 1.98 0 3 0 C5.1875 3 5.1875 3 7 6 C7.66 4.68 8.32 3.36 9 2 C9 4.97 9 7.94 9 11 C10.32 10.67 11.64 10.34 13 10 C12 13 12 13 9 15 C8.67 15.99 8.34 16.98 8 18 C7.01 18 6.02 18 5 18 C4.67 19.65 4.34 21.3 4 23 C4.66 23 5.32 23 6 23 C6 23.66 6 24.32 6 25 C10.71311065 22.86787852 14.23985844 20.49780611 18 17 C18.33 16.01 18.66 15.02 19 14 C20.7421875 12.24609375 20.7421875 12.24609375 22.875 10.4375 C23.57367188 9.83808594 24.27234375 9.23867187 24.9921875 8.62109375 C27 7 27 7 30 5 C30 9.95 30 14.9 30 20 C28.68 20 27.36 20 26 20 C25.505 19.01 25.505 19.01 25 18 C24.34 18 23.68 18 23 18 C21.609883 20.90876913 21.609883 20.90876913 21 24 C19.7625 24.12375 18.525 24.2475 17.25 24.375 C12.84961782 24.92036055 12.84961782 24.92036055 9 27 C8.87625 27.61746094 8.7525 28.23492187 8.625 28.87109375 C7.82623747 31.59187861 6.6306381 32.49548952 4.4375 34.25 C3.79683594 34.77078125 3.15617187 35.2915625 2.49609375 35.828125 C2.00238281 36.21484375 1.50867188 36.6015625 1 37 C0.34 36.67 -0.32 36.34 -1 36 C0.75 32.125 0.75 32.125 3 31 C2.67 30.67 2.34 30.34 2 30 C1.34 29.01 0.68 28.02 0 27 C-3.58357241 26.74984127 -3.58357241 26.74984127 -7 27 C-4 25 -4 25 -2 24.1875 C0.74112379 22.55995775 1.5796021 20.8407958 3 18 C3.896498 11.4696273 3.69988677 5.54983016 0 0 Z M-3 37 C-2.34 37.33 -1.68 37.66 -1 38 C-1.99 38.66 -2.98 39.32 -4 40 C-4.33 39.34 -4.66 38.68 -5 38 C-4.34 37.67 -3.68 37.34 -3 37 Z " fill="#3A4680" transform="translate(343,104)"/>
<path d="M0 0 C0.66 0 1.32 0 2 0 C2 0.66 2 1.32 2 2 C2.66 2 3.32 2 4 2 C4 2.99 4 3.98 4 5 C4.9075 5.2475 5.815 5.495 6.75 5.75 C10.12496123 7.04806201 11.74102121 8.21971841 14 11 C14 11.66 14 12.32 14 13 C14.66 13 15.32 13 16 13 C17.65 16.3 19.3 19.6 21 23 C21.66 23 22.32 23 23 23 C22.67 24.65 22.34 26.3 22 28 C21.34 28 20.68 28 20 28 C19.67 28.66 19.34 29.32 19 30 C17.2925002 28.71937515 15.62626404 27.38232443 14 26 C14 25.34 14 24.68 14 24 C13.34 24 12.68 24 12 24 C10.33333333 22.33333333 8.66666667 20.66666667 7 19 C4.83379456 17.70480005 4.83379456 17.70480005 3 17 C3 16.34 3 15.68 3 15 C2.0409375 14.8453125 2.0409375 14.8453125 1.0625 14.6875 C0.381875 14.460625 -0.29875 14.23375 -1 14 C-2 11 -2 11 -2 8 C-3.32 8 -4.64 8 -6 8 C-5.67 7.01 -5.34 6.02 -5 5 C-3.68 5 -2.36 5 -1 5 C-0.34 4.34 0.32 3.68 1 3 C0.67 2.01 0.34 1.02 0 0 Z " fill="#2B2C56" transform="translate(322,19)"/>
<path d="M0 0 C1.25159912 0.00523682 2.50319824 0.01047363 3.79272461 0.01586914 C4.78942421 0.01799156 4.78942421 0.01799156 5.80625916 0.02015686 C7.93590735 0.02577021 10.06545175 0.03832485 12.19506836 0.05102539 C13.63582205 0.05603868 15.07657739 0.06060188 16.51733398 0.06469727 C20.05581794 0.07489463 23.59407649 0.09446709 27.13256836 0.11352539 C27.13256836 8.36352539 27.13256836 16.61352539 27.13256836 25.11352539 C26.47256836 25.44352539 25.81256836 25.77352539 25.13256836 26.11352539 C25.15577148 25.22149414 25.17897461 24.32946289 25.20288086 23.41040039 C25.22092773 22.23993164 25.23897461 21.06946289 25.25756836 19.86352539 C25.28077148 18.70336914 25.30397461 17.54321289 25.32788086 16.34790039 C25.13997892 13.23624434 24.88510818 11.64368222 23.13256836 9.11352539 C22.14256836 8.45352539 21.15256836 7.79352539 20.13256836 7.11352539 C20.13256836 6.45352539 20.13256836 5.79352539 20.13256836 5.11352539 C18.07036355 5.05917739 16.0077402 5.02057579 13.94506836 4.98852539 C12.79651367 4.96532227 11.64795898 4.94211914 10.46459961 4.91821289 C7.16542057 5.1115997 5.04801941 5.59913916 2.13256836 7.11352539 C-0.06885496 9.552596 -0.06885496 9.552596 -1.86743164 12.11352539 C-2.52743164 12.77352539 -3.18743164 13.43352539 -3.86743164 14.11352539 C-4.88265973 9.48859745 -4.77837844 5.75935407 -3.86743164 1.11352539 C-2.86743164 0.11352539 -2.86743164 0.11352539 0 0 Z " fill="#36406F" transform="translate(429.867431640625,151.886474609375)"/>
<path d="M0 0 C0.33 0 0.66 0 1 0 C1.25532751 3.06393013 1.21861333 4.63233212 -0.375 7.3125 C-0.91125 7.869375 -1.4475 8.42625 -2 9 C-2.66 9 -3.32 9 -4 9 C-4.33 9.99 -4.66 10.98 -5 12 C-7 14 -7 14 -8.625 15.25 C-10.61690775 17.78515532 -10.2083333 19.87500056 -10 23 C-13.63 23 -17.26 23 -21 23 C-21.33 23.66 -21.66 24.32 -22 25 C-23.32 24.67 -24.64 24.34 -26 24 C-25.01 23.67 -24.02 23.34 -23 23 C-22.67 22.34 -22.34 21.68 -22 21 C-21 19 -21 19 -18 18 C-17.32502059 16.67085553 -16.66017287 15.33656051 -16 14 C-14.44958443 12.26298575 -12.83880467 10.57890179 -11.1875 8.9375 C-10.33542969 8.08027344 -9.48335937 7.22304688 -8.60546875 6.33984375 C-6.17909108 4.16083292 -3.83433222 2.58781962 -1 1 C-0.67 0.67 -0.34 0.34 0 0 Z " fill="#357D99" transform="translate(186,25)"/>
<path d="M0 0 C3 4 3 4 3 6 C3.804375 6.268125 4.60875 6.53625 5.4375 6.8125 C6.283125 7.204375 7.12875 7.59625 8 8 C8.33 8.99 8.66 9.98 9 11 C11.10464793 10.69075786 13.2087053 10.3774944 15.3125 10.0625 C16.48425781 9.88847656 17.65601563 9.71445313 18.86328125 9.53515625 C22.01641403 9.07906969 22.01641403 9.07906969 25 8 C25 7.34 25 6.68 25 6 C25.66 6 26.32 6 27 6 C27.66 4.35 28.32 2.7 29 1 C29.33 1 29.66 1 30 1 C30 5.29 30 9.58 30 14 C29.01 14 28.02 14 27 14 C27 13.34 27 12.68 27 12 C26.34 12 25.68 12 25 12 C25 12.66 25 13.32 25 14 C16.75 14 8.5 14 0 14 C0 9.38 0 4.76 0 0 Z " fill="#393E70" transform="translate(263,66)"/>
<path d="M0 0 C1.44207941 2.88415883 1.09394887 5.41721528 1.0625 8.625 C1.05347656 9.81351563 1.04445313 11.00203125 1.03515625 12.2265625 C1.02355469 13.14179687 1.01195312 14.05703125 1 15 C-0.32 15 -1.64 15 -3 15 C-3.33 14.34 -3.66 13.68 -4 13 C-4.66 13 -5.32 13 -6 13 C-7.390117 15.90876913 -7.390117 15.90876913 -8 19 C-9.2375 19.12375 -10.475 19.2475 -11.75 19.375 C-14.8762197 19.75746305 -17.28879237 20.30549523 -20 22 C-20 21.01 -20 20.02 -20 19 C-18.06640625 17.28125 -18.06640625 17.28125 -15.5625 15.5 C-11.85031549 12.97446416 -11.85031549 12.97446416 -10 9 C-8.22265625 7.24609375 -8.22265625 7.24609375 -6.0625 5.4375 C-3.96656037 3.66869432 -1.94005112 1.94005112 0 0 Z " fill="#4184C6" transform="translate(372,109)"/>
<path d="M0 0 C0.33 0.99 0.66 1.98 1 3 C-1.97515307 6.00400358 -4.95577407 9.00252155 -7.9375 12 C-9.21270508 13.28777344 -9.21270508 13.28777344 -10.51367188 14.6015625 C-11.32255859 15.41367187 -12.13144531 16.22578125 -12.96484375 17.0625 C-13.7137085 17.81660156 -14.46257324 18.57070312 -15.23413086 19.34765625 C-17 21 -17 21 -18 21 C-18 17.04 -18 13.08 -18 9 C-15.69 9 -13.38 9 -11 9 C-10.5978125 7.576875 -10.5978125 7.576875 -10.1875 6.125 C-9 3 -9 3 -6 1 C-4.0103005 0.60986284 -2.00980131 0.26797351 0 0 Z " fill="#408FBF" transform="translate(202,47)"/>
<path d="M0 0 C2.65822762 2.65822762 2.35980571 4.1060254 2.4375 7.8125 C2.34184703 13.53118122 2.34184703 13.53118122 -0.1875 17 C-1.115625 17.66 -2.04375 18.32 -3 19 C-3.763125 19.763125 -4.52625 20.52625 -5.3125 21.3125 C-9.6178265 24.01584455 -13.54736148 23.4905277 -18.5 22.5 C-18.995 22.335 -19.49 22.17 -20 22 C-20 21.34 -20 20.68 -20 20 C-21.32 19.34 -22.64 18.68 -24 18 C-23.34 17.67 -22.68 17.34 -22 17 C-19 18 -19 18 -18 20 C-17.34 20 -16.68 20 -16 20 C-16 19.34 -16 18.68 -16 18 C-14.95199219 17.85304688 -14.95199219 17.85304688 -13.8828125 17.703125 C-12.97273438 17.55359375 -12.06265625 17.4040625 -11.125 17.25 C-10.22007812 17.11078125 -9.31515625 16.9715625 -8.3828125 16.828125 C-5.84198758 16.24001221 -5.84198758 16.24001221 -4.8671875 13.984375 C-4.58101563 13.32953125 -4.29484375 12.6746875 -4 12 C-3.01 11.67 -2.02 11.34 -1 11 C0.33333333 8 0.33333333 8 -1 5 C-0.5625 2.3125 -0.5625 2.3125 0 0 Z " fill="#49B5EF" transform="translate(454,0)"/>
<path d="M0 0 C2.64 0.33 5.28 0.66 8 1 C8.33 1.99 8.66 2.98 9 4 C7.71034824 5.37562854 6.37310707 6.70766393 5 8 C4.34 8 3.68 8 3 8 C2.93554688 8.5671875 2.87109375 9.134375 2.8046875 9.71875 C1.67120238 12.93212528 -0.29154581 14.31342428 -2.875 16.5 C-6.56009737 19.63137609 -6.56009737 19.63137609 -9.6953125 23.28125 C-10.34113281 24.13203125 -10.34113281 24.13203125 -11 25 C-11.66 25 -12.32 25 -13 25 C-12.67 23.02 -12.34 21.04 -12 19 C-11.05125 18.773125 -10.1025 18.54625 -9.125 18.3125 C-5.82870439 17.31793578 -5.82870439 17.31793578 -4.6875 14.5 C-4.460625 13.675 -4.23375 12.85 -4 12 C-3.67 11.34 -3.34 10.68 -3 10 C-3.66 10 -4.32 10 -5 10 C-5 7.69 -5 5.38 -5 3 C-4.34 3.66 -3.68 4.32 -3 5 C-2.01 5.33 -1.02 5.66 0 6 C0 4.02 0 2.04 0 0 Z " fill="#3E77B8" transform="translate(381,131)"/>
<path d="M0 0 C0.66 0 1.32 0 2 0 C2 0.66 2 1.32 2 2 C2.66 2 3.32 2 4 2 C4 2.99 4 3.98 4 5 C4.9075 5.2475 5.815 5.495 6.75 5.75 C10.12496123 7.04806201 11.74102121 8.21971841 14 11 C14 11.66 14 12.32 14 13 C13.21625 12.649375 12.4325 12.29875 11.625 11.9375 C10.75875 11.628125 9.8925 11.31875 9 11 C8.01 11.495 8.01 11.495 7 12 C6.34227572 15.02934491 6.34227572 15.02934491 6 18 C5.01 17.67 4.02 17.34 3 17 C3 16.34 3 15.68 3 15 C2.0409375 14.8453125 2.0409375 14.8453125 1.0625 14.6875 C0.381875 14.460625 -0.29875 14.23375 -1 14 C-2 11 -2 11 -2 8 C-3.32 8 -4.64 8 -6 8 C-5.67 7.01 -5.34 6.02 -5 5 C-3.68 5 -2.36 5 -1 5 C-0.34 4.34 0.32 3.68 1 3 C0.67 2.01 0.34 1.02 0 0 Z " fill="#353566" transform="translate(322,19)"/>
<path d="M0 0 C0 5.28 0 10.56 0 16 C-1.65 15.67 -3.3 15.34 -5 15 C-6.93651019 14.93466565 -8.87502861 14.91415697 -10.8125 14.9375 C-11.78832031 14.94652344 -12.76414062 14.95554687 -13.76953125 14.96484375 C-14.50558594 14.97644531 -15.24164063 14.98804688 -16 15 C-3.5 0 -3.5 0 0 0 Z " fill="#4473C3" transform="translate(504,33)"/>
<path d="M0 0 C0 3 0 3 -2 6 C-2 6.99 -2 7.98 -2 9 C-1.319375 9.061875 -0.63875 9.12375 0.0625 9.1875 C3.95451162 10.26401385 7.03444754 12.25665032 10 15 C10 15.66 10 16.32 10 17 C10.99 17.33 11.98 17.66 13 18 C13.33 20.31 13.66 22.62 14 25 C15.32 25.33 16.64 25.66 18 26 C17.34 26 16.68 26 16 26 C16 26.99 16 27.98 16 29 C13 31.1875 13 31.1875 10 33 C10.02320313 32.20335937 10.04640625 31.40671875 10.0703125 30.5859375 C10.45976216 22.49933679 10.45976216 22.49933679 8 15 C5.06201446 13.60380471 5.06201446 13.60380471 2 13 C1.34 12.67 0.68 12.34 0 12 C-1.70363822 11.77377919 -3.41328701 11.59111527 -5.125 11.4375 C-6.03507813 11.35371094 -6.94515625 11.26992187 -7.8828125 11.18359375 C-8.93082031 11.09271484 -8.93082031 11.09271484 -10 11 C-10 10.34 -10 9.68 -10 9 C-8.57421875 7.59765625 -8.57421875 7.59765625 -6.6875 6.0625 C-4.33649789 4.13536829 -2.11764865 2.18280707 0 0 Z " fill="#464586" transform="translate(554,199)"/>
<path d="M0 0 C0 2.31 0 4.62 0 7 C3.3 7 6.6 7 10 7 C7.67126065 11.5281043 4.8954154 13.86673109 1 17 C0.67 17.66 0.34 18.32 0 19 C-0.66 19 -1.32 19 -2 19 C-1.979375 17.824375 -1.95875 16.64875 -1.9375 15.4375 C-1.93052739 11.52586533 -2.35749657 7.85502056 -3 4 C-3.66 4 -4.32 4 -5 4 C-5 3.34 -5 2.68 -5 2 C-5.99 1.67 -6.98 1.34 -8 1 C-4.93251126 -0.86240388 -3.40254489 -1.2151946 0 0 Z " fill="#4E7FD9" transform="translate(512,49)"/>
<path d="M0 0 C0 0.66 0 1.32 0 2 C-0.99 2.495 -0.99 2.495 -2 3 C-3.15613581 8.8857823 -2.88860329 14.0942058 -2 20 C-0.35 20.33 1.3 20.66 3 21 C1.515 23.475 1.515 23.475 0 26 C-3.78328512 24.78394407 -5.4205139 22.45200716 -7.23828125 18.99609375 C-9.01112451 14.35033525 -8.51690953 10.3045812 -6.6875 5.6875 C-3.11627907 0 -3.11627907 0 0 0 Z " fill="#7072E7" transform="translate(434,212)"/>
<path d="M0 0 C0.66 0 1.32 0 2 0 C3.48046875 1.7578125 3.48046875 1.7578125 5.1875 4.125 C7.96744042 7.82191451 10.77793519 10.77815986 14.421875 13.61328125 C16 15 16 15 19 19 C15.37 18.67 11.74 18.34 8 18 C8.04125 17.05125 8.0825 16.1025 8.125 15.125 C8.34973818 11.89755144 8.34973818 11.89755144 6 10 C2.90073181 10.32198966 2.90073181 10.32198966 0 11 C0 7.37 0 3.74 0 0 Z " fill="#935BDF" transform="translate(592,246)"/>
<path d="M0 0 C0.99 0.33 1.98 0.66 3 1 C3 1.66 3 2.32 3 3 C3.66 3 4.32 3 5 3 C5 4.32 5 5.64 5 7 C5.66 7 6.32 7 7 7 C6.67 9.97 6.34 12.94 6 16 C5.21625 16.12375 4.4325 16.2475 3.625 16.375 C0.85942178 16.79117993 0.85942178 16.79117993 -1 19 C-1.268125 19.680625 -1.53625 20.36125 -1.8125 21.0625 C-3 23 -3 23 -5.125 23.75 C-8.77218242 24.0671463 -12.33893472 24.06205195 -16 24 C-16 23.67 -16 23.34 -16 23 C-15.38511719 22.89042969 -14.77023437 22.78085937 -14.13671875 22.66796875 C-13.32847656 22.50941406 -12.52023437 22.35085937 -11.6875 22.1875 C-10.88699219 22.03667969 -10.08648437 21.88585937 -9.26171875 21.73046875 C-6.74569185 20.91786593 -5.77405234 19.89891233 -4 18 C-3.34 18 -2.68 18 -2 18 C-1.690625 17.21625 -1.38125 16.4325 -1.0625 15.625 C0 13 0 13 1 11 C1.1421988 7.16063232 1.17754676 3.67983361 0 0 Z " fill="#3B4076" transform="translate(346,0)"/>
<path d="M0 0 C0.66 0.33 1.32 0.66 2 1 C1.67257812 1.70511719 1.34515625 2.41023438 1.0078125 3.13671875 C-0.08400722 6.23867167 -0.20385396 8.54006053 -0.125 11.8125 C-0.09792969 13.27623047 -0.09792969 13.27623047 -0.0703125 14.76953125 C-0.04710937 15.50558594 -0.02390625 16.24164063 0 17 C-4.89434213 12.90473413 -9.70720334 8.73642915 -14 4 C-14 3.67 -14 3.34 -14 3 C-9.71 3 -5.42 3 -1 3 C-0.67 2.01 -0.34 1.02 0 0 Z " fill="#8857D3" transform="translate(590,269)"/>
<path d="M0 0 C0 3 0 3 -2 6 C1.3 5.67 4.6 5.34 8 5 C8 7.31 8 9.62 8 12 C6.25 12.625 6.25 12.625 4 13 C3.401875 12.6803125 2.80375 12.360625 2.1875 12.03125 C-0.46155957 10.78240763 -2.3379406 10.79836686 -5.25 10.875 C-6.58804687 10.90207031 -6.58804687 10.90207031 -7.953125 10.9296875 C-8.62859375 10.95289062 -9.3040625 10.97609375 -10 11 C-10 9 -10 9 -8.125 6.875 C-6 5 -6 5 -4 5 C-4 4.34 -4 3.68 -4 3 C-3.34 3 -2.68 3 -2 3 C-2 2.34 -2 1.68 -2 1 C-1.34 0.67 -0.68 0.34 0 0 Z " fill="#393E71" transform="translate(336,91)"/>
<path d="M0 0 C0 0.33 0 0.66 0 1 C-0.72445312 1.00257812 -1.44890625 1.00515625 -2.1953125 1.0078125 C-8.92230615 1.21190349 -8.92230615 1.21190349 -14.5625 4.5 C-17.65517362 8.15416768 -18.40083255 12.35128703 -19 17 C-19.66 17 -20.32 17 -21 17 C-21.33 18.32 -21.66 19.64 -22 21 C-24.85195184 15.29609632 -22.5158 7.84665714 -21 2 C-14.11997829 -0.62096065 -7.27823961 -0.18170362 0 0 Z " fill="#5465C0" transform="translate(608,101)"/>
<path d="M0 0 C0.66 0.33 1.32 0.66 2 1 C1.01 1.33 0.02 1.66 -1 2 C-2.12516085 3.83284443 -2.12516085 3.83284443 -3 6 C-3.50466797 6.89525391 -3.50466797 6.89525391 -4.01953125 7.80859375 C-5.15806524 10.35328527 -5.40612879 12.47763137 -5.625 15.25 C-5.69976562 16.14203125 -5.77453125 17.0340625 -5.8515625 17.953125 C-5.90054687 18.62859375 -5.94953125 19.3040625 -6 20 C-7.15224028 19.07038578 -8.29659176 18.1309875 -9.4375 17.1875 C-10.07558594 16.66542969 -10.71367187 16.14335938 -11.37109375 15.60546875 C-13 14 -13 14 -14 11 C-14.66 11 -15.32 11 -16 11 C-16.33 10.01 -16.66 9.02 -17 8 C-15.37512529 7.83211627 -13.75009558 7.66573213 -12.125 7.5 C-10.76761719 7.36078125 -10.76761719 7.36078125 -9.3828125 7.21875 C-7 7 -7 7 -5 7 C-4.731875 6.21625 -4.46375 5.4325 -4.1875 4.625 C-3 2 -3 2 0 0 Z " fill="#7A62CE" transform="translate(323,48)"/>
<path d="M0 0 C2.475 0.99 2.475 0.99 5 2 C5 2.66 5 3.32 5 4 C11.26039609 4.93213141 16.02197063 5.20927172 22 3 C22 3.66 22 4.32 22 5 C20.35 5.33 18.7 5.66 17 6 C17 6.99 17 7.98 17 9 C16.34 9 15.68 9 15 9 C14.7525 9.78375 14.505 10.5675 14.25 11.375 C12.84610901 14.32317108 11.99324263 14.9024777 9 16 C9 14 9 14 10.5 12.375 C10.995 11.92125 11.49 11.4675 12 11 C10.35 11.33 8.7 11.66 7 12 C7 10.02 7 8.04 7 6 C4.69 5.34 2.38 4.68 0 4 C0 2.68 0 1.36 0 0 Z " fill="#3B4C85" transform="translate(537,180)"/>
<path d="M0 0 C1.35439668 2.70879335 1.06501451 5.00933268 1 8 C-2.63 8 -6.26 8 -10 8 C-10.33 8.66 -10.66 9.32 -11 10 C-12.32 9.67 -13.64 9.34 -15 9 C-14.01 8.67 -13.02 8.34 -12 8 C-11.67 7.34 -11.34 6.68 -11 6 C-10 4 -10 4 -7 3 C-6.67 2.01 -6.34 1.02 -6 0 C-3 -1 -3 -1 0 0 Z " fill="#41C0D6" transform="translate(175,40)"/>
<path d="M0 0 C1.50156874 3.00313748 1.09281204 5.79067522 1.0625 9.125 C1.05347656 10.40632812 1.04445313 11.68765625 1.03515625 13.0078125 C1.02355469 13.99523438 1.01195312 14.98265625 1 16 C-0.98 16 -2.96 16 -5 16 C-6.60729993 12.78540014 -6.61930855 9.47611897 -6 6 C-3.5625 3.0625 -3.5625 3.0625 -1 1 C-0.67 0.67 -0.34 0.34 0 0 Z " fill="#3C3F71" transform="translate(590,0)"/>
<path d="M0 0 C0.86818359 -0.01224609 1.73636719 -0.02449219 2.63085938 -0.03710938 C3.47068359 -0.03904297 4.31050781 -0.04097656 5.17578125 -0.04296875 C5.94446533 -0.04707764 6.71314941 -0.05118652 7.50512695 -0.05541992 C9.94466738 0.2161253 11.57159011 0.97364065 13.6875 2.1875 C11.47998152 2.52618777 9.27144089 2.85821689 7.0625 3.1875 C5.83273437 3.373125 4.60296875 3.55875 3.3359375 3.75 C0.0708973 4.14152516 -3.02962451 4.26830924 -6.3125 4.1875 C-6.3125 3.1975 -6.3125 2.2075 -6.3125 1.1875 C-7.98360042 4.14928773 -8.63932752 6.55821192 -8.9375 9.9375 C-9.01226562 10.73671875 -9.08703125 11.5359375 -9.1640625 12.359375 C-9.21304687 12.96265625 -9.26203125 13.5659375 -9.3125 14.1875 C-9.6425 14.1875 -9.9725 14.1875 -10.3125 14.1875 C-11.32772809 9.56257206 -11.2234468 5.83332868 -10.3125 1.1875 C-8.08752688 -1.03747312 -2.98760941 0.00218872 0 0 Z " fill="#383C6E" transform="translate(436.3125,151.8125)"/>
<path d="M0 0 C0 0.66 0 1.32 0 2 C0.99 2 1.98 2 3 2 C2.92303847 5.23238414 2.62561345 7.33227795 0.375 9.734375 C-1.37770071 11.21851673 -3.15079362 12.63844334 -5 14 C-5.66 13.67 -6.32 13.34 -7 13 C-5.25 9.125 -5.25 9.125 -3 8 C-3.33 7.67 -3.66 7.34 -4 7 C-4.68268138 5.67479497 -5.3507041 4.34187818 -6 3 C-3.375 0 -3.375 0 0 0 Z M-9 14 C-8.34 14.33 -7.68 14.66 -7 15 C-7.99 15.66 -8.98 16.32 -10 17 C-10.33 16.34 -10.66 15.68 -11 15 C-10.34 14.67 -9.68 14.34 -9 14 Z " fill="#2B2E55" transform="translate(349,127)"/>
<path d="M0 0 C1.40742022 2.81484045 0.66652164 4.56936113 0.0625 7.625 C-0.13214844 8.62789062 -0.32679688 9.63078125 -0.52734375 10.6640625 C-0.68332031 11.43492187 -0.83929687 12.20578125 -1 13 C-3.31 13 -5.62 13 -8 13 C-8.66 11.68 -9.32 10.36 -10 9 C-9.34 9 -8.68 9 -8 9 C-8 8.34 -8 7.68 -8 7 C-7.34 7 -6.68 7 -6 7 C-6 6.34 -6 5.68 -6 5 C-5.34 5 -4.68 5 -4 5 C-4 4.34 -4 3.68 -4 3 C-2 1.375 -2 1.375 0 0 Z M-12 11 C-11.01 11.495 -11.01 11.495 -10 12 C-10.99 12.495 -10.99 12.495 -12 13 C-12 12.34 -12 11.68 -12 11 Z " fill="#3B4882" transform="translate(536,163)"/>
<path d="M0 0 C0.66 0.33 1.32 0.66 2 1 C1.34 6.94 0.68 12.88 0 19 C-3.47325181 20.1577506 -6.36067448 20.06866652 -10 20 C-10 18 -10 18 -8.5390625 16.4921875 C-7.59160156 15.69167969 -7.59160156 15.69167969 -6.625 14.875 C-5.99851562 14.33617187 -5.37203125 13.79734375 -4.7265625 13.2421875 C-3 12 -3 12 -1 12 C-0.67 8.04 -0.34 4.08 0 0 Z " fill="#3A467B" transform="translate(456,4)"/>
<path d="M0 0 C4.875 2.625 4.875 2.625 6 6 C6.66 6 7.32 6 8 6 C8.99 7.65 9.98 9.3 11 11 C6.38 11 1.76 11 -3 11 C-3 10.34 -3 9.68 -3 9 C-2.34 8.67 -1.68 8.34 -1 8 C-0.53476937 6.10466658 -0.53476937 6.10466658 -0.375 3.9375 C-0.25125 2.638125 -0.1275 1.33875 0 0 Z " fill="#7058C4" transform="translate(328,37)"/>
<path d="M0 0 C0.28875 0.60457031 0.5775 1.20914062 0.875 1.83203125 C2.60299509 5.16202178 4.59343234 8.29671617 8 10 C8 10.66 8 11.32 8 12 C11.63 12.33 15.26 12.66 19 13 C19 13.33 19 13.66 19 14 C13.06 14 7.12 14 1 14 C0.27562166 10.37810828 -0.11585593 7.76234736 -0.0625 4.1875 C-0.05347656 3.39730469 -0.04445313 2.60710938 -0.03515625 1.79296875 C-0.02355469 1.20128906 -0.01195312 0.60960937 0 0 Z " fill="#38487B" transform="translate(426,10)"/>
<path d="M0 0 C0.99 1.32 1.98 2.64 3 4 C3.556875 4.70125 4.11375 5.4025 4.6875 6.125 C6 8 6 8 6 10 C10.29 10.33 14.58 10.66 19 11 C19 11.33 19 11.66 19 12 C16.62492145 12.02719556 14.25016036 12.04693247 11.875 12.0625 C10.87726562 12.07506836 10.87726562 12.07506836 9.859375 12.08789062 C5.79318646 12.10782292 1.9879908 11.78890161 -2 11 C-1.34 7.37 -0.68 3.74 0 0 Z " fill="#5B65BD" transform="translate(589,120)"/>
<path d="M0 0 C0 2.62834278 -0.19789762 5.08186701 -0.5 7.6875 C-0.5928125 8.49574219 -0.685625 9.30398437 -0.78125 10.13671875 C-0.8534375 10.75160156 -0.925625 11.36648437 -1 12 C-2.2375 12.12375 -3.475 12.2475 -4.75 12.375 C-7.8762197 12.75746305 -10.28879237 13.30549523 -13 15 C-13 14.01 -13 13.02 -13 12 C-11.06640625 10.28125 -11.06640625 10.28125 -8.5625 8.5 C-4.85031549 5.97446416 -4.85031549 5.97446416 -3 2 C-2.01 1.34 -1.02 0.68 0 0 Z " fill="#3A62A5" transform="translate(365,116)"/>
<path d="M0 0 C1.15570704 3.46712111 1.32835293 6.5414956 1.5625 10.1875 C1.64628906 11.45980469 1.73007812 12.73210937 1.81640625 14.04296875 C1.87699219 15.01878906 1.93757813 15.99460938 2 17 C0.078125 16.6640625 0.078125 16.6640625 -2 16 C-4.07190488 11.64899976 -4.19055047 7.76376184 -4 3 C-3.34 3 -2.68 3 -2 3 C-1.34 2.01 -0.68 1.02 0 0 Z " fill="#3FCFDB" transform="translate(430,163)"/>
<path d="M0 0 C6.6 0 13.2 0 20 0 C18 2 18 2 14.375 2.125 C13.26125 2.08375 12.1475 2.0425 11 2 C10.67 4.31 10.34 6.62 10 9 C9.236875 8.195625 8.47375 7.39125 7.6875 6.5625 C5.20569102 3.83200976 5.20569102 3.83200976 2 3 C2 2.34 2 1.68 2 1 C1.34 0.67 0.68 0.34 0 0 Z " fill="#40427A" transform="translate(446,101)"/>
<path d="M0 0 C1.32 0.66 2.64 1.32 4 2 C3.54625 2.391875 3.0925 2.78375 2.625 3.1875 C-1.41553575 7.69425141 -1.27374153 12.25142777 -1 18 C-0.58268982 20.35529281 -0.58268982 20.35529281 0 22 C-3 21 -3 21 -4.23046875 18.8515625 C-5.16827436 15.37644527 -4.88698574 12.91969922 -4.3125 9.375 C-4.14363281 8.24835937 -3.97476563 7.12171875 -3.80078125 5.9609375 C-2.99705154 2.9890979 -2.38853089 1.85555292 0 0 Z " fill="#3A4A79" transform="translate(156,48)"/>
<path d="M0 0 C0.66 0 1.32 0 2 0 C5.48523002 4.28951387 5.43371114 7.7087241 5 13 C4.34 13.66 3.68 14.32 3 15 C3 14.34 3 13.68 3 13 C2.01 13 1.02 13 0 13 C0 8.71 0 4.42 0 0 Z " fill="#424A87" transform="translate(560,107)"/>
<path d="M0 0 C1.89213369 2.38573379 3.02391783 4.07175348 4 7 C1.65147472 8.17426264 0.26225935 8.11508173 -2.3515625 8.09765625 C-3.20234375 8.09443359 -4.053125 8.09121094 -4.9296875 8.08789062 C-5.81914062 8.07951172 -6.70859375 8.07113281 -7.625 8.0625 C-8.97078125 8.05573242 -8.97078125 8.05573242 -10.34375 8.04882812 C-12.56256648 8.03702591 -14.78125018 8.02056155 -17 8 C-17 7.67 -17 7.34 -17 7 C-13.37 7 -9.74 7 -6 7 C-6 6.34 -6 5.68 -6 5 C-4.04072937 3.2856382 -2.04119788 1.61594832 0 0 Z " fill="#454281" transform="translate(454,124)"/>
<path d="M0 0 C0.99 0 1.98 0 3 0 C2 3 2 3 -0.3125 4.25 C-3.03634563 6.02366692 -3.58195344 6.74493812 -5 9.5 C-6.75048876 12.86577717 -8.46375664 14.41799639 -12 16 C-12.66 16 -13.32 16 -14 16 C-13.6184936 13.53327368 -13.36470386 12.3144314 -11.44140625 10.65625 C-10.51134766 10.08390625 -10.51134766 10.08390625 -9.5625 9.5 C-6.6608188 7.58524499 -5.3859591 6.23390458 -4 3 C-3.01 2.67 -2.02 2.34 -1 2 C-0.67 1.34 -0.34 0.68 0 0 Z " fill="#354278" transform="translate(536,40)"/>
<path d="M0 0 C-0.64453125 0.25523437 -1.2890625 0.51046875 -1.953125 0.7734375 C-2.62859375 1.17820313 -3.3040625 1.58296875 -4 2 C-4.81870185 5.56206661 -4.81870185 5.56206661 -5 9 C-5.44730469 8.59007812 -5.89460938 8.18015625 -6.35546875 7.7578125 C-9.73744485 4.74359926 -12.579668 2.33949455 -17 1 C-17 0.67 -17 0.34 -17 0 C-11.23073111 -1.40333568 -5.81856895 -0.67296616 0 0 Z " fill="#3C3F78" transform="translate(461,210)"/>
<path d="M0 0 C0.33 0.66 0.66 1.32 1 2 C3.64 2 6.28 2 9 2 C9 3.65 9 5.3 9 7 C8.29488281 6.83628906 7.58976562 6.67257813 6.86328125 6.50390625 C3.90341312 5.98300176 1.18938727 5.90133268 -1.8125 5.9375 C-2.78832031 5.94652344 -3.76414062 5.95554687 -4.76953125 5.96484375 C-5.50558594 5.97644531 -6.24164063 5.98804688 -7 6 C-4.89229698 3.02868228 -3.40062014 1.40715316 0 0 Z " fill="#4F8EDF" transform="translate(495,42)"/>
<path d="M0 0 C0.33 0 0.66 0 1 0 C1.09507063 6.43311296 1.15316726 12.65758005 0 19 C-2.97 19 -5.94 19 -9 19 C-8.236875 18.278125 -7.47375 17.55625 -6.6875 16.8125 C-1.52812251 11.41315146 -0.4594242 7.27157612 0 0 Z " fill="#40427D" transform="translate(456,221)"/>
<path d="M0 0 C0.66 0 1.32 0 2 0 C3.5078125 1.75 3.5078125 1.75 5.125 4 C5.66382813 4.7425 6.20265625 5.485 6.7578125 6.25 C7.16773438 6.8275 7.57765625 7.405 8 8 C7.34 8 6.68 8 6 8 C6 8.66 6 9.32 6 10 C4.02 10.33 2.04 10.66 0 11 C0 7.37 0 3.74 0 0 Z " fill="#6446A2" transform="translate(592,246)"/>
<path d="M0 0 C0.66 0.33 1.32 0.66 2 1 C1.24074219 1.67546875 0.48148437 2.3509375 -0.30078125 3.046875 C-1.30485689 3.94772791 -2.30875372 4.84878014 -3.3125 5.75 C-3.81201172 6.1934375 -4.31152344 6.636875 -4.82617188 7.09375 C-7.01172149 9.06219203 -8.97272508 10.96330507 -10.73046875 13.328125 C-11.14941406 13.87984375 -11.56835938 14.4315625 -12 15 C-12.66 15 -13.32 15 -14 15 C-13.67 13.02 -13.34 11.04 -13 9 C-12.05125 8.7525 -11.1025 8.505 -10.125 8.25 C-6.52372681 6.80949073 -6.50819697 6.31803333 -5 3 C-2.5 1.1875 -2.5 1.1875 0 0 Z " fill="#375893" transform="translate(382,141)"/>
<path d="M0 0 C0.99 0.33 1.98 0.66 3 1 C0.61042731 4.24299151 -1.2047869 6.50902342 -5 8 C-5 9.65 -5 11.3 -5 13 C-7.31 13.33 -9.62 13.66 -12 14 C-8.72905967 8.54843278 -4.58146674 4.38130557 0 0 Z " fill="#3C5B9D" transform="translate(517,18)"/>
<path d="M0 0 C0.515625 0.165 1.03125 0.33 1.5625 0.5 C6.45328112 1.50323715 11.17298434 1.17018562 16 0 C15.67 1.32 15.34 2.64 15 4 C15 3.34 15 2.68 15 2 C14.01 2 13.02 2 12 2 C11.67 3.32 11.34 4.64 11 6 C9.68 6.33 8.36 6.66 7 7 C7 6.34 7 5.68 7 5 C6.01 5 5.02 5 4 5 C4 4.34 4 3.68 4 3 C3.01 3 2.02 3 1 3 C0.67 2.01 0.34 1.02 0 0 Z " fill="#3D4279" transform="translate(216,130)"/>
<path d="M0 0 C0.66 0.33 1.32 0.66 2 1 C1.67257812 1.70511719 1.34515625 2.41023438 1.0078125 3.13671875 C-0.08400722 6.23867167 -0.20385396 8.54006053 -0.125 11.8125 C-0.10695313 12.78832031 -0.08890625 13.76414062 -0.0703125 14.76953125 C-0.04710937 15.50558594 -0.02390625 16.24164063 0 17 C-3.8984375 14.2578125 -3.8984375 14.2578125 -4.8125 11.9375 C-5 10 -5 10 -4 8 C-3.9603287 6.33380554 -3.95615553 4.66608987 -4 3 C-3.01 3 -2.02 3 -1 3 C-0.67 2.01 -0.34 1.02 0 0 Z " fill="#9159DD" transform="translate(590,269)"/>
<path d="M0 0 C1.98 0 3.96 0 6 0 C6.33 0.99 6.66 1.98 7 3 C3.7 5.31 0.4 7.62 -3 10 C-4 7 -4 7 -3.0625 4.8125 C-2.711875 4.214375 -2.36125 3.61625 -2 3 C-1.01 3 -0.02 3 1 3 C0.67 2.01 0.34 1.02 0 0 Z " fill="#B67AEF" transform="translate(594,264)"/>
<path d="M0 0 C3 1 3 1 5 2 C5.3125 4.75 5.3125 4.75 5 8 C2.5 10.375 2.5 10.375 0 12 C0 8.04 0 4.08 0 0 Z " fill="#47B3DF" transform="translate(184,56)"/>
<path d="M0 0 C2.97 0 5.94 0 9 0 C7.90101298 3.29696105 7.05402613 4.04670589 4.4375 6.1875 C3.79683594 6.71730469 3.15617188 7.24710938 2.49609375 7.79296875 C2.00238281 8.19128906 1.50867188 8.58960938 1 9 C-0.06546953 5.8035914 -0.07427838 3.34252724 0 0 Z " fill="#384777" transform="translate(160,40)"/>
<path d="M0 0 C0.66 0 1.32 0 2 0 C2 0.99 2 1.98 2 3 C2.825 2.835 3.65 2.67 4.5 2.5 C8.41272317 1.94103955 12.05183173 1.93192813 16 2 C16 2.33 16 2.66 16 3 C14.89591797 3.11214844 14.89591797 3.11214844 13.76953125 3.2265625 C6.98394867 4.00042464 6.98394867 4.00042464 1.875 8.125 C1.25625 9.07375 0.6375 10.0225 0 11 C-0.33 11 -0.66 11 -1 11 C-1.14285714 3.57142857 -1.14285714 3.57142857 0 0 Z " fill="#3A5584" transform="translate(428,153)"/>
<path d="M0 0 C0.66 0 1.32 0 2 0 C2.05416188 1.60379341 2.09286638 3.20811406 2.125 4.8125 C2.14820313 5.70582031 2.17140625 6.59914063 2.1953125 7.51953125 C2 10 2 10 0 13 C-0.99 13 -1.98 13 -3 13 C-2.67 10.03 -2.34 7.06 -2 4 C-1.34 4 -0.68 4 0 4 C0 2.68 0 1.36 0 0 Z " fill="#505FB7" transform="translate(587,118)"/>
<path d="M0 0 C2.4375 0.375 2.4375 0.375 5 1 C5.33 1.66 5.66 2.32 6 3 C9.3 2.67 12.6 2.34 16 2 C16 2.66 16 3.32 16 4 C16.66 4.33 17.32 4.66 18 5 C14.26025568 6.86987216 9.53209172 6.30641834 5.5 5.5 C5.005 5.335 4.51 5.17 4 5 C4 4.34 4 3.68 4 3 C2.68 2.34 1.36 1.68 0 1 C0 0.67 0 0.34 0 0 Z " fill="#46A6D9" transform="translate(430,17)"/>
<path d="M0 0 C0.66 0.33 1.32 0.66 2 1 C2.59765625 3.58203125 2.59765625 3.58203125 3.0625 6.8125 C3.57099229 10.26268323 4.07902227 13.63394865 5 17 C4.34 17 3.68 17 3 17 C2.34 18.32 1.68 19.64 1 21 C0.67 20.34 0.34 19.68 0 19 C0.33 18.01 0.66 17.02 1 16 C1.53942108 9.52694707 0.59445247 6.3916787 -3 1 C-2.01 0.67 -1.02 0.34 0 0 Z " fill="#2B3D5F" transform="translate(400,104)"/>
<path d="M0 0 C-0.99 1.485 -0.99 1.485 -2 3 C-2.99 3 -3.98 3 -5 3 C-5 3.66 -5 4.32 -5 5 C-7.97 4.67 -10.94 4.34 -14 4 C-10.36515075 -1.28705346 -5.79646176 -0.3982302 0 0 Z " fill="#7964DC" transform="translate(554,210)"/>
<path d="M0 0 C3 4 3 4 3 6 C3.804375 6.28875 4.60875 6.5775 5.4375 6.875 C8 8 8 8 9 10 C8.071875 9.9175 7.14375 9.835 6.1875 9.75 C4.6096875 9.87375 4.6096875 9.87375 3 10 C2.01 11.32 1.02 12.64 0 14 C0 9.38 0 4.76 0 0 Z " fill="#3A4D84" transform="translate(263,66)"/>
<path d="M0 0 C-0.33 2.64 -0.66 5.28 -1 8 C-3 6.625 -3 6.625 -5 5 C-5 4.34 -5 3.68 -5 3 C-5.66 3 -6.32 3 -7 3 C-7.33 2.01 -7.66 1.02 -8 0 C-4.71303767 -0.79953138 -3.28976808 -1.09658936 0 0 Z " fill="#6957BE" transform="translate(314,56)"/>
<path d="M0 0 C1.2869645 2.573929 0.82866551 3.37926396 -0.0625 6.0625 C-0.9296875 8.22265625 -0.9296875 8.22265625 -2 10 C-4.6875 11 -4.6875 11 -8 11 C-9.07314453 11.01740234 -9.07314453 11.01740234 -10.16796875 11.03515625 C-12.1118653 11.05923992 -14.05624315 11.03351305 -16 11 C-16 10.67 -16 10.34 -16 10 C-15.38511719 9.89042969 -14.77023437 9.78085937 -14.13671875 9.66796875 C-13.32847656 9.50941406 -12.52023437 9.35085937 -11.6875 9.1875 C-10.88699219 9.03667969 -10.08648437 8.88585938 -9.26171875 8.73046875 C-6.74569185 7.91786593 -5.77405234 6.89891233 -4 5 C-3.34 5 -2.68 5 -2 5 C-1.34 3.35 -0.68 1.7 0 0 Z " fill="#424A87" transform="translate(346,13)"/>
<path d="M0 0 C1.98 0 3.96 0 6 0 C6 0.66 6 1.32 6 2 C5.34 2 4.68 2 4 2 C3.7525 2.78375 3.505 3.5675 3.25 4.375 C1.84610901 7.32317108 0.99324263 7.9024777 -2 9 C-2 7 -2 7 -0.5 5.375 C-0.005 4.92125 0.49 4.4675 1 4 C-0.65 4.33 -2.3 4.66 -4 5 C-4 4.01 -4 3.02 -4 2 C-2.68 2 -1.36 2 0 2 C0 1.34 0 0.68 0 0 Z " fill="#3A3D6F" transform="translate(548,187)"/>
<path d="M0 0 C-0.45375 0.433125 -0.9075 0.86625 -1.375 1.3125 C-3.20024334 3.10798342 -3.20024334 3.10798342 -5 6 C-5.33 5.67 -5.66 5.34 -6 5 C-6.66 5.66 -7.32 6.32 -8 7 C-8.99 6.67 -9.98 6.34 -11 6 C-10.67 5.01 -10.34 4.02 -10 3 C-9.34 3 -8.68 3 -8 3 C-8 2.34 -8 1.68 -8 1 C-4.93251126 -0.86240388 -3.40254489 -1.2151946 0 0 Z " fill="#498FE3" transform="translate(548,157)"/>
<path d="M0 0 C-1.91135386 3.53600465 -3.62642766 5.78972846 -7 8 C-7.66 7.67 -8.32 7.34 -9 7 C-9 6.34 -9 5.68 -9 5 C-8.34 5 -7.68 5 -7 5 C-7 4.34 -7 3.68 -7 3 C-7.66 3 -8.32 3 -9 3 C-9 2.34 -9 1.68 -9 1 C-5.8035914 -0.06546953 -3.34252724 -0.07427838 0 0 Z " fill="#4C74CB" transform="translate(522,56)"/>
<path d="M0 0 C0.33 0.99 0.66 1.98 1 3 C-1.31 4.98 -3.62 6.96 -6 9 C-5.67 7.02 -5.34 5.04 -5 3 C-5.66 3 -6.32 3 -7 3 C-7 3.66 -7 4.32 -7 5 C-7.66 5 -8.32 5 -9 5 C-8.67 4.01 -8.34 3.02 -8 2 C-6.15234375 1.26953125 -6.15234375 1.26953125 -3.9375 0.8125 C-3.20402344 0.65394531 -2.47054687 0.49539062 -1.71484375 0.33203125 C-1.14894531 0.22246094 -0.58304688 0.11289062 0 0 Z " fill="#3B7DA9" transform="translate(202,47)"/>
<path d="M0 0 C1.98 0.495 1.98 0.495 4 1 C3.125 5.875 3.125 5.875 2 7 C2.08937803 8.52519276 2.24537146 10.04681929 2.4375 11.5625 C2.53933594 12.38878906 2.64117187 13.21507812 2.74609375 14.06640625 C2.82988281 14.70449219 2.91367187 15.34257812 3 16 C0.89400659 14.27897313 0.07225894 13.31381027 -0.546875 10.625 C-0.61390625 9.75875 -0.6809375 8.8925 -0.75 8 C-0.82734375 7.13375 -0.9046875 6.2675 -0.984375 5.375 C-1 3 -1 3 0 0 Z " fill="#47B9DC" transform="translate(427,1)"/>
<path d="M0 0 C0 2.31 0 4.62 0 7 C-3.32534757 8.10844919 -5.62182575 7.84454356 -9 7 C-3.84210526 0 -3.84210526 0 0 0 Z " fill="#3C9DB5" transform="translate(179,33)"/>
<path d="M0 0 C1.44207941 2.88415883 1.09394887 5.41721528 1.0625 8.625 C1.05347656 9.81351563 1.04445313 11.00203125 1.03515625 12.2265625 C1.02355469 13.14179688 1.01195312 14.05703125 1 15 C-0.65 14.01 -2.3 13.02 -4 12 C-3.5317879 7.22423661 -2.75668002 3.95523655 0 0 Z " fill="#49498E" transform="translate(590,0)"/>
<path d="M0 0 C0.66 1.32 1.32 2.64 2 4 C1.01 4 0.02 4 -1 4 C-1.66 6.97 -2.32 9.94 -3 13 C-2.34 13 -1.68 13 -1 13 C-1.33 14.65 -1.66 16.3 -2 18 C-4.57399511 15.42600489 -4.32659936 14.26430716 -4.375 10.6875 C-4.32271014 6.70301293 -4.170935 5.27242766 -2 1.8125 C-1.34 1.214375 -0.68 0.61625 0 0 Z " fill="#86D0F3" transform="translate(485,51)"/>
<path d="M0 0 C0.66 0.33 1.32 0.66 2 1 C0.7934375 1.86625 0.7934375 1.86625 -0.4375 2.75 C-4.55042128 6.73511864 -3.90575435 12.62799777 -4 18 C-4.66 17.67 -5.32 17.34 -6 17 C-6.21094896 10.77700574 -6.28492876 6.48654012 -1.875 1.6875 C-1.25625 1.130625 -0.6375 0.57375 0 0 Z " fill="#393C6D" transform="translate(214,49)"/>
<path d="M0 0 C1.4606285 2.64738916 2 3.89448334 2 7 C3.32 7.33 4.64 7.66 6 8 C5.34 8 4.68 8 4 8 C4 8.99 4 9.98 4 11 C1.5 12.6875 1.5 12.6875 -1 14 C-1.02685938 11.85423363 -1.04633088 9.70837355 -1.0625 7.5625 C-1.07410156 6.36753906 -1.08570313 5.17257813 -1.09765625 3.94140625 C-1 1 -1 1 0 0 Z " fill="#3D4277" transform="translate(566,217)"/>
<path d="M0 0 C0.33 0.66 0.66 1.32 1 2 C-1.66666667 4.66666667 -4.33333333 7.33333333 -7 10 C-7.66 9.67 -8.32 9.34 -9 9 C-7.55536047 5.62917442 -5.75336875 3.41962708 -3 1 C-2.01 0.67 -1.02 0.34 0 0 Z M-11 10 C-10.34 10.33 -9.68 10.66 -9 11 C-9.99 11.66 -10.98 12.32 -12 13 C-12.33 12.34 -12.66 11.68 -13 11 C-12.34 10.67 -11.68 10.34 -11 10 Z " fill="#37447B" transform="translate(351,131)"/>
<path d="M0 0 C0.66 0.33 1.32 0.66 2 1 C1 4 1 4 0 6 C-0.66 6 -1.32 6 -2 6 C-2.66 9.3 -3.32 12.6 -4 16 C-4.33 16 -4.66 16 -5 16 C-5.29209024 10.35292212 -5.0637112 6.94907193 -2 2 C-1.34 1.34 -0.68 0.68 0 0 Z " fill="#71DFEC" transform="translate(159,50)"/>
<path d="M0 0 C1.35439668 2.70879335 1.06501451 5.00933268 1 8 C-0.32 7.67 -1.64 7.34 -3 7 C-3 6.34 -3 5.68 -3 5 C-2.34 5 -1.68 5 -1 5 C-1 4.34 -1 3.68 -1 3 C-3.97 2.505 -3.97 2.505 -7 2 C-5.26578631 -1.46842738 -3.40984787 -1.13661596 0 0 Z " fill="#40B4CB" transform="translate(175,40)"/>
<path d="M0 0 C1.43791516 0.14168137 2.8753237 0.28851043 4.3125 0.4375 C5.11300781 0.51871094 5.91351563 0.59992188 6.73828125 0.68359375 C9 1 9 1 12 2 C13.66362417 2.34820041 15.32995171 2.68404492 17 3 C16.01 4.485 16.01 4.485 15 6 C14.01 5.67 13.02 5.34 12 5 C9.42917348 4.54166788 6.85529 4.11172085 4.27734375 3.6953125 C2 3 2 3 0 0 Z " fill="#53B2D7" transform="translate(376,128)"/>
<path d="M0 0 C1.31157516 2.62315032 0.89649988 4.23033436 0.5625 7.125 C0.46066406 8.03507812 0.35882813 8.94515625 0.25390625 9.8828125 C0.17011719 10.58148438 0.08632813 11.28015625 0 12 C-0.99 11.67 -1.98 11.34 -3 11 C-3 10.34 -3 9.68 -3 9 C-3.66 9 -4.32 9 -5 9 C-5 8.34 -5 7.68 -5 7 C-4.34 6.67 -3.68 6.34 -3 6 C-2.29788106 4.34795544 -1.63028587 2.68076231 -1 1 C-0.67 0.67 -0.34 0.34 0 0 Z " fill="#4497D1" transform="translate(372,109)"/>
<path d="M0 0 C0 0.33 0 0.66 0 1 C-4.455 1.495 -4.455 1.495 -9 2 C-9.33 2.99 -9.66 3.98 -10 5 C-10.99 5.66 -11.98 6.32 -13 7 C-13.99 6.67 -14.98 6.34 -16 6 C-12.61538462 1.28571429 -12.61538462 1.28571429 -10.25 0.1875 C-6.82383635 -0.09801364 -3.43784799 -0.05729747 0 0 Z " fill="#4F87DD" transform="translate(336,101)"/>
<path d="M0 0 C1.27230469 0.01804687 2.54460938 0.03609375 3.85546875 0.0546875 C5.31919922 0.08949219 5.31919922 0.08949219 6.8125 0.125 C6.8125 0.455 6.8125 0.785 6.8125 1.125 C6.07644531 1.15078125 5.34039063 1.1765625 4.58203125 1.203125 C-3.10691156 1.61560043 -3.10691156 1.61560043 -9.1875 6.125 C-9.5175 4.805 -9.8475 3.485 -10.1875 2.125 C-6.4507157 -0.36618953 -4.44298181 -0.0815226 0 0 Z " fill="#6F7DD5" transform="translate(601.1875,100.875)"/>
<path d="M0 0 C3 2 3 2 3.6875 5.125 C3.790625 6.07375 3.89375 7.0225 4 8 C1.69 7.67 -0.62 7.34 -3 7 C-3 5.68 -3 4.36 -3 3 C-2.01 3 -1.02 3 0 3 C0 3.99 0 4.98 0 6 C0.66 6 1.32 6 2 6 C1.34 4.02 0.68 2.04 0 0 Z " fill="#45B5DA" transform="translate(452,160)"/>
<path d="M0 0 C0.99 0 1.98 0 3 0 C3 3.63 3 7.26 3 11 C0.5 8.6875 0.5 8.6875 -2 6 C-2 5.01 -2 4.02 -2 3 C-1.34 2.67 -0.68 2.34 0 2 C0.66 2.33 1.32 2.66 2 3 C2 2.34 2 1.68 2 1 C1.34 0.67 0.68 0.34 0 0 Z " fill="#3D487C" transform="translate(453,154)"/>
<path d="M0 0 C0.33 0 0.66 0 1 0 C1.57774839 4.40533151 2 8.5567849 2 13 C1.01 13 0.02 13 -1 13 C-1.22245393 11.39773045 -1.42746669 9.79303233 -1.625 8.1875 C-1.74101562 7.29417969 -1.85703125 6.40085937 -1.9765625 5.48046875 C-2 3 -2 3 0 0 Z " fill="#5EC4DE" transform="translate(374,115)"/>
<path d="M0 0 C-0.37507382 2.71928517 -0.84218661 3.84218661 -2.8125 5.8125 C-5 7 -5 7 -7.13671875 6.57421875 C-7.75160156 6.38472656 -8.36648438 6.19523437 -9 6 C-8.07213211 4.99105628 -7.13231567 3.99309093 -6.1875 3 C-5.66542969 2.443125 -5.14335937 1.88625 -4.60546875 1.3125 C-3 0 -3 0 0 0 Z " fill="#303E69" transform="translate(513,68)"/>
<path d="M0 0 C0.33 0.99 0.66 1.98 1 3 C-0.65 4.32 -2.3 5.64 -4 7 C-4.33 6.01 -4.66 5.02 -5 4 C-5.99 4.99 -6.98 5.98 -8 7 C-8.66 6.67 -9.32 6.34 -10 6 C-4.4 0 -4.4 0 0 0 Z " fill="#336C88" transform="translate(191,22)"/>
<path d="M0 0 C0.53109375 0.30679687 1.0621875 0.61359375 1.609375 0.9296875 C4.48140083 2.21552913 7.14230539 2.65208995 10.25 3.125 C11.32765625 3.29257812 12.4053125 3.46015625 13.515625 3.6328125 C14.74539063 3.81457031 14.74539063 3.81457031 16 4 C16 4.33 16 4.66 16 5 C10.72 5 5.44 5 0 5 C0 3.35 0 1.7 0 0 Z " fill="#4B3F73" transform="translate(592,290)"/>
<path d="M0 0 C0.33 0.66 0.66 1.32 1 2 C0 5 0 5 -2 7 C-2.433125 7.515625 -2.86625 8.03125 -3.3125 8.5625 C-5.45570611 10.38819409 -7.24801123 10.62810963 -10 11 C-9.34 10.01 -8.68 9.02 -8 8 C-7.34 8 -6.68 8 -6 8 C-5.67 7.01 -5.34 6.02 -5 5 C-3.37347684 3.29413425 -1.70993434 1.6222454 0 0 Z " fill="#2F396E" transform="translate(522,56)"/>
<path d="M0 0 C2.64 1.65 5.28 3.3 8 5 C6 7 6 7 2.875 7.125 C1.451875 7.063125 1.451875 7.063125 0 7 C0 4.69 0 2.38 0 0 Z " fill="#3E417C" transform="translate(592,17)"/>
<path d="M0 0 C0.66 0.33 1.32 0.66 2 1 C0.95125002 3.62187494 0.35068687 4.79371361 -2.125 6.25 C-2.74375 6.4975 -3.3625 6.745 -4 7 C-4 7.66 -4 8.32 -4 9 C-5.98 9.99 -5.98 9.99 -8 11 C-7.52653165 6.73878485 -5.03860562 4.81626862 -2 2 C-1.34 1.34 -0.68 0.68 0 0 Z " fill="#2B3C60" transform="translate(198,9)"/>
<path d="M0 0 C2 2 2 2 2.265625 4.75 C2.25789063 6.35875 2.25789063 6.35875 2.25 8 C2.25515625 9.0725 2.2603125 10.145 2.265625 11.25 C2 14 2 14 0 16 C-1.125 10.25 -1.125 10.25 0 8 C-0.33 7.01 -0.66 6.02 -1 5 C-0.5625 2.3125 -0.5625 2.3125 0 0 Z " fill="#49A7DE" transform="translate(454,0)"/>
<path d="M0 0 C3.91402949 1.26941497 5.79072873 2.51167694 8 6 C7.34 6 6.68 6 6 6 C5.67 6.66 5.34 7.32 5 8 C4.34 7.67 3.68 7.34 3 7 C2.67 7.66 2.34 8.32 2 9 C1.855625 7.88625 1.71125 6.7725 1.5625 5.625 C1.21627965 2.17857953 1.21627965 2.17857953 0 0 Z " fill="#8954D3" transform="translate(598,254)"/>
<path d="M0 0 C0.66 0 1.32 0 2 0 C5.00559652 5.00932754 5.29341888 8.32723489 5 14 C4.67 14 4.34 14 4 14 C3.896875 13.071875 3.79375 12.14375 3.6875 11.1875 C3.30664051 8.02428277 3.30664051 8.02428277 1.4375 6.4375 C0 5 0 5 -0.1875 2.3125 C-0.125625 1.549375 -0.06375 0.78625 0 0 Z " fill="#7D63D8" transform="translate(560,214)"/>
<path d="M0 0 C0.66 0.33 1.32 0.66 2 1 C2.0809723 3.43816585 2.14046972 5.87364384 2.1875 8.3125 C2.22520508 9.34793945 2.22520508 9.34793945 2.26367188 10.40429688 C2.33834499 15.55674183 2.33834499 15.55674183 0.48828125 17.98046875 C-0.00285156 18.31691406 -0.49398437 18.65335938 -1 19 C-1 16 -1 16 0 14 C0.09585131 12.35643193 0.12983511 10.70885358 0.125 9.0625 C0.12757813 8.18722656 0.13015625 7.31195313 0.1328125 6.41015625 C0.09822003 3.85540944 0.09822003 3.85540944 -1 1 C-0.67 0.67 -0.34 0.34 0 0 Z " fill="#283969" transform="translate(564,162)"/>
<path d="M0 0 C0.78375 0.185625 1.5675 0.37125 2.375 0.5625 C4.97089775 1.25962266 4.97089775 1.25962266 7 0 C6 3 6 3 3 5 C2.67 5.99 2.34 6.98 2 8 C1.01 7.67 0.02 7.34 -1 7 C-0.67 4.69 -0.34 2.38 0 0 Z " fill="#393A69" transform="translate(349,114)"/>
<path d="M0 0 C0 0.66 0 1.32 0 2 C-0.99 2.495 -0.99 2.495 -2 3 C-1.01 4.485 -1.01 4.485 0 6 C-0.33 6.66 -0.66 7.32 -1 8 C-2.32 8 -3.64 8 -5 8 C-5 7.34 -5 6.68 -5 6 C-5.66 5.67 -6.32 5.34 -7 5 C-2.25 0 -2.25 0 0 0 Z " fill="#69CCE0" transform="translate(380,103)"/>
<path d="M0 0 C0.33 0 0.66 0 1 0 C1 5.28 1 10.56 1 16 C0.34 16 -0.32 16 -1 16 C-1.33 13.36 -1.66 10.72 -2 8 C-1.34 8 -0.68 8 0 8 C0 5.36 0 2.72 0 0 Z " fill="#2E274B" transform="translate(261,56)"/>
<path d="M0 0 C0.33 0.66 0.66 1.32 1 2 C0.34 2 -0.32 2 -1 2 C-1.0825 2.5775 -1.165 3.155 -1.25 3.75 C-2.225982 6.67794601 -3.63511223 8.05244537 -6 10 C-6.99 10 -7.98 10 -9 10 C-9 9.34 -9 8.68 -9 8 C-7.52999567 6.72599625 -6.05484219 5.4564992 -4.53515625 4.2421875 C-2.90933658 2.92663876 -1.43797979 1.51786755 0 0 Z " fill="#2F3764" transform="translate(367,156)"/>
<path d="M0 0 C2.64 0.33 5.28 0.66 8 1 C8.33 1.99 8.66 2.98 9 4 C8.01 4.33 7.02 4.66 6 5 C6 4.34 6 3.68 6 3 C5.34 3 4.68 3 4 3 C4 3.66 4 4.32 4 5 C3.01 5 2.02 5 1 5 C0.67 3.35 0.34 1.7 0 0 Z " fill="#4091CA" transform="translate(381,131)"/>
<path d="M0 0 C1.79158489 -0.02696365 3.58328473 -0.04637917 5.375 -0.0625 C6.37273437 -0.07410156 7.37046875 -0.08570312 8.3984375 -0.09765625 C11 0 11 0 13 1 C13 1.66 13 2.32 13 3 C11.58376784 3.05447047 10.16691809 3.09300508 8.75 3.125 C7.96109375 3.14820312 7.1721875 3.17140625 6.359375 3.1953125 C3.79268059 2.9828378 2.2083933 2.28654105 0 1 C0 0.67 0 0.34 0 0 Z " fill="#89BFEB" transform="translate(487,74)"/>
<path d="M0 0 C1.32 0 2.64 0 4 0 C4 0.66 4 1.32 4 2 C10.93 1.01 10.93 1.01 18 0 C17.67 0.99 17.34 1.98 17 3 C14.72975032 3.08097324 12.45867925 3.13917704 10.1875 3.1875 C8.29064453 3.23970703 8.29064453 3.23970703 6.35546875 3.29296875 C3 3 3 3 1.05078125 1.48828125 C0.70402344 0.99714844 0.35726562 0.50601562 0 0 Z " fill="#333665" transform="translate(160,20)"/>
<path d="M0 0 C0.99 0.33 1.98 0.66 3 1 C3.33 1.99 3.66 2.98 4 4 C2.25 5.5625 2.25 5.5625 0 7 C-2.25 6.6875 -2.25 6.6875 -4 6 C-3.67 5.34 -3.34 4.68 -3 4 C-2.01 4 -1.02 4 0 4 C0 2.68 0 1.36 0 0 Z " fill="#78E5F5" transform="translate(176,69)"/>
<path d="M0 0 C0.66 0 1.32 0 2 0 C2.18175781 0.84884766 2.18175781 0.84884766 2.3671875 1.71484375 C2.53476562 2.44832031 2.70234375 3.18179688 2.875 3.9375 C3.03742187 4.66839844 3.19984375 5.39929687 3.3671875 6.15234375 C3.82961523 8.20700294 3.82961523 8.20700294 6 9 C4.625 11 4.625 11 3 13 C2.34 13 1.68 13 1 13 C1.020625 11.783125 1.04125 10.56625 1.0625 9.3125 C1.06824116 6.08022678 0.78766315 3.15065259 0 0 Z " fill="#5A8AE3" transform="translate(509,55)"/>
<path d="M0 0 C0.33 0 0.66 0 1 0 C1 4.29 1 8.58 1 13 C0.01 13.33 -0.98 13.66 -2 14 C-2 14.66 -2 15.32 -2 16 C-2.66 15.67 -3.32 15.34 -4 15 C-3.67 14.01 -3.34 13.02 -3 12 C-2.34 12 -1.68 12 -1 12 C-0.67 8.04 -0.34 4.08 0 0 Z " fill="#343766" transform="translate(510,220)"/>
<path d="M0 0 C2.3125 0.8125 2.3125 0.8125 4 2 C2.625 4 2.625 4 1 6 C0.34 6 -0.32 6 -1 6 C-1.33 5.01 -1.66 4.02 -2 3 C-2.99 3 -3.98 3 -5 3 C-2.75 1.375 -2.75 1.375 0 0 Z " fill="#368DA6" transform="translate(180,31)"/>
<path d="M0 0 C2.64 0 5.28 0 8 0 C7.34 1.98 6.68 3.96 6 6 C3.97945196 4.35830472 1.97956942 2.69088222 0 1 C0 0.67 0 0.34 0 0 Z " fill="#7951BD" transform="translate(576,272)"/>
<path d="M0 0 C0.99 0 1.98 0 3 0 C3 1.98 3 3.96 3 6 C2.01 6 1.02 6 0 6 C-0.66 4.68 -1.32 3.36 -2 2 C-1.34 2 -0.68 2 0 2 C0 1.34 0 0.68 0 0 Z M-4 4 C-3.01 4.495 -3.01 4.495 -2 5 C-2.99 5.495 -2.99 5.495 -4 6 C-4 5.34 -4 4.68 -4 4 Z " fill="#3B3D6F" transform="translate(528,170)"/>
<path d="M0 0 C3.63 0 7.26 0 11 0 C10.67 0.99 10.34 1.98 10 3 C9.01 3 8.02 3 7 3 C7 2.34 7 1.68 7 1 C5.8553125 1.495 5.8553125 1.495 4.6875 2 C2 3 2 3 -1 3 C-0.67 2.01 -0.34 1.02 0 0 Z " fill="#3FD4E4" transform="translate(435,157)"/>
<path d="M0 0 C0.66 0 1.32 0 2 0 C2.33 0.99 2.66 1.98 3 3 C1.25 4.5625 1.25 4.5625 -1 6 C-3.25 5.6875 -3.25 5.6875 -5 5 C-4.34 4.01 -3.68 3.02 -3 2 C-2.01 2 -1.02 2 0 2 C0 1.34 0 0.68 0 0 Z " fill="#3D85BF" transform="translate(385,134)"/>
<path d="M0 0 C0.90105469 0.00902344 1.80210937 0.01804687 2.73046875 0.02734375 C3.41753906 0.03894531 4.10460937 0.05054687 4.8125 0.0625 C2.5796123 2.2953877 1.89340185 2.43028152 -1.125 2.8125 C-1.81464844 2.91046875 -2.50429688 3.0084375 -3.21484375 3.109375 C-5.1875 3.0625 -5.1875 3.0625 -8.1875 1.0625 C-5.17259443 0.05753148 -3.14568308 -0.04085303 0 0 Z " fill="#505FB2" transform="translate(589.1875,100.9375)"/>
<path d="M0 0 C0.99 0 1.98 0 3 0 C3 0.66 3 1.32 3 2 C3.639375 2.2475 4.27875 2.495 4.9375 2.75 C7 4 7 4 7.75 6.125 C7.8325 6.74375 7.915 7.3625 8 8 C6 8 6 8 3.4375 5.6875 C1 3 1 3 0 0 Z " fill="#533F8A" transform="translate(568,264)"/>
<path d="M0 0 C-0.99 0.495 -0.99 0.495 -2 1 C-2 1.66 -2 2.32 -2 3 C-3.98 3.33 -5.96 3.66 -8 4 C-7.625 2.0625 -7.625 2.0625 -7 0 C-4.3333581 -1.33332095 -2.83319697 -0.67102033 0 0 Z " fill="#754DBA" transform="translate(600,253)"/>
<path d="M0 0 C0.33 0.99 0.66 1.98 1 3 C2.65 3.33 4.3 3.66 6 4 C6 4.33 6 4.66 6 5 C2.37 5 -1.26 5 -5 5 C-3.35 3.35 -1.7 1.7 0 0 Z " fill="#414484" transform="translate(551,205)"/>
<path d="M0 0 C0.99 0.33 1.98 0.66 3 1 C0.11593757 4.40843742 -1.3708265 5.86591384 -5.8125 6.8125 C-7.3903125 6.9053125 -7.3903125 6.9053125 -9 7 C-6 5 -6 5 -3.9375 4.0625 C-1.67738896 3.01748702 -1.67738896 3.01748702 0 0 Z " fill="#314078" transform="translate(345,124)"/>
<path d="M0 0 C2.64 0.33 5.28 0.66 8 1 C8 1.33 8 1.66 8 2 C6.865625 2.12375 5.73125 2.2475 4.5625 2.375 C2.7990625 2.684375 2.7990625 2.684375 1 3 C0.67 3.66 0.34 4.32 0 5 C-1.32 4.67 -2.64 4.34 -4 4 C-3.01 3.67 -2.02 3.34 -1 3 C-0.67 2.01 -0.34 1.02 0 0 Z " fill="#54D4E1" transform="translate(164,45)"/>
<path d="M0 0 C0.66 0 1.32 0 2 0 C2 0.66 2 1.32 2 2 C2.928125 2.1546875 2.928125 2.1546875 3.875 2.3125 C6 3 6 3 8 6 C5.03 5.67 2.06 5.34 -1 5 C-0.34 4.67 0.32 4.34 1 4 C0.67 2.68 0.34 1.36 0 0 Z " fill="#8766D8" transform="translate(331,42)"/>
<path d="M0 0 C0.99 0.33 1.98 0.66 3 1 C0.11658466 5.21422242 -2.04303419 6.76075855 -7 8 C-6.02133662 6.85373678 -5.04205413 5.70800212 -4.0625 4.5625 C-3.51722656 3.92441406 -2.97195313 3.28632813 -2.41015625 2.62890625 C-1.63204305 1.73008851 -0.84063472 0.84063472 0 0 Z " fill="#33467C" transform="translate(517,18)"/>
<path d="M0 0 C0.66 0.33 1.32 0.66 2 1 C1.67 4.96 1.34 8.92 1 13 C0.01 13.33 -0.98 13.66 -2 14 C-1.34 9.38 -0.68 4.76 0 0 Z " fill="#34426E" transform="translate(456,4)"/>
<path d="M0 0 C2.62187494 1.04874998 3.79371361 1.64931313 5.25 4.125 C5.4975 4.74375 5.745 5.3625 6 6 C2.25 7.125 2.25 7.125 0 6 C0.99 5.67 1.98 5.34 3 5 C2.04134491 2.66924071 2.04134491 2.66924071 -1 1 C-0.67 0.67 -0.34 0.34 0 0 Z " fill="#4A3A7F" transform="translate(586,240)"/>
<path d="M0 0 C0.66 0.33 1.32 0.66 2 1 C2.625 3.5625 2.625 3.5625 3 6 C2.44828125 5.68289062 1.8965625 5.36578125 1.328125 5.0390625 C-1.28477989 3.87290025 -3.40579002 3.59954289 -6.25 3.375 C-7.14203125 3.30023438 -8.0340625 3.22546875 -8.953125 3.1484375 C-9.96632813 3.07496094 -9.96632813 3.07496094 -11 3 C-11 2.67 -11 2.34 -11 2 C-10.28972656 1.93941406 -9.57945312 1.87882813 -8.84765625 1.81640625 C-7.46900391 1.69072266 -7.46900391 1.69072266 -6.0625 1.5625 C-5.14597656 1.48128906 -4.22945312 1.40007812 -3.28515625 1.31640625 C-1.03840268 1.23955024 -1.03840268 1.23955024 0 0 Z " fill="#304579" transform="translate(557,153)"/>
<path d="M0 0 C3 4 3 4 4 7 C3.67 7.66 3.34 8.32 3 9 C1.68 9.33 0.36 9.66 -1 10 C-0.67 6.7 -0.34 3.4 0 0 Z " fill="#24274C" transform="translate(348,62)"/>
<path d="M0 0 C1.65 0.33 3.3 0.66 5 1 C4.625 3.4375 4.625 3.4375 4 6 C3.01 6.495 3.01 6.495 2 7 C2 5.35 2 3.7 2 2 C1.01 2.33 0.02 2.66 -1 3 C-0.67 2.01 -0.34 1.02 0 0 Z " fill="#429FCF" transform="translate(187,56)"/>
<path d="M0 0 C0.66 0 1.32 0 2 0 C2.33 0.99 2.66 1.98 3 3 C1.35 4.65 -0.3 6.3 -2 8 C-2.6875 6.25 -2.6875 6.25 -3 4 C-1.6875 1.75 -1.6875 1.75 0 0 Z " fill="#2E3A60" transform="translate(483,48)"/>
<path d="M0 0 C0.33 0.66 0.66 1.32 1 2 C3.02463255 2.65213292 3.02463255 2.65213292 5 3 C3.56342755 3.33730842 2.12569907 3.66969591 0.6875 4 C-0.51326172 4.2784375 -0.51326172 4.2784375 -1.73828125 4.5625 C-4 5 -4 5 -7 5 C-4.87219421 2.65941363 -2.88437779 1.29299694 0 0 Z " fill="#4982D6" transform="translate(495,42)"/>
<path d="M0 0 C1.65 0 3.3 0 5 0 C4.01 1.485 4.01 1.485 3 3 C3.495 3.45375 3.99 3.9075 4.5 4.375 C6 6 6 6 6 8 C5.34 8 4.68 8 4 8 C0 3.64705882 0 3.64705882 0 0 Z " fill="#413773" transform="translate(562,256)"/>
<path d="M0 0 C0 0.66 0 1.32 0 2 C-0.99 2.495 -0.99 2.495 -2 3 C-2.72159424 4.64363134 -3.39351421 6.31050386 -4 8 C-4.99 8 -5.98 8 -7 8 C-4.18918919 0 -4.18918919 0 0 0 Z " fill="#6268D2" transform="translate(434,212)"/>
<path d="M0 0 C0.99 0.33 1.98 0.66 3 1 C2.1875 2.9375 2.1875 2.9375 1 5 C0.01 5.33 -0.98 5.66 -2 6 C-2.33 4.68 -2.66 3.36 -3 2 C-2.01 1.34 -1.02 0.68 0 0 Z " fill="#5786EE" transform="translate(342,123)"/>
<path d="M0 0 C-0.33 0.99 -0.66 1.98 -1 3 C-3.0625 3.6875 -3.0625 3.6875 -5 4 C-5 3.34 -5 2.68 -5 2 C-6.98 2 -8.96 2 -11 2 C-11 1.67 -11 1.34 -11 1 C-7.27569643 0.30710631 -3.78916254 -0.11144596 0 0 Z " fill="#3B2F64" transform="translate(341,76)"/>
<path d="M0 0 C0.66 0.33 1.32 0.66 2 1 C1.04882866 2.1725131 0.08882991 3.33787015 -0.875 4.5 C-1.40867187 5.1496875 -1.94234375 5.799375 -2.4921875 6.46875 C-2.98976563 6.9740625 -3.48734375 7.479375 -4 8 C-4.66 8 -5.32 8 -6 8 C-5.65120368 4.74456771 -4.97866739 3.98126893 -2.4375 1.75 C-1.633125 1.1725 -0.82875 0.595 0 0 Z " fill="#445FA6" transform="translate(528,48)"/>
<path d="M0 0 C1.98 0 3.96 0 6 0 C6.66666667 2.66666667 7.33333333 5.33333333 8 8 C4.22471696 6.74157232 3.89332955 5.37506571 2 2 C1.34 1.34 0.68 0.68 0 0 Z " fill="#4ABEDA" transform="translate(176,48)"/>
<path d="M0 0 C0.93423645 3.01031744 1.04449911 3.86650268 0 7 C-2.31 6.67 -4.62 6.34 -7 6 C-6.01 5.67 -5.02 5.34 -4 5 C-3.34 5.33 -2.68 5.66 -2 6 C-1.855625 5.195625 -1.71125 4.39125 -1.5625 3.5625 C-1 1 -1 1 0 0 Z " fill="#8A66F3" transform="translate(562,227)"/>
<path d="M0 0 C0 3.57575896 -1.08840607 5.05295935 -3 8 C-4.32 7.67 -5.64 7.34 -7 7 C-4.69 4.69 -2.38 2.38 0 0 Z " fill="#2A3461" transform="translate(380,144)"/>
<path d="M0 0 C0.66 0.99 1.32 1.98 2 3 C0.8125 4.5 0.8125 4.5 -1 6 C-3.6875 6.1875 -3.6875 6.1875 -6 6 C-4 4 -2 2 0 0 Z " fill="#293761" transform="translate(390,134)"/>
<path d="M0 0 C1.89213369 2.38573379 3.02391783 4.07175348 4 7 C3.01 7.33 2.02 7.66 1 8 C0.34 7.34 -0.32 6.68 -1 6 C-0.625 2.875 -0.625 2.875 0 0 Z " fill="#606FC9" transform="translate(589,120)"/>
<path d="M0 0 C0.66 0 1.32 0 2 0 C2.6875 2.8125 2.6875 2.8125 3 6 C2.01 6.99 1.02 7.98 0 9 C0 6.03 0 3.06 0 0 Z " fill="#454585" transform="translate(456,112)"/>
<path d="M0 0 C0.66 0.33 1.32 0.66 2 1 C1.67 5.29 1.34 9.58 1 14 C0.67 14 0.34 14 0 14 C-0.06058594 13.31292969 -0.12117188 12.62585938 -0.18359375 11.91796875 C-0.26738281 11.01691406 -0.35117187 10.11585937 -0.4375 9.1875 C-0.51871094 8.29417969 -0.59992188 7.40085937 -0.68359375 6.48046875 C-0.93489767 3.87256441 -0.93489767 3.87256441 -2 1 C-1.34 0.67 -0.68 0.34 0 0 Z " fill="#2A3968" transform="translate(293,53)"/>
<path d="M0 0 C2 2 2 2 2.25 5.5 C2 9 2 9 0 11 C-1.28571429 3.57142857 -1.28571429 3.57142857 0 0 Z " fill="#6271D3" transform="translate(346,2)"/>
<path d="M0 0 C0 2.62113708 -0.31292445 4.50935112 -1 7 C-2.32 7.33 -3.64 7.66 -5 8 C-3.375 2.25 -3.375 2.25 0 0 Z " fill="#416EAF" transform="translate(365,116)"/>
<path d="M0 0 C-2.3125 2.0625 -2.3125 2.0625 -5 4 C-5.99 3.67 -6.98 3.34 -8 3 C-8 2.34 -8 1.68 -8 1 C-2.25 -1.125 -2.25 -1.125 0 0 Z " fill="#25274B" transform="translate(512,74)"/>
<path d="M0 0 C1.125 3.75 1.125 3.75 0 6 C-3.0625 6.625 -3.0625 6.625 -6 7 C-5.67 6.34 -5.34 5.68 -5 5 C-4.34 5 -3.68 5 -3 5 C-3 4.34 -3 3.68 -3 3 C-2.34 3 -1.68 3 -1 3 C-0.67 2.01 -0.34 1.02 0 0 Z " fill="#375390" transform="translate(291,69)"/>
<path d="M0 0 C0.66 0 1.32 0 2 0 C1.6875 2.375 1.6875 2.375 1 5 C0.01 5.66 -0.98 6.32 -2 7 C-2.125 4.625 -2.125 4.625 -2 2 C-1.34 1.34 -0.68 0.68 0 0 Z " fill="#70E0F2" transform="translate(182,65)"/>
<path d="M0 0 C2.64 0.33 5.28 0.66 8 1 C8 1.99 8 2.98 8 4 C5.125 3.6875 5.125 3.6875 2 3 C1.34 2.01 0.68 1.02 0 0 Z " fill="#745FCA" transform="translate(540,236)"/>
<path d="M0 0 C-5.625 4 -5.625 4 -9 4 C-9 3.34 -9 2.68 -9 2 C-3.375 -1.125 -3.375 -1.125 0 0 Z " fill="#4F9BE6" transform="translate(562,181)"/>
<path d="M0 0 C2 3 2 3 2 6 C1.01 5.67 0.02 5.34 -1 5 C-3.14255793 5.38932856 -3.14255793 5.38932856 -5 6 C-3.35 4.02 -1.7 2.04 0 0 Z " fill="#273B60" transform="translate(396,128)"/>
<path d="M0 0 C-0.33 0.99 -0.66 1.98 -1 3 C-5.75 2.25 -5.75 2.25 -8 0 C-2.25 -1.125 -2.25 -1.125 0 0 Z " fill="#3D4881" transform="translate(344,101)"/>
<path d="M0 0 C0.33 0 0.66 0 1 0 C1.36923077 5.53846154 1.36923077 5.53846154 -0.5 7.875 C-1.2425 8.431875 -1.2425 8.431875 -2 9 C-2.25 3.375 -2.25 3.375 0 0 Z " fill="#7FD6FC" transform="translate(484,55)"/>
<path d="M0 0 C0.66 1.32 1.32 2.64 2 4 C1.01 4 0.02 4 -1 4 C-1.33 4.99 -1.66 5.98 -2 7 C-2.66 7 -3.32 7 -4 7 C-2.92598892 4.08482708 -2.22189824 2.22189824 0 0 Z " fill="#80C7ED" transform="translate(485,51)"/>
<path d="M0 0 C0.99 0.33 1.98 0.66 3 1 C-0.465 3.97 -0.465 3.97 -4 7 C-3.04065919 3.16263678 -2.76390737 2.40339772 0 0 Z " fill="#3B3E72" transform="translate(596,48)"/>
<path d="M0 0 C0.66 0.33 1.32 0.66 2 1 C-1.465 3.97 -1.465 3.97 -5 7 C-3.92643531 2.70574125 -3.4915227 2.25259529 0 0 Z " fill="#3B3E70" transform="translate(488,211)"/>
<path d="M0 0 C0.928125 0.2784375 0.928125 0.2784375 1.875 0.5625 C4.04160178 1.23686176 4.04160178 1.23686176 6 0 C5.67 1.65 5.34 3.3 5 5 C3.0625 4.1875 3.0625 4.1875 1 3 C0.67 2.01 0.34 1.02 0 0 Z " fill="#4F4A97" transform="translate(298,48)"/>
</svg>
